<svg width="486" height="486" viewBox="0 0 486 486" fill="none" xmlns="http://www.w3.org/2000/svg">
<mask id="mask0_2016_232" style="mask-type:alpha" maskUnits="userSpaceOnUse" x="0" y="0" width="486" height="486">
<circle cx="243" cy="243" r="242.5" fill="#D9D9D9" stroke="white"/>
</mask>
<g mask="url(#mask0_2016_232)">
<circle cx="243" cy="243" r="243" fill="black"/>
<path fill-rule="evenodd" clip-rule="evenodd" d="M177.786 71.9255C181.566 71.9255 183.058 72.6222 187.534 76.2054C190.319 78.5943 196.585 84.9644 201.359 90.4388C206.233 95.8137 212.897 104.175 222.545 117.811L227.519 117.214C230.204 117.014 236.172 116.716 248.904 116.716L254.474 108.455C257.557 103.975 262.829 96.9085 266.111 92.8276C269.394 88.7467 273.969 83.4714 276.157 81.0826C278.445 78.6938 281.528 76.0064 283.219 75.2101C284.811 74.3143 287.795 73.7171 289.684 73.7171C291.972 73.8166 293.961 74.6129 295.453 76.1059C296.647 77.3998 298.04 79.9877 298.437 81.8789C298.935 83.77 298.935 91.8323 298.537 99.795C298.139 107.758 297.741 118.707 297.642 134.134L302.615 138.116C305.4 140.305 309.578 144.585 311.965 147.571C314.352 150.557 318.032 155.932 320.021 159.516C322.11 163.099 325.194 169.768 326.984 174.446C329.769 181.712 330.863 183.404 335.041 186.688C337.726 188.779 352.646 196.841 368.262 204.605C392.432 216.648 396.908 219.236 398.897 222.222C400.19 224.213 401.086 227.199 401.086 229.189C401.086 231.081 400.19 236.256 399.096 240.636C398.002 245.015 395.416 251.983 393.427 256.064C391.139 260.642 387.359 266.117 383.679 269.998C379.402 274.477 375.125 277.762 369.655 280.649C365.378 282.938 358.216 285.725 353.84 286.82C349.463 287.915 336.433 290.005 324.995 291.398C313.457 292.792 300.029 294.384 295.155 295.081C287.795 295.977 285.706 296.674 283.617 298.764C281.727 300.655 280.733 303.243 279.738 308.319C279.042 312.599 278.246 331.411 277.749 357.091C277.251 380.083 276.356 402.877 275.759 407.853C275.063 412.73 273.472 421.091 272.179 426.267C270.886 431.443 268.299 438.808 266.41 442.69C264.619 446.473 262.033 450.752 260.641 452.146C259.248 453.539 256.861 455.232 255.27 455.928C253.579 456.725 250.893 457.023 248.904 456.725C247.014 456.426 244.328 455.032 240.449 451.151L236.073 458.417C233.785 462.298 230.503 467.176 226.226 472.55L224.137 502.908C222.943 519.63 221.153 547.798 220.059 565.615C218.965 583.432 217.771 605.628 216.578 632.004L221.053 634.293C223.54 635.587 227.817 638.872 230.602 641.659C233.586 644.745 236.968 649.522 238.957 653.703C241.046 658.082 242.439 662.959 242.836 666.742C243.433 672.714 243.334 672.913 239.952 676.396C237.465 678.885 235.277 680.079 231.995 680.577C229.508 680.875 216.975 681.075 204.144 680.875C184.152 680.577 180.273 680.278 177.587 678.885C175.797 677.889 173.609 675.7 172.813 674.107C172.017 672.415 168.834 657.784 165.85 641.46C162.866 625.236 157.495 596.172 153.914 577.061C150.334 557.851 147.25 542.025 146.952 541.727C146.753 541.428 146.355 542.523 146.057 544.215C145.758 545.808 144.863 557.951 144.067 571.089C143.172 584.228 142.277 603.239 141.183 631.805L146.057 634.99C148.742 636.782 152.82 640.066 155.108 642.455C157.396 644.844 160.678 649.821 162.468 653.703C164.557 658.182 165.85 662.86 166.149 666.642C166.646 672.116 166.447 672.913 163.761 675.899C161.971 677.989 159.385 679.482 156.898 680.079C154.71 680.577 142.178 681.075 129.048 681.075C115.62 681.075 103.684 680.676 101.695 680.079C99.8053 679.482 97.1198 678.089 95.8267 676.795C94.5337 675.6 93.1412 673.51 92.5444 672.116C92.047 670.723 89.6599 657.087 87.2727 641.759C84.8856 626.43 81.3048 603.537 79.415 590.996C77.5251 578.355 74.3422 557.752 72.4524 545.21C70.5626 532.57 68.2749 517.142 67.2802 510.871C66.385 504.6 65.3904 499.126 64.9925 498.728C64.6941 498.33 52.7583 496.24 38.5348 494.05C24.3112 491.761 4.11978 488.376 -6.2246 486.485C-16.6685 484.495 -25.3219 483.3 -25.7198 483.698C-26.0182 484.096 -27.3112 487.182 -28.5048 490.467C-29.7979 493.751 -33.2792 501.316 -36.1636 507.387C-39.0481 513.359 -43.9219 522.616 -47.0054 527.792C-50.1882 532.968 -56.554 542.423 -61.3283 548.694C-66.0032 554.965 -74.2588 564.62 -89.3775 580.047L-87.2888 590.498C-86.1947 596.271 -84.1059 607.917 -82.7134 616.377C-81.3209 624.838 -80.1273 631.805 -80.0278 631.905C-79.9283 631.905 -76.9444 633 -73.3636 634.293C-69.7829 635.488 -64.5112 638.175 -61.5273 640.166C-58.5433 642.157 -54.6642 645.74 -52.8738 648.228C-51.1829 650.717 -48.6963 655.196 -47.5027 658.182C-46.3091 661.168 -45.215 665.547 -45.215 667.836C-45.1155 670.623 -45.7123 672.913 -47.1048 674.804C-48.1989 676.297 -50.6856 678.387 -52.5754 679.283C-55.5594 680.875 -59.1401 681.075 -80.5251 681.075C-99.8214 681.075 -105.988 680.776 -108.873 679.582C-111.061 678.785 -113.747 676.595 -115.338 674.406C-116.83 672.316 -120.112 665.249 -122.599 658.679C-125.185 652.11 -132.446 633.497 -138.712 617.373C-145.078 601.248 -151.344 585.323 -152.637 582.038C-153.93 578.753 -154.925 575.369 -154.925 574.573C-154.925 573.777 -152.637 568.601 -149.753 563.127C-146.968 557.652 -142.691 547.102 -140.304 539.736C-137.917 532.37 -136.226 526.199 -136.524 526C-136.822 525.901 -140.005 528.389 -143.686 531.674C-147.465 534.859 -153.135 539.238 -156.417 541.428C-159.699 543.518 -164.474 546.504 -167.06 547.997C-169.944 549.59 -172.232 551.78 -172.928 553.472C-173.426 554.965 -175.117 560.141 -176.41 565.117C-177.802 569.994 -180.09 579.251 -181.383 585.522C-182.775 591.792 -184.765 603.04 -185.759 610.405C-186.853 617.771 -187.749 625.933 -187.749 628.62C-187.749 632.9 -187.55 633.298 -184.964 633.895C-183.472 634.194 -179.99 635.687 -177.305 637.279C-174.52 638.773 -170.342 642.256 -167.856 644.944C-165.468 647.532 -162.385 652.21 -160.993 655.196C-159.103 659.277 -158.506 662.362 -158.406 667.239C-158.406 672.515 -158.804 674.406 -160.396 676.098C-161.49 677.392 -163.877 678.984 -165.568 679.681C-168.055 680.776 -175.117 681.075 -194.413 681.075C-217.489 681.075 -220.473 680.875 -223.556 679.283C-225.446 678.188 -227.933 676.098 -229.027 674.505C-230.22 672.913 -231.414 669.827 -231.812 667.637C-232.11 665.448 -235.194 642.157 -238.476 615.88C-241.758 589.603 -244.643 567.606 -244.842 567.108C-245.041 566.511 -249.119 565.515 -253.993 564.719C-258.866 564.022 -268.216 562.032 -274.781 560.439C-281.345 558.847 -290.695 555.562 -295.668 553.273C-301.338 550.585 -305.814 547.699 -307.803 545.409C-310.19 542.722 -311.086 540.731 -311.086 538.243C-311.086 536.053 -310.19 533.764 -308.698 531.972C-307.505 530.479 -300.94 526.398 -294.276 522.815C-285.821 518.336 -279.953 514.355 -275.079 509.876C-271.2 506.293 -265.53 500.022 -262.447 495.941C-259.264 491.86 -254.291 483.499 -251.307 477.527C-248.124 471.257 -243.549 459.511 -240.565 450.155C-237.68 441.098 -232.806 426.068 -229.822 416.811C-226.739 407.455 -222.263 395.212 -219.876 389.439C-217.389 383.666 -213.013 374.708 -210.128 369.533C-207.144 364.357 -202.47 356.693 -199.585 352.612C-196.701 348.531 -190.036 340.867 -184.864 335.691C-179.593 330.515 -171.735 323.747 -167.358 320.661C-162.982 317.576 -156.517 313.495 -152.936 311.504C-149.355 309.514 -142.89 306.428 -138.513 304.537C-134.137 302.646 -125.682 299.66 -119.615 297.968C-113.647 296.275 -102.209 293.787 -94.2513 292.493C-86.2941 291.1 -71.5733 289.308 -61.4278 288.512C-51.2824 287.616 -32.4834 286.322 -19.6524 285.426C-6.8214 284.63 11.0823 283.236 20.1337 282.341C29.185 281.544 40.5241 280.051 45.4973 279.056C50.3711 277.961 56.9358 276.269 59.9198 275.174C62.9037 273.98 68.2749 271.193 71.8556 268.804C75.4364 266.515 82.1005 260.742 86.7754 256.064C91.4503 251.386 98.9102 243.124 103.287 237.65C107.763 232.175 114.427 223.416 118.107 218.241C121.887 213.065 131.336 199.13 153.417 165.985V146.775C153.417 135.428 154.014 123.086 154.909 116.517C155.705 110.346 157.296 101.985 158.39 98.0034C159.484 94.1216 161.673 88.05 163.264 84.5663C164.856 81.1821 167.84 76.9022 169.729 75.1106C172.713 72.5227 174.205 71.9255 177.786 71.9255ZM262.332 148.069C263.724 148.865 266.907 152.349 269.394 155.733C271.88 159.217 275.262 164.492 276.754 167.478C278.246 170.464 280.434 176.038 281.628 179.92C282.821 183.702 284.114 190.869 284.413 195.845C284.711 201.121 284.512 208.287 283.816 213.264C283.12 217.942 281.329 224.81 279.837 228.692C278.345 232.474 275.361 238.347 273.273 241.532C271.084 244.816 266.41 250.39 262.829 253.973C259.248 257.557 249.998 265.32 242.438 271.193C234.78 276.966 225.132 285.327 221.053 289.607C216.975 293.887 211.505 300.157 208.819 303.541C205.835 307.523 203.448 309.812 202.155 309.812C201.061 309.812 198.475 309.115 196.386 308.22C194.397 307.324 188.926 304.039 184.251 300.854C179.576 297.669 172.415 291.896 168.337 288.114C164.259 284.331 158.589 278.16 155.705 274.378C152.92 270.596 149.041 264.126 147.051 260.045C145.161 255.964 142.874 249.196 141.979 245.115C141.083 241.034 140.089 237.053 139.89 236.356C139.691 235.759 137.204 237.948 134.22 241.532C131.435 245.015 127.258 249.992 125.07 252.68C122.881 255.367 118.405 260.642 115.123 264.524C111.841 268.306 108.16 273.084 106.967 274.975C105.773 276.866 103.585 281.843 102.193 285.924C100.8 290.005 99.2086 297.171 98.8107 301.849C98.2139 306.826 98.2139 313.594 98.8107 318.273C99.308 322.652 100.601 329.619 101.596 333.7C102.69 337.781 104.878 344.251 106.469 348.133C108.061 351.915 111.741 359.977 114.725 365.85L120.096 376.6C127.755 366.148 131.236 361.669 132.728 359.878C134.32 358.086 136.309 356.593 137.204 356.593C138.199 356.593 140.188 358.484 141.581 360.873C143.073 363.162 146.355 369.334 148.941 374.509C151.527 379.685 155.705 388.842 158.191 394.914C160.579 400.886 163.762 408.948 165.055 412.83C166.348 416.612 168.735 424.973 170.326 431.244C171.818 437.514 173.807 446.97 174.703 452.146C175.598 457.322 176.593 465.284 176.99 469.764C177.687 477.428 177.985 477.925 179.775 477.428C180.87 477.029 183.356 475.835 185.246 474.74C187.136 473.645 191.612 470.46 195.093 467.673C198.674 464.886 203.945 459.711 206.929 456.127C209.814 452.544 214.489 445.179 217.174 439.704C219.86 434.23 223.242 425.073 224.833 419.3C226.325 413.527 228.314 407.654 229.309 406.062C230.204 404.569 232.691 402.677 234.68 401.782C237.067 400.786 239.852 400.488 242.14 400.786C244.726 401.184 246.616 402.279 248.108 404.37C249.401 405.962 250.694 407.057 251.092 406.858C251.589 406.559 252.186 403.573 252.484 400.189C252.783 396.705 253.181 376.699 253.28 355.598C253.479 324.145 253.877 315.685 255.27 308.319C256.264 303.342 258.452 296.176 260.243 292.394C262.033 288.512 264.818 283.933 266.41 282.042C268.001 280.151 270.985 277.563 272.974 276.269C275.063 275.075 279.44 273.084 282.722 271.989C286.402 270.795 295.255 269.401 305.798 268.406C315.247 267.51 329.073 265.818 336.433 264.624C345.385 263.131 351.95 261.339 356.227 259.448C359.708 257.855 363.886 255.068 365.378 253.277C366.969 251.585 368.262 249.594 368.262 249.096C368.262 248.499 367.068 247.106 365.576 245.812C364.084 244.617 362.095 241.83 361.101 239.641C360.205 237.451 359.31 234.166 359.31 232.375C359.31 229.787 358.614 228.791 355.53 226.801C353.541 225.507 347.175 222.123 341.406 219.236C335.637 216.35 327.382 211.671 323.005 208.785C318.629 205.898 313.457 202.017 311.567 200.125C308.881 197.637 307.29 194.552 304.803 187.385C303.112 182.209 300.128 175.441 298.437 172.455C296.647 169.469 292.271 164.094 288.69 160.511C283.816 155.534 280.136 152.847 273.77 149.861C269.095 147.571 264.122 145.481 262.63 145.183C261.038 144.784 259.845 144.984 259.845 145.581C259.845 146.078 260.939 147.273 262.332 148.069ZM243.035 193.755C243.035 195.746 243.632 198.632 244.428 200.325C245.224 201.917 246.914 204.007 248.108 204.804C249.401 205.6 252.186 206.297 254.374 206.297C256.563 206.297 259.348 205.6 260.541 204.804C261.834 204.007 263.525 201.917 264.321 200.325C265.117 198.632 265.813 196.244 265.813 194.85C265.813 193.457 265.017 190.769 264.022 188.779C263.127 186.788 261.138 184.499 259.547 183.802C258.055 183.006 255.468 182.408 253.778 182.408C251.49 182.408 249.699 183.404 246.914 186.29C244.129 189.177 243.135 190.968 243.035 193.755ZM-238.575 508.781C-243.151 514.554 -250.113 521.919 -253.893 525.204C-257.772 528.588 -262.447 532.47 -264.337 533.864L-267.818 536.551C-261.651 538.143 -256.081 539.139 -251.406 539.736C-246.732 540.234 -241.261 540.731 -239.272 540.731C-235.492 540.731 -235.492 540.632 -232.607 533.465C-231.016 529.584 -228.728 523.412 -227.535 519.829C-226.341 516.246 -224.252 507.985 -222.959 501.415C-221.666 494.846 -220.373 488.476 -220.174 487.182C-220.075 485.988 -220.174 484.992 -220.572 484.992C-220.97 484.992 -223.357 487.978 -225.744 491.661C-228.231 495.443 -234 503.107 -238.575 508.781ZM97.1198 622.548C97.5176 624.34 98.9102 632.8 100.303 641.261C101.596 649.721 103.187 659.077 103.684 661.964L104.679 667.14H153.914C152.721 662.163 151.527 659.177 150.632 657.286C149.737 655.395 146.952 652.011 144.366 649.821C141.879 647.531 137.403 644.844 134.419 643.65C129.247 641.659 129.048 641.36 128.849 637.678C128.65 635.587 128.352 630.511 128.053 626.629L127.556 619.363H96.4235L97.1198 622.548ZM179.576 644.247L183.754 666.543C224.833 667.04 230.005 666.841 230.005 665.846C230.005 665.149 229.409 662.86 228.712 660.67C228.116 658.58 225.728 654.797 223.54 652.309C221.153 649.622 217.174 646.735 213.594 645.043C210.311 643.451 206.83 642.256 205.935 642.256C204.343 642.256 204.045 640.763 203.647 630.81L203.15 619.363C178.681 619.363 175.299 619.662 175.399 620.558C175.399 621.255 177.289 631.905 179.576 644.247Z" fill="black"/>
<path d="M177.786 56C180.783 56 184.589 56.2766 188.838 58.1579C191.917 59.5211 194.559 61.4652 196.625 63.0938L197.475 63.7693L197.686 63.9384L197.891 64.1144C201.487 67.1989 208.292 74.1731 213.307 79.9183C217.703 84.7846 223.123 91.5021 230.147 101.113C232.603 101.002 235.918 100.898 240.409 100.84L241.282 99.5472L241.324 99.483L241.368 99.4198C244.678 94.6113 250.187 87.2274 253.714 82.8421C257.213 78.4917 262.011 72.9581 264.426 70.3216L264.545 70.1914L264.668 70.0641C266.176 68.4888 267.928 66.83 269.654 65.3741C270.94 64.2887 273.251 62.4139 275.894 61.07C278.501 59.6895 281.152 58.9655 282.905 58.5778C284.921 58.1317 287.319 57.7914 289.684 57.7914H290.03L290.376 57.807C296.052 58.054 302.008 60.1436 306.706 64.8453L306.932 65.0699L307.147 65.3041C308.994 67.3061 310.392 69.5661 311.341 71.3792C312.252 73.1192 313.315 75.5288 313.931 78.2426C314.429 80.3411 314.553 82.4797 314.608 83.472C314.693 84.9909 314.73 86.7214 314.737 88.4993C314.751 92.0776 314.642 96.3731 314.431 100.59C314.113 106.957 313.795 115.338 313.637 126.566C317.348 129.697 321.699 134.255 324.391 137.623C327.242 141.188 331.39 147.228 333.87 151.669C336.49 156.205 339.862 163.568 341.843 168.743L342.304 169.932C342.729 171.012 343.051 171.784 343.318 172.372C343.524 172.827 343.661 173.084 343.732 173.212C343.872 173.343 344.167 173.604 344.72 174.043C344.724 174.033 345.376 174.472 347.145 175.497C348.976 176.558 351.427 177.922 354.356 179.502C359.47 182.262 365.833 185.573 372.48 188.911L375.343 190.342L375.349 190.346L375.356 190.349C387.323 196.312 394.947 200.193 399.832 203.004C404.331 205.594 408.669 208.416 411.836 212.944L412.138 213.388L412.19 213.465L412.24 213.543C415.058 217.881 417 223.848 417 229.189C417 231.664 416.535 234.663 416.181 236.704C415.758 239.142 415.182 241.912 414.536 244.499C413.152 250.036 410.168 258.045 407.73 263.046L407.661 263.186C404.694 269.124 400.02 275.901 395.224 280.959L395.205 280.98L395.185 281.001C389.799 286.64 384.18 290.975 377.159 294.69L377.16 294.691C377.153 294.696 377.144 294.699 377.136 294.703C377.116 294.714 377.097 294.726 377.077 294.736L377.076 294.735C371.709 297.596 363.385 300.847 357.7 302.269C352.271 303.627 338.368 305.812 326.918 307.207L326.91 307.208L326.901 307.209C315.18 308.625 302.052 310.182 297.406 310.846L297.242 310.87L297.076 310.89C296.457 310.965 295.907 311.037 295.417 311.103C295.396 311.287 295.363 311.593 295.321 312.046C295.249 312.835 295.169 313.872 295.084 315.17C294.915 317.763 294.741 321.181 294.569 325.336C294.227 333.634 293.907 344.636 293.66 357.399V357.417L293.659 357.436C293.17 380.069 292.273 403.809 291.56 409.751L291.539 409.929L291.514 410.105C290.748 415.471 289.056 424.373 287.617 430.13C286.132 436.074 283.248 444.411 280.791 449.507L280.792 449.508C279.65 451.921 278.29 454.424 276.97 456.594C275.908 458.34 274.066 461.232 271.893 463.407C269.431 465.87 265.63 468.687 262.045 470.337C257.024 472.702 251.069 473.153 246.543 472.474L246.482 472.465L246.422 472.455C246.302 472.436 246.183 472.414 246.064 472.393C244.771 474.321 243.34 476.349 241.771 478.452L240.014 504.002L240.012 504.022L240.011 504.043C238.824 520.681 237.037 548.782 235.943 566.592C234.992 582.075 233.964 600.909 232.925 622.964C235.857 625.01 238.851 627.493 241.167 629.723L241.856 630.398L241.948 630.49L242.038 630.584C246.177 634.864 250.562 641.053 253.319 646.843L253.827 647.938C256.155 653.088 257.85 658.802 258.533 663.975L258.664 665.074L258.668 665.116L258.672 665.157C258.807 666.517 258.984 668.272 259.023 669.9C259.065 671.636 258.994 674.223 258.117 677.12C256.388 682.83 252.176 686.659 251.367 687.493L251.286 687.575L251.205 687.657C246.625 692.24 241.427 695.254 234.378 696.322L234.135 696.359L233.891 696.389C230.102 696.844 216.354 696.992 203.898 696.799C194.033 696.651 187.557 696.501 183.183 696.172C178.812 695.843 174.536 695.241 170.261 693.023L170.058 692.918L169.858 692.806C169.5 692.607 169.151 692.399 168.809 692.186C166.199 693.756 163.404 694.895 160.613 695.565L160.519 695.588L160.425 695.609C158.456 696.057 155.981 696.234 154.566 696.332C152.649 696.465 150.284 696.581 147.664 696.678C142.406 696.873 135.794 697 129.048 697C122.2 697 115.665 696.899 110.519 696.716C107.96 696.625 105.629 696.511 103.724 696.367C102.559 696.279 99.5948 696.075 97.1221 695.333L97.0123 695.3L96.9026 695.265C94.8094 694.603 92.7142 693.662 90.9055 692.673C89.3016 691.795 86.8913 690.323 84.7404 688.218C81.7695 685.378 79.2607 681.528 77.9168 678.39L77.7225 677.937L77.5574 677.473C76.9187 675.684 76.431 673.046 76.2218 671.963C75.8645 670.113 75.4253 667.692 74.9386 664.896C73.9625 659.289 72.7534 651.953 71.5477 644.211C69.1659 628.917 65.5764 605.963 63.6789 593.371L63.6769 593.362L63.676 593.352C61.7762 580.645 58.633 560.304 56.7163 547.585L56.7144 547.576L56.7134 547.567C54.8119 534.848 52.5423 519.545 51.5624 513.367L51.5429 513.246L51.5255 513.123C51.4838 512.832 51.44 512.543 51.3982 512.257C47.118 511.527 41.8196 510.668 36.1151 509.79L36.0607 509.781L36.0073 509.774C21.75 507.479 1.42773 504.073 -9.08423 502.151L-9.20273 502.13C-11.4916 501.694 -13.674 501.3 -15.6757 500.959C-17.4649 505.007 -19.8368 510.113 -21.7903 514.226L-21.8127 514.271L-21.835 514.318C-24.8578 520.576 -29.9505 530.265 -33.3357 535.947L-33.393 536.043L-33.4513 536.139C-36.8563 541.676 -43.4569 551.482 -48.5731 558.216L-48.5721 558.217C-53.1438 564.349 -60.3528 572.827 -72.133 585.126L-71.6677 587.453L-71.6531 587.531C-70.5373 593.418 -68.4253 605.191 -67.0101 613.789C-66.6429 616.02 -66.2905 618.14 -65.9698 620.051C-61.3439 621.874 -56.1025 624.645 -52.6993 626.915C-48.6183 629.638 -43.4267 634.268 -40.2584 638.513L-39.9583 638.923L-39.8339 639.096L-39.7135 639.273C-37.5015 642.528 -34.4233 648.022 -32.7267 652.267C-31.8024 654.579 -31.0119 657.165 -30.4401 659.538C-29.9514 661.566 -29.3523 664.534 -29.3056 667.474C-29.1462 672.911 -30.3482 678.876 -34.2721 684.221C-34.2792 684.231 -34.2853 684.241 -34.2925 684.251L-34.2934 684.25C-35.8988 686.433 -37.8593 688.268 -39.4143 689.551C-40.9307 690.803 -43.0234 692.325 -45.4211 693.509C-49.7561 695.743 -53.9684 696.374 -58.6478 696.67C-63.2011 696.957 -70.0122 697 -80.5253 697C-90.1364 697 -96.8945 696.929 -101.678 696.68C-105.866 696.463 -110.506 696.067 -114.666 694.413C-120.318 692.251 -125.254 687.839 -128.208 683.773L-128.288 683.662C-130.02 681.236 -131.775 677.641 -133.038 674.912C-134.499 671.754 -136.075 668.031 -137.448 664.41C-140.079 657.725 -147.288 639.245 -153.514 623.224L-162.383 600.731C-163.98 596.677 -165.323 593.266 -166.258 590.891C-167.513 596.929 -169.144 606.282 -169.989 612.538L-170.002 612.643L-170.018 612.747C-170.503 616.011 -170.945 619.448 -171.278 622.412C-170.672 622.733 -170.068 623.068 -169.475 623.414C-165.033 625.866 -160.042 630.1 -156.813 633.451L-156.178 634.123L-156.17 634.133L-156.162 634.142C-152.618 637.984 -148.631 644.046 -146.572 648.461L-146.562 648.48L-146.553 648.499C-143.567 654.949 -142.63 660.281 -142.495 666.914L-142.492 667.077V667.239C-142.492 672.162 -142.46 680.041 -148.548 686.732C-150.337 688.757 -152.362 690.291 -153.771 691.256C-155.283 692.292 -157.159 693.395 -159.159 694.255L-159.158 694.258C-161.795 695.419 -164.421 695.886 -166.228 696.136C-168.226 696.413 -170.486 696.58 -172.938 696.696C-177.846 696.927 -184.783 697 -194.413 697C-205.76 697 -212.845 696.957 -217.465 696.67C-222.55 696.355 -226.546 695.66 -230.855 693.435L-231.197 693.258L-231.53 693.065C-234.692 691.233 -239.129 687.788 -241.969 683.773C-244.904 679.722 -246.776 674.304 -247.47 670.486L-247.533 670.139L-247.58 669.789C-247.889 667.527 -250.979 644.175 -254.267 617.855C-255.905 604.74 -257.444 592.702 -258.595 583.892C-258.775 582.52 -258.946 581.229 -259.105 580.026C-264.852 579.034 -272.856 577.293 -278.53 575.916C-286.052 574.092 -296.377 570.476 -302.319 567.741L-302.401 567.704L-302.481 567.665C-308.362 564.877 -315.383 560.881 -319.696 555.989L-319.697 555.99C-319.717 555.968 -319.737 555.944 -319.757 555.922C-319.775 555.901 -319.794 555.881 -319.812 555.86L-319.81 555.859C-323.676 551.472 -327 545.905 -327 538.243C-327 531.909 -324.518 526.092 -320.924 521.777L-320.922 521.778C-319.172 519.672 -317.044 518.124 -316.265 517.555C-314.978 516.614 -313.506 515.64 -312.025 514.706C-309.036 512.82 -305.402 510.719 -301.808 508.786L-301.766 508.764L-301.722 508.74C-294.05 504.676 -289.43 501.436 -285.871 498.17C-282.686 495.228 -277.654 489.663 -275.141 486.337L-275.067 486.238L-274.993 486.142C-272.708 483.213 -268.275 475.877 -265.541 470.405L-265.519 470.36L-265.496 470.315C-262.839 465.08 -258.564 454.211 -255.726 445.314C-252.83 436.221 -247.934 421.123 -244.968 411.922L-244.953 411.873L-244.936 411.824C-241.774 402.228 -237.163 389.595 -234.581 383.351L-234.536 383.243L-234.491 383.136C-231.812 376.917 -227.2 367.469 -224.027 361.776L-223.971 361.675L-223.914 361.575C-220.868 356.292 -215.898 348.113 -212.578 343.416C-208.998 338.35 -201.668 329.985 -196.118 324.43L-196.063 324.377L-196.01 324.323C-190.369 318.785 -181.837 311.389 -176.524 307.643C-171.759 304.284 -164.814 299.89 -160.665 297.583C-156.47 295.251 -149.49 291.933 -144.822 289.916C-139.717 287.71 -130.59 284.498 -123.911 282.634C-117.262 280.752 -105.308 278.162 -96.8953 276.789C-88.3685 275.302 -73.3242 273.478 -62.8353 272.648C-52.5029 271.736 -33.494 270.429 -20.7597 269.54L-20.6985 269.535L-20.6374 269.531C-7.93608 268.743 9.76401 267.364 18.5669 266.492L18.6534 266.484L18.7398 266.477C27.3992 265.715 37.912 264.312 42.1948 263.474C46.8517 262.423 52.1759 261.013 54.2336 260.295C56.2537 259.45 60.4267 257.289 63.0281 255.553L63.1573 255.467L63.2874 255.383C65.4112 254.025 71.1146 249.214 75.5224 244.803C79.8179 240.504 86.8805 232.679 90.8599 227.701L90.9143 227.633L90.9696 227.565C95.2174 222.37 101.664 213.895 105.14 209.008L105.258 208.844C108.637 204.217 117.242 191.552 137.503 161.159V146.775C137.503 135.888 138.029 123.629 138.951 115.858L139.14 114.366C140.002 107.733 141.701 98.6701 143.045 93.7802L143.06 93.7306L143.073 93.6801C144.364 89.1024 146.823 82.2531 148.791 77.9451L148.827 77.8654L148.864 77.7857C151.073 73.0889 155.114 67.0293 158.785 63.5496L159.04 63.3066L159.306 63.0763C161.159 61.4695 163.922 59.2272 167.676 57.7399C171.603 56.1847 175.204 56 177.786 56ZM177.786 71.9255C174.205 71.9255 172.713 72.5227 169.729 75.1106C167.84 76.9022 164.856 81.1821 163.264 84.5663C161.673 88.05 159.484 94.1216 158.39 98.0034C157.296 101.985 155.705 110.346 154.909 116.517C154.014 123.086 153.417 135.428 153.417 146.775V165.985C131.336 199.13 121.887 213.065 118.107 218.241C114.427 223.416 107.763 232.175 103.287 237.65C98.9102 243.124 91.4503 251.386 86.7754 256.064C82.1005 260.742 75.4364 266.515 71.8556 268.804C68.2749 271.193 62.9037 273.98 59.9198 275.174C56.9358 276.269 50.3711 277.961 45.4973 279.056C40.5241 280.051 29.185 281.544 20.1337 282.341C11.0823 283.236 -6.8214 284.63 -19.6524 285.426C-32.4834 286.322 -51.2824 287.616 -61.4278 288.512C-71.5733 289.308 -86.2941 291.1 -94.2513 292.493C-102.209 293.787 -113.647 296.275 -119.615 297.968C-125.682 299.66 -134.137 302.646 -138.513 304.537C-142.89 306.428 -149.355 309.514 -152.936 311.504C-156.517 313.495 -162.982 317.576 -167.358 320.661C-171.735 323.747 -179.593 330.515 -184.864 335.691C-190.036 340.867 -196.701 348.531 -199.585 352.612C-202.47 356.693 -207.144 364.357 -210.128 369.533C-213.013 374.708 -217.389 383.666 -219.876 389.439C-222.263 395.212 -226.739 407.455 -229.822 416.811C-232.806 426.068 -237.68 441.098 -240.565 450.155C-243.549 459.511 -248.124 471.257 -251.307 477.527C-254.291 483.499 -259.264 491.86 -262.447 495.941C-265.53 500.022 -271.2 506.293 -275.079 509.876C-279.953 514.355 -285.821 518.336 -294.276 522.815C-300.94 526.398 -307.505 530.479 -308.698 531.972C-310.19 533.764 -311.086 536.053 -311.086 538.243C-311.086 540.731 -310.19 542.722 -307.803 545.409C-305.814 547.699 -301.338 550.585 -295.668 553.273C-290.695 555.562 -281.345 558.847 -274.781 560.439C-268.216 562.032 -258.866 564.022 -253.993 564.719C-249.119 565.515 -245.041 566.511 -244.842 567.108C-244.643 567.606 -241.758 589.603 -238.476 615.88C-235.194 642.157 -232.11 665.448 -231.812 667.637C-231.414 669.827 -230.22 672.913 -229.027 674.505C-227.933 676.098 -225.446 678.188 -223.556 679.283C-220.473 680.875 -217.489 681.075 -194.413 681.075C-175.117 681.075 -168.055 680.776 -165.568 679.681C-163.877 678.984 -161.49 677.392 -160.396 676.098C-158.804 674.406 -158.406 672.515 -158.406 667.239C-158.506 662.362 -159.103 659.277 -160.993 655.196C-162.385 652.21 -165.468 647.532 -167.856 644.944C-170.342 642.256 -174.52 638.773 -177.305 637.279C-179.99 635.687 -183.472 634.194 -184.964 633.895C-187.55 633.298 -187.749 632.9 -187.749 628.62C-187.749 625.933 -186.853 617.771 -185.759 610.405C-184.765 603.04 -182.775 591.792 -181.383 585.522C-180.09 579.251 -177.802 569.994 -176.41 565.117C-175.117 560.141 -173.426 554.965 -172.928 553.472C-172.232 551.78 -169.944 549.59 -167.06 547.997C-164.474 546.504 -159.699 543.518 -156.417 541.428C-153.135 539.238 -147.465 534.859 -143.686 531.674C-140.005 528.389 -136.822 525.901 -136.524 526C-136.226 526.2 -137.917 532.371 -140.304 539.736C-142.691 547.102 -146.968 557.652 -149.753 563.127C-152.637 568.601 -154.925 573.777 -154.925 574.573C-154.925 575.369 -153.93 578.753 -152.637 582.038C-151.344 585.323 -145.078 601.248 -138.712 617.373C-132.446 633.497 -125.185 652.11 -122.599 658.679C-120.112 665.249 -116.83 672.316 -115.338 674.406C-113.747 676.595 -111.061 678.785 -108.873 679.582C-105.988 680.776 -99.8214 681.075 -80.5251 681.075C-59.1401 681.075 -55.5594 680.875 -52.5754 679.283C-50.6856 678.387 -48.1989 676.297 -47.1048 674.804C-45.7123 672.913 -45.1155 670.623 -45.215 667.836C-45.215 665.547 -46.3091 661.168 -47.5027 658.182C-48.6963 655.196 -51.1829 650.717 -52.8738 648.228C-54.6642 645.74 -58.5433 642.157 -61.5273 640.166C-64.5112 638.175 -69.7829 635.488 -73.3636 634.293C-76.9444 633 -79.9283 631.905 -80.0278 631.905C-80.1292 631.793 -81.3221 624.83 -82.7134 616.377C-84.1059 607.917 -86.1947 596.271 -87.2888 590.498L-89.3775 580.047C-74.2588 564.62 -66.0032 554.965 -61.3283 548.694C-56.554 542.423 -50.1882 532.968 -47.0054 527.792C-43.9219 522.616 -39.0481 513.359 -36.1636 507.387C-33.2792 501.316 -29.7979 493.751 -28.5048 490.467C-27.3112 487.182 -26.0182 484.096 -25.7198 483.698C-25.3205 483.3 -16.6675 484.495 -6.2246 486.485C4.11978 488.376 24.3112 491.761 38.5348 494.05C52.7546 496.239 64.6882 498.329 64.9925 498.728C65.3904 499.126 66.385 504.6 67.2802 510.871C68.2749 517.142 70.5626 532.57 72.4524 545.21C74.3422 557.752 77.5251 578.355 79.415 590.996C81.3048 603.537 84.8856 626.43 87.2727 641.759C89.6599 657.087 92.047 670.723 92.5444 672.116C93.1412 673.51 94.5337 675.6 95.8267 676.795C97.1198 678.089 99.8053 679.482 101.695 680.079C103.684 680.676 115.62 681.075 129.048 681.075C142.178 681.075 154.71 680.577 156.898 680.079C159.385 679.482 161.971 677.989 163.761 675.899C166.447 672.913 166.646 672.116 166.149 666.642C165.85 662.86 164.557 658.182 162.468 653.703C160.678 649.821 157.396 644.844 155.108 642.455C152.82 640.066 148.742 636.782 146.057 634.99L141.183 631.805C142.277 603.239 143.172 584.228 144.067 571.089C144.863 557.951 145.758 545.808 146.057 544.215C146.355 542.523 146.753 541.428 146.952 541.727C147.25 542.025 150.334 557.851 153.914 577.061C157.495 596.172 162.866 625.236 165.85 641.46C168.834 657.784 172.017 672.415 172.813 674.107C173.609 675.7 175.797 677.889 177.587 678.885C180.273 680.278 184.152 680.577 204.144 680.875C216.975 681.075 229.508 680.875 231.995 680.577C235.277 680.079 237.465 678.885 239.952 676.396C243.334 672.913 243.433 672.714 242.836 666.742C242.439 662.959 241.046 658.082 238.957 653.703C236.968 649.522 233.586 644.745 230.602 641.659C227.817 638.872 223.54 635.587 221.053 634.293L216.578 632.004C217.771 605.628 218.965 583.432 220.059 565.615C221.153 547.798 222.943 519.63 224.137 502.908L226.226 472.55C230.503 467.176 233.785 462.298 236.073 458.417L240.449 451.151C244.328 455.032 247.014 456.426 248.904 456.725C250.893 457.023 253.579 456.725 255.27 455.928C256.861 455.232 259.248 453.539 260.641 452.146C262.033 450.752 264.619 446.473 266.41 442.69C268.299 438.808 270.886 431.443 272.179 426.267C273.472 421.091 275.063 412.73 275.759 407.853C276.356 402.877 277.251 380.083 277.749 357.091C278.246 331.411 279.042 312.599 279.738 308.319C280.733 303.243 281.727 300.655 283.617 298.764C285.706 296.674 287.795 295.977 295.155 295.081C300.029 294.384 313.457 292.792 324.995 291.398C336.433 290.005 349.463 287.915 353.84 286.82C358.216 285.725 365.378 282.938 369.655 280.649C375.125 277.762 379.402 274.477 383.679 269.998C387.359 266.117 391.139 260.642 393.427 256.064C395.416 251.983 398.002 245.015 399.096 240.636C400.19 236.256 401.086 231.081 401.086 229.189C401.086 227.199 400.19 224.213 398.897 222.222C396.908 219.236 392.432 216.648 368.262 204.605C352.646 196.841 337.726 188.779 335.041 186.688C330.863 183.404 329.769 181.712 326.984 174.446C325.194 169.768 322.11 163.099 320.021 159.516C318.032 155.932 314.352 150.557 311.965 147.571C309.578 144.585 305.4 140.305 302.615 138.116L297.642 134.134C297.741 118.707 298.139 107.758 298.537 99.795C298.935 91.8323 298.935 83.77 298.437 81.8789C298.04 79.9877 296.647 77.3998 295.453 76.1059C293.961 74.6129 291.972 73.8166 289.684 73.7171C287.795 73.7171 284.811 74.3143 283.219 75.2101C281.528 76.0064 278.445 78.6938 276.157 81.0826C273.969 83.4714 269.394 88.7467 266.111 92.8276C262.829 96.9085 257.557 103.975 254.474 108.455L248.904 116.716C236.172 116.716 230.204 117.014 227.519 117.214L222.545 117.811C212.897 104.175 206.233 95.8137 201.359 90.4388C196.585 84.9644 190.319 78.5943 187.534 76.2054C183.058 72.6222 181.566 71.9255 177.786 71.9255ZM127.556 619.363L128.053 626.629C128.352 630.511 128.65 635.587 128.849 637.678C129.048 641.36 129.247 641.659 134.419 643.65C137.403 644.844 141.879 647.531 144.366 649.821C146.952 652.011 149.737 655.395 150.632 657.286C151.527 659.177 152.721 662.163 153.914 667.14H104.679L103.684 661.964C103.187 659.077 101.596 649.721 100.303 641.261C98.9102 632.8 97.5176 624.34 97.1198 622.548L96.4235 619.363H127.556ZM203.647 630.81C204.045 640.763 204.343 642.256 205.935 642.256C206.83 642.256 210.311 643.451 213.594 645.043C217.174 646.735 221.153 649.622 223.54 652.309C225.728 654.797 228.116 658.58 228.712 660.67C229.409 662.86 230.005 665.149 230.005 665.846C230.005 666.841 224.831 667.04 183.754 666.543L179.576 644.247C177.289 631.906 175.399 621.256 175.399 620.558C175.299 619.662 178.681 619.363 203.15 619.363L203.647 630.81ZM-220.572 484.992C-220.174 484.992 -220.075 485.988 -220.174 487.182C-220.373 488.476 -221.666 494.846 -222.959 501.415C-224.252 507.985 -226.341 516.246 -227.535 519.829C-228.728 523.412 -231.016 529.584 -232.607 533.465C-235.492 540.632 -235.492 540.731 -239.272 540.731C-241.261 540.731 -246.732 540.234 -251.406 539.736C-256.081 539.139 -261.651 538.143 -267.818 536.551L-264.337 533.864C-262.447 532.47 -257.772 528.588 -253.893 525.204C-250.113 521.919 -243.151 514.554 -238.575 508.781C-234 503.107 -228.231 495.443 -225.744 491.661C-223.357 487.978 -220.97 484.992 -220.572 484.992ZM259.845 145.581C259.845 144.984 261.038 144.784 262.63 145.183C264.122 145.481 269.095 147.571 273.77 149.861C280.136 152.847 283.816 155.534 288.69 160.511C292.271 164.094 296.647 169.469 298.437 172.455C300.128 175.441 303.112 182.209 304.803 187.385C307.29 194.552 308.881 197.637 311.567 200.125C313.457 202.017 318.629 205.898 323.005 208.785C327.382 211.671 335.637 216.35 341.406 219.236C347.175 222.123 353.541 225.507 355.53 226.801C358.614 228.791 359.31 229.787 359.31 232.375C359.31 234.166 360.205 237.451 361.101 239.641C362.095 241.83 364.084 244.617 365.576 245.812C367.068 247.106 368.262 248.499 368.262 249.096C368.262 249.594 366.969 251.585 365.378 253.277C363.886 255.068 359.708 257.855 356.227 259.448C351.95 261.339 345.385 263.131 336.433 264.624C329.073 265.818 315.247 267.51 305.798 268.406C295.255 269.401 286.402 270.795 282.722 271.989C279.44 273.084 275.063 275.075 272.974 276.269C270.985 277.563 268.001 280.151 266.41 282.042C264.818 283.933 262.033 288.512 260.243 292.394C258.452 296.176 256.264 303.342 255.27 308.319C253.877 315.685 253.479 324.145 253.28 355.598C253.181 376.699 252.783 396.705 252.484 400.189C252.186 403.573 251.589 406.559 251.092 406.858C250.694 407.057 249.401 405.962 248.108 404.37C246.616 402.279 244.726 401.184 242.14 400.786C239.852 400.488 237.067 400.786 234.68 401.782C232.691 402.677 230.204 404.569 229.309 406.062C228.314 407.654 226.325 413.527 224.833 419.3C223.242 425.073 219.86 434.23 217.174 439.704C214.489 445.179 209.814 452.544 206.929 456.127C203.945 459.711 198.674 464.886 195.093 467.673C191.612 470.46 187.136 473.645 185.246 474.74C183.356 475.835 180.87 477.029 179.775 477.428C177.985 477.925 177.687 477.428 176.99 469.764C176.593 465.284 175.598 457.322 174.703 452.146C173.807 446.97 171.818 437.514 170.326 431.244C168.735 424.973 166.348 416.612 165.055 412.83C163.762 408.948 160.579 400.886 158.191 394.914C155.705 388.842 151.527 379.685 148.941 374.509C146.355 369.334 143.073 363.162 141.581 360.873C140.188 358.484 138.199 356.593 137.204 356.593C136.309 356.593 134.32 358.086 132.728 359.878C131.236 361.669 127.755 366.148 120.096 376.6L114.725 365.85C111.741 359.977 108.061 351.915 106.469 348.133C104.878 344.251 102.69 337.781 101.596 333.7C100.601 329.619 99.308 322.652 98.8107 318.273C98.2139 313.594 98.2139 306.826 98.8107 301.849C99.2086 297.171 100.8 290.005 102.193 285.924C103.585 281.843 105.773 276.866 106.967 274.975C108.16 273.084 111.841 268.306 115.123 264.524C118.405 260.642 122.881 255.367 125.07 252.68C127.258 249.992 131.435 245.015 134.22 241.532C137.204 237.948 139.691 235.759 139.89 236.356C140.089 237.053 141.083 241.034 141.979 245.115C142.874 249.196 145.161 255.964 147.051 260.045C149.041 264.126 152.92 270.596 155.705 274.378C158.589 278.16 164.259 284.331 168.337 288.114C172.415 291.896 179.576 297.669 184.251 300.854C188.926 304.039 194.397 307.324 196.386 308.22C198.475 309.115 201.061 309.812 202.155 309.812C203.448 309.812 205.835 307.523 208.819 303.541C211.505 300.157 216.975 293.887 221.053 289.607C225.132 285.327 234.78 276.966 242.438 271.193C249.998 265.32 259.248 257.557 262.829 253.973C266.41 250.39 271.084 244.816 273.273 241.532C275.361 238.347 278.345 232.474 279.837 228.692C281.329 224.81 283.12 217.942 283.816 213.264C284.512 208.287 284.711 201.121 284.413 195.845C284.114 190.869 282.821 183.702 281.628 179.92C280.434 176.038 278.246 170.464 276.754 167.478C275.262 164.492 271.88 159.217 269.394 155.733C266.907 152.349 263.724 148.865 262.332 148.069C260.939 147.273 259.845 146.078 259.845 145.581ZM133.154 267.845C131.173 270.2 129.013 272.751 127.272 274.811L127.205 274.889L127.138 274.966C125.717 276.605 124.159 278.518 122.824 280.236C122.161 281.089 121.585 281.852 121.135 282.469C120.91 282.777 120.732 283.027 120.599 283.219C120.535 283.312 120.489 283.379 120.461 283.422C120.423 283.492 120.327 283.672 120.17 283.988C119.912 284.508 119.591 285.197 119.235 286.011C118.513 287.662 117.785 289.511 117.253 291.07C116.242 294.032 114.946 299.925 114.667 303.2L114.644 303.474L114.612 303.747C114.19 307.27 114.176 312.281 114.523 315.613L114.597 316.256L114.611 316.365L114.624 316.474C115.03 320.051 116.166 326.221 117.019 329.767C117.951 333.189 119.855 338.812 121.168 342.026C121.67 343.217 122.412 344.898 123.28 346.815C124.08 346.082 124.917 345.386 125.774 344.753C126.655 344.102 127.843 343.303 129.26 342.597C130.254 342.102 133.236 340.668 137.204 340.668L137.64 340.674C142.096 340.79 145.308 342.657 146.459 343.367C148.077 344.364 149.373 345.484 150.317 346.399C152.143 348.17 153.798 350.294 155.14 352.535C157.239 355.848 160.733 362.5 163.175 367.387C165.763 372.566 169.741 381.255 172.403 387.631L172.917 388.875L172.943 388.937L172.967 388.999C175.263 394.743 178.616 403.212 180.112 407.675L180.404 408.545C181.715 412.528 183.618 419.173 185.1 424.808L185.751 427.324L185.78 427.439L185.807 427.555C187.354 434.053 189.418 443.845 190.384 449.43C190.438 449.739 190.491 450.057 190.545 450.382C192.077 448.865 193.548 447.304 194.608 446.044C196.688 443.43 200.683 437.183 202.888 432.686C205.084 428.21 208.119 420.024 209.481 415.099C210.307 411.925 211.264 408.722 212.183 406.006C212.869 403.979 214.093 400.479 215.664 397.869L215.663 397.868C215.689 397.823 215.718 397.779 215.745 397.735C215.768 397.697 215.791 397.658 215.814 397.621L215.815 397.622C217.715 394.557 220.226 392.373 221.759 391.17C223.57 389.747 225.784 388.324 228.149 387.259L228.353 387.167L228.559 387.081C231.299 385.939 234.185 385.237 237.03 384.931C237.035 384.692 237.041 384.449 237.046 384.205C237.193 376.207 237.317 366.004 237.366 355.523V355.497C237.562 324.572 237.912 314.459 239.632 305.358L239.648 305.278L239.664 305.196C240.517 300.932 242.1 295.237 243.869 290.413C239.067 294.426 234.663 298.401 232.572 300.596C228.804 304.551 223.713 310.392 221.343 313.369C219.644 315.616 217.762 317.873 215.784 319.744C214.769 320.704 213.362 321.916 211.627 322.978C210.197 323.853 206.79 325.738 202.155 325.738C199.33 325.738 196.657 325.045 195.441 324.712C193.764 324.253 191.898 323.621 190.117 322.857L189.986 322.801L189.855 322.743C186.494 321.229 180.036 317.249 175.295 314.018C169.908 310.348 162.129 304.069 157.519 299.794C152.873 295.484 146.567 288.646 143.054 284.039L142.972 283.933L142.893 283.825C139.696 279.484 135.612 272.719 133.154 267.845ZM300.051 211.135C299.923 212.65 299.767 214.111 299.577 215.472L299.557 215.61C298.703 221.352 296.632 229.359 294.691 234.409L294.64 234.539C292.799 239.206 289.334 246.067 286.578 250.269L286.546 250.317L286.514 250.366C285.482 251.915 284.132 253.72 282.636 255.59C287.967 254.444 295.102 253.47 302.35 252.741L304.303 252.551C313.489 251.68 326.885 250.036 333.816 248.915C339.508 247.965 343.667 246.959 346.538 246.066L346.487 245.953L346.371 245.671C345.616 243.823 344.946 241.746 344.448 239.789C344.36 239.446 344.266 239.055 344.169 238.625C343.626 238.328 343.03 238.006 342.389 237.663C339.963 236.367 337.057 234.865 334.289 233.48C328.102 230.384 319.273 225.396 314.248 222.082C309.904 219.217 303.81 214.777 300.606 211.67C300.418 211.493 300.233 211.315 300.051 211.135ZM253.778 182.408C255.468 182.408 258.055 183.006 259.547 183.802C261.138 184.499 263.127 186.788 264.022 188.779C265.017 190.769 265.813 193.457 265.813 194.85C265.813 196.244 265.117 198.632 264.321 200.325C263.525 201.917 261.834 204.007 260.541 204.804C259.348 205.6 256.563 206.297 254.374 206.297C252.186 206.297 249.401 205.6 248.108 204.804C246.914 204.007 245.224 201.917 244.428 200.325C243.632 198.632 243.035 195.746 243.035 193.755C243.135 190.968 244.129 189.177 246.914 186.29C249.699 183.404 251.49 182.408 253.778 182.408ZM254.374 195.64L254.138 195.751L252.571 198.104C252.802 198.209 252.948 198.263 252.987 198.276C253.008 198.284 253.025 198.29 253.038 198.294L253.041 198.295C253.062 198.298 253.319 198.334 253.778 198.334C254.392 198.334 255.208 198.263 256.129 198.024C256.857 197.835 257.478 197.583 257.975 197.336L254.374 195.64ZM253.485 196.059L251.07 197.196C251.346 197.399 251.759 197.679 252.307 197.973L253.485 196.059ZM257.296 194.264L254.675 195.498L258.16 197.241C258.162 197.24 258.164 197.239 258.166 197.237C258.386 196.78 258.59 196.25 258.734 195.672C258.898 195.014 258.933 194.523 258.94 194.323L257.296 194.264ZM249.932 194.002C249.915 194.216 249.898 194.503 249.898 194.85C249.898 195.405 249.937 195.821 249.962 196.052C249.967 196.09 249.972 196.127 249.976 196.161C250.035 196.245 250.092 196.32 250.16 196.396C250.234 196.479 250.427 196.686 250.778 196.971C250.816 197.001 250.863 197.035 250.916 197.077L253.722 195.673L253.884 195.41L250.972 194.039L249.932 194.002ZM255.18 194.188L254.424 195.323L256.589 194.239L255.18 194.188ZM251.819 194.069L254.029 195.175L254.647 194.17L251.819 194.069ZM249.954 193.756H250.37L249.976 193.57C249.969 193.625 249.961 193.687 249.954 193.756ZM254.083 190.38C254.059 190.382 254.041 190.383 254.029 190.385C254.017 190.388 254.001 190.393 253.98 190.399C253.933 190.414 253.836 190.444 253.695 190.498C253.56 190.55 253.331 190.644 253.032 190.79C252.77 190.918 252.357 191.137 251.853 191.464C251.168 191.92 250.764 192.294 250.648 192.404C250.548 192.498 250.483 192.568 250.449 192.604C250.415 192.64 250.397 192.661 250.392 192.667C250.39 192.669 250.389 192.67 250.371 192.695C250.365 192.705 250.253 192.87 250.087 193.203L251.192 193.756H254.902L256.449 191.24C255.986 190.955 255.613 190.77 255.384 190.663C255.145 190.551 254.967 190.481 254.865 190.443C254.784 190.413 254.725 190.393 254.686 190.381C254.68 190.38 254.673 190.38 254.665 190.38C254.616 190.376 254.518 190.371 254.374 190.371C254.231 190.371 254.133 190.376 254.083 190.38ZM256.936 191.553L255.468 193.756H257.556L258.662 193.203C258.572 193.023 258.502 192.9 258.465 192.837C258.443 192.801 258.427 192.775 258.415 192.756C258.39 192.729 258.349 192.686 258.29 192.627C258.217 192.556 258.084 192.428 257.889 192.264C257.702 192.106 257.381 191.85 256.936 191.553ZM258.378 193.756H258.922C258.895 193.693 258.865 193.622 258.828 193.544L258.378 193.756ZM254.733 190.387H254.736C254.736 190.387 254.734 190.386 254.732 190.386C254.732 190.386 254.728 190.385 254.726 190.385C254.729 190.385 254.733 190.387 254.733 190.387Z" fill="white"/>
<path d="M154.813 237.78C154.823 235.861 154.834 237.913 154.844 240.729C154.847 241.604 154.846 245.507 154.848 246.285C154.852 247.803 154.856 245.889 154.86 247.697C154.861 248.315 154.859 254.5 154.861 255.007C154.868 257.74 154.875 256.165 154.883 257.479C154.921 263.965 154.958 266.288 154.997 269.105C155.009 270.031 155.025 275.641 155.038 273.187C155.04 272.895 155.039 267.47 155.039 267.019C155.044 260.171 155.042 271.127 155.045 272.584C155.057 278.333 155.07 278.833 155.081 276.739C155.086 275.831 155.081 265.049 155.086 271.101C155.086 271.51 155.086 277.275 155.087 277.889C155.09 279.272 155.095 278.242 155.098 278.698C155.102 279.608 155.103 279.55 155.107 279.616C155.113 279.759 155.119 282.62 155.126 281.315C155.127 281.019 155.126 275.111 155.128 274.104C155.13 273.101 155.135 273.601 155.137 274.994C155.139 276.388 155.138 281.033 155.138 282.097C155.141 291.083 155.148 278.638 155.149 278.33C155.164 273.087 155.177 280.171 155.192 280.155C155.203 280.125 155.214 277.784 155.225 278.105C155.237 278.512 155.247 281.711 155.259 281.162C155.26 281.111 155.259 274.163 155.261 274.086C155.277 273.278 155.293 274.035 155.309 278.725C155.311 279.202 155.309 285.301 155.31 286.143C155.32 291.156 155.336 303.2 155.342 276.639C155.349 277.677 155.358 278.748 155.364 284.102C155.368 287.548 155.364 294.193 155.369 291.358C155.37 290.725 155.368 284.908 155.369 284.399C155.376 282.268 155.384 284.16 155.391 281.153C155.392 280.525 155.391 275.313 155.392 274.374C155.395 266.77 155.4 279.336 155.402 280.253C155.411 287.066 155.417 284.385 155.426 284.552C155.428 284.591 155.426 277.588 155.428 277.376C155.438 276.373 155.447 276.976 155.457 280.083C155.459 280.793 155.457 286.757 155.458 287.402C155.462 290.167 155.463 278.899 155.468 281.332C155.469 281.831 155.468 286.94 155.469 287.501C155.471 296.307 155.474 283.829 155.474 283.553C155.483 279.79 155.488 292.815 155.496 290.971C155.497 290.729 155.495 284.274 155.498 284.012C155.516 282.228 155.535 284.003 155.553 289.173C155.556 289.968 155.554 294.822 155.554 295.422C155.557 304.772 155.559 292.248 155.56 291.772C155.567 288.375 155.573 298.882 155.578 283.958C155.609 289.137 155.639 280.757 155.67 294.127C155.67 294.282 155.669 300.453 155.67 300.736C155.679 304.201 155.677 294.609 155.683 282.879C155.685 279.935 155.69 294.094 155.69 295.134C155.692 298.959 155.691 308.138 155.691 308.881C155.695 314.689 155.694 284.433 155.7 284.327C155.7 284.394 155.699 289.967 155.7 290.522C155.701 292.266 155.703 290.046 155.705 291.969C155.708 296.421 155.708 311.174 155.713 302.587C155.714 301.469 155.713 284.254 155.718 285.064C155.72 285.403 155.729 285.108 155.732 286.224C155.734 287.338 155.733 292.882 155.733 293.129C155.739 300.468 155.737 303.51 155.741 314.375C155.744 325.199 155.743 299.382 155.744 296.501C155.746 293.628 155.75 299.682 155.751 301.787C155.752 303.893 155.751 307.42 155.752 308.612C155.759 316.397 155.756 295.798 155.758 291.7C155.764 281.998 155.768 301.141 155.773 303.019C155.774 303.526 155.773 299.166 155.775 298.758C155.779 297.2 155.782 303.174 155.787 297.696C155.788 296.8 155.793 285.295 155.796 293.74C155.796 294.958 155.795 299.73 155.797 300.799C155.8 302.403 155.806 303.445 155.81 301.851C155.812 300.671 155.808 292.81 155.811 295.251C155.813 296.341 155.811 300.941 155.813 302.606C155.816 304.27 155.823 304.068 155.825 303.909C155.828 303.743 155.826 297.787 155.826 297.382C155.827 295.081 155.832 292.205 155.833 292.212C155.854 291.484 155.873 301.536 155.894 298.209C155.896 297.957 155.895 291.67 155.895 291.565C155.901 288.93 155.896 305.65 155.9 311.246C155.899 298.486 155.902 300.795 155.906 299.396C155.908 298.711 155.906 293.77 155.907 293.264C155.909 285.759 155.911 295.452 155.912 297.436C155.913 304.731 155.916 296.111 155.917 300.987C155.919 305.76 155.916 312.802 155.919 312.909C155.92 308.341 155.917 296.405 155.92 294.469C155.931 287.151 155.951 296.517 155.96 297.49C155.969 298.462 155.971 297.619 155.976 299.27C155.985 302.255 155.982 293.398 155.987 289.344C155.993 285.291 155.99 307.083 155.991 311.768C155.992 316.45 155.993 311.631 155.994 314.204C155.995 316.777 155.993 319.962 155.995 320.929C155.997 321.895 156.004 313.564 156.005 308.665C156.006 298.288 156.003 287.397 156.01 291.223C156.01 291.45 156.009 297.179 156.011 297.759C156.021 302.171 156.032 302.444 156.043 306.346C156.044 306.892 156.043 313.265 156.044 313.656C156.053 317.733 156.049 306.985 156.054 295.045C156.053 310.917 156.056 320.635 156.063 320.749C156.067 320.667 156.066 313.82 156.069 308.98C156.07 307.506 156.073 312.271 156.074 309.008C156.075 298.339 156.073 286.396 156.08 291.151C156.08 291.377 156.078 297.217 156.08 297.571C156.086 299.886 156.088 288.726 156.095 287.374C156.101 286.316 156.111 293.12 156.117 294.226C156.117 312.091 156.124 308 156.126 295.682C156.13 296.186 156.136 295.491 156.14 297.193C156.141 297.773 156.14 302.946 156.14 303.505C156.143 312.272 156.145 300.288 156.146 299.818C156.156 295.252 156.164 304.334 156.174 295.458C156.174 295.133 156.174 282.73 156.177 291.789C156.177 292.414 156.174 298.061 156.179 298.497C156.183 298.938 156.192 305.585 156.198 299.837C156.2 298.452 156.204 288.378 156.207 296.249C156.207 297.318 156.206 300.877 156.207 302.858C156.209 309.168 156.209 296.625 156.212 307.281C156.214 317.936 156.219 325.916 156.225 318.565C156.225 318.355 156.227 308.734 156.229 308.567C156.232 308.821 156.237 310.779 156.24 310.833C156.241 310.798 156.241 304.628 156.241 304.512C156.251 301.053 156.259 306.556 156.271 308.944C156.273 308.538 156.279 301.332 156.283 307.632C156.287 314.918 156.283 345.224 156.293 338.004C156.297 335.115 156.302 296.667 156.31 316.587C156.324 311.651 156.338 321.846 156.352 314.798C156.353 314.486 156.355 303.755 156.356 303.901C156.359 304.139 156.36 309.152 156.361 309.484C156.368 310.994 156.374 306.705 156.381 307.371C156.383 307.613 156.383 312.795 156.386 313.089C156.388 313.374 156.39 306.546 156.394 309.843C156.397 312.357 156.401 326.314 156.405 327.942C156.405 314.175 156.408 314.458 156.413 310.823C156.414 310.117 156.412 305.326 156.413 304.745C156.415 302.276 156.416 306.247 156.418 303.558C156.418 302.911 156.418 298.212 156.419 297.418C156.421 290.494 156.426 301.068 156.427 302.911C156.43 309.904 156.432 303.79 156.434 306.543C156.437 309.297 156.433 312.74 156.436 314.411C156.442 317.867 156.449 317.108 156.455 317.324C156.458 317.26 156.456 311.103 156.456 310.967C156.461 309.377 156.466 316.051 156.469 303.55C156.472 335.875 156.472 300.415 156.479 306.886C156.479 307.411 156.481 322.696 156.479 324.94C156.477 327.182 156.473 322.404 156.47 325.902C156.469 326.727 156.466 341.047 156.465 341.915C156.461 348.696 156.46 325.852 156.459 324.598C156.457 311.058 156.452 326.49 156.451 327.556C156.445 332.442 156.44 329.23 156.435 332.717C156.432 334.903 156.432 349.04 156.429 349.476C156.421 347.962 156.418 327.089 156.41 345.188C156.408 349.048 156.41 365.402 156.404 352.542C156.404 351.729 156.399 339.968 156.396 347.409C156.396 348.348 156.396 353.111 156.395 353.513C156.392 356.103 156.391 352.306 156.387 354.124C156.384 355.943 156.38 358.654 156.377 357.038C156.375 356.07 156.372 347.191 156.371 345.017C156.368 338.754 156.365 349.022 156.363 341.439C156.361 333.816 156.365 322.24 156.36 317.315C156.36 329.698 156.36 342.409 156.359 354.862C156.349 354.426 156.338 350.422 156.327 350.969C156.326 351.072 156.328 357.707 156.326 357.964C156.32 359.022 156.315 354.276 156.309 356.166C156.304 357.654 156.299 364.703 156.294 366.479C156.291 352.309 156.283 357.118 156.278 355.824C156.276 355.374 156.276 351.593 156.275 350.358C156.27 345.792 156.272 358.311 156.271 360.283C156.265 368.693 156.264 340.352 156.257 341.052C156.257 341.121 156.252 356.189 156.251 357.128C156.248 363.261 156.251 351.873 156.249 350.754C156.244 348.714 156.241 345.106 156.236 349.531C156.234 350.843 156.23 360.256 156.227 352.974C156.227 352.02 156.228 347.029 156.227 346.734C156.221 341.86 156.221 357.55 156.217 362.864C156.214 368.177 156.21 357.345 156.209 354.224C156.206 346.148 156.211 350.772 156.211 349.98C156.212 340.549 156.209 342.172 156.206 341.376C156.203 356.47 156.199 358.403 156.194 344.297C156.192 337.687 156.194 329.979 156.187 332.798C156.184 334.071 156.185 344.665 156.183 347.553C156.176 354.141 156.168 344.261 156.161 345.817C156.159 346.382 156.162 352.181 156.16 352.768C156.156 354.34 156.152 349.99 156.148 352.218C156.147 352.428 156.148 358.498 156.147 358.575C156.136 359.28 156.128 355.392 156.117 355.284C156.112 355.267 156.103 358.579 156.098 357.91C156.089 356.777 156.078 347.953 156.07 350.096C156.065 351.469 156.066 357.54 156.064 361.677C156.06 369.696 156.052 355.333 156.051 353.109C156.051 351.672 156.041 350.294 156.04 351.454C156.039 352.089 156.039 357.841 156.039 358.063C156.027 363.21 156.016 364.672 156.004 361.983C156.004 361.867 156.004 355.432 156.004 355.239C155.997 352.379 155.992 360.249 155.986 364.923C155.981 369.594 155.976 368.03 155.973 356.984C155.968 358.374 155.963 353.491 155.959 350.528C155.956 347.566 155.956 360.09 155.955 360.338C155.946 368.262 155.94 361.094 155.93 359.978C155.925 359.426 155.916 361.243 155.911 362.612C155.906 363.715 155.904 360.781 155.9 362.657C155.899 362.907 155.9 368.477 155.9 368.699C155.896 375.371 155.898 361.738 155.897 359.303C155.894 350.449 155.892 345.734 155.886 349.899C155.885 350.856 155.882 370.483 155.879 371.63C155.877 373.087 155.878 366.051 155.875 367.755C155.874 367.894 155.874 372.235 155.872 372.044C155.863 371.212 155.854 368.688 155.844 369.122C155.843 369.164 155.844 376.05 155.843 376.225C155.834 377.041 155.826 376.786 155.817 373.564C155.815 372.749 155.816 367.928 155.815 366.496C155.813 357.836 155.809 370.42 155.809 370.659C155.793 376.706 155.782 365.319 155.767 370.74C155.766 371.058 155.759 384.548 155.756 372.979C155.756 372.205 155.753 360.374 155.75 368.466C155.75 368.972 155.752 375.065 155.749 374.444C155.746 373.826 155.741 377.894 155.737 371.199C155.735 369.09 155.732 357.282 155.728 366.695C155.728 367.357 155.721 388.632 155.719 373.95C155.719 371.531 155.719 355.995 155.714 363.961C155.713 365.506 155.716 368.972 155.713 371.136C155.71 374.471 155.704 370.31 155.7 377.232C155.699 378.459 155.696 389.003 155.693 380.999C155.693 379.744 155.693 374.557 155.692 373.977C155.685 371.192 155.678 374.662 155.671 371.073C155.668 369.81 155.67 361.426 155.668 359.178C155.665 356.931 155.66 354.77 155.657 358.603C155.654 362.437 155.657 375.803 155.653 376.873C155.636 381.517 155.618 373.677 155.601 372.53C155.599 372.692 155.6 377.145 155.597 377.232C155.583 377.59 155.558 382.069 155.546 371.909C155.537 363.769 155.549 357.572 155.541 354.26C155.538 352.679 155.535 368.219 155.534 368.709C155.525 373.677 155.519 366.795 155.511 368.906C155.51 369.344 155.512 375.643 155.51 375.946C155.506 377.038 155.5 374.229 155.496 374.741C155.494 374.986 155.495 379.794 155.493 379.426C155.489 378.593 155.484 376.571 155.48 372.062C155.48 371.651 155.482 365.668 155.479 365.445C155.474 365.101 155.468 360.654 155.462 365.246C155.46 366.628 155.46 377.622 155.456 370.03C155.455 368.442 155.456 355.244 155.452 366.649C155.451 368.544 155.444 383.93 155.44 374.013C155.439 371.403 155.437 360.602 155.435 362.297C155.434 362.568 155.435 368.473 155.434 369.05C155.427 370.977 155.422 370.347 155.415 372.197C155.413 372.705 155.416 378.812 155.413 379.372C155.406 380.916 155.398 379.361 155.391 377.448C155.388 376.731 155.39 371.671 155.39 371.118C155.387 362.16 155.385 374.247 155.384 374.957C155.378 379.179 155.373 373.499 155.368 375.002C155.366 375.404 155.367 381.165 155.367 381.682C155.363 386.706 155.366 376.35 155.364 375.208C155.358 371.977 155.352 372.44 155.346 373.177C155.344 373.457 155.346 380.133 155.344 380.315C155.333 381.468 155.322 380.828 155.311 377.142C155.309 376.435 155.311 371.288 155.31 370.111C155.307 361.884 155.302 373.106 155.302 374.175C155.297 379.055 155.296 374.504 155.292 375.352C155.272 379.584 155.248 376.568 155.23 374.705C155.206 372.307 155.186 367.41 155.164 368.681C155.162 368.759 155.164 375.606 155.163 375.758C155.146 377.408 155.131 374.732 155.115 376.71C155.114 376.86 155.115 383.354 155.113 383.814C155.109 384.801 155.103 384.448 155.098 382.375C155.096 381.376 155.1 375.804 155.098 374.912C155.092 372.823 155.087 372.361 155.082 373.401C155.08 373.859 155.083 380.5 155.08 380.577C155.06 381.236 155.041 382.378 155.021 373.78C155.019 373.189 155.019 359.691 155.016 362.28C155.016 366.026 155.016 370.432 155.016 374.436C154.987 376.592 154.959 371.915 154.93 371.19C154.929 371.25 154.931 378.251 154.929 378.293C154.915 378.19 154.902 380.164 154.889 373.06C154.887 372.365 154.888 359.785 154.884 361.686C154.883 362.033 154.877 363.712 154.875 366.443C154.875 366.857 154.876 372.723 154.874 372.898C154.863 373.79 154.851 372.449 154.839 368.861C154.837 368.271 154.839 362.017 154.838 361.542C154.829 358.223 154.819 362.976 154.81 357.298C154.804 353.475 154.806 342.665 154.803 332.025C154.803 330.524 154.8 330.285 154.799 324.094C154.799 308.526 154.8 291.48 154.799 274.886C154.799 271.312 154.794 275.161 154.797 266.525C154.798 265.947 154.801 263.08 154.802 260.15C154.803 258.124 154.802 251.828 154.803 249.235C154.804 246.644 154.805 251.922 154.807 248.875C154.809 245.791 154.809 238.63 154.813 237.78ZM154.815 328.707C154.813 335.703 154.819 336.269 154.818 328.995C154.818 328.702 154.815 328.417 154.815 328.707ZM156.426 318.987C156.425 314.762 156.42 319.64 156.422 324.895C156.424 329.122 156.428 324.244 156.426 318.987ZM155.771 315.005C155.771 320.981 155.773 319.294 155.773 313.772C155.773 313.444 155.771 313.15 155.771 315.005ZM156.493 305.115C156.498 309.352 156.502 293.151 156.507 301.832C156.508 303.41 156.502 318.542 156.501 318.664C156.501 318.652 156.501 318.639 156.501 318.628C156.49 317.447 156.483 291.648 156.495 294.559C156.497 295.085 156.491 302.788 156.493 305.115ZM155.939 310.545C155.937 317.539 155.943 318.099 155.942 310.823C155.942 310.532 155.939 310.257 155.939 310.545ZM155.656 299.522C155.653 310.958 155.666 312.166 155.663 300.152C155.663 299.531 155.656 298.95 155.656 299.522Z" fill="white"/>
<path d="M224.356 155.359C236.396 138.973 259.432 135.455 275.807 147.504C289.686 157.717 294.323 175.833 288.083 191.096L287.858 192.07C286.483 198.016 284.448 204.336 281.151 210.886L279.258 214.647L276.564 217.884C273.268 221.845 266.904 230.103 261.387 236.242C260.989 237.027 260.685 237.717 259.274 240.491C256.739 245.478 251.21 256.067 240.293 264.522C237.147 266.958 234.412 269.452 230.418 273.029C227.022 276.07 221.695 280.848 215.591 284.817C209.638 288.688 203.833 290.308 200.515 291.067C196.894 291.894 193.513 292.28 191.037 292.498C189.427 292.64 187.576 292.751 185.753 292.842C185.617 293.247 185.479 293.651 185.331 294.052C185.331 294.052 185.301 294.134 185.248 294.32C185.194 294.51 185.121 294.79 185.033 295.187C184.844 296.037 184.647 297.115 184.375 298.818C184.164 300.143 183.758 302.841 183.363 305.066C182.93 307.511 182.291 310.724 181.279 314.193C176.64 330.083 166.473 342.205 156.751 350.706C142.489 363.179 124.489 368.054 112.034 368.054C91.7086 368.054 75.2317 351.566 75.2317 331.226C75.2318 324.61 76.9774 318.402 80.0302 313.035C79.9628 310.156 80.2334 307.893 80.4158 306.629C80.9373 303.018 81.8827 300.122 82.3041 298.876L82.4857 298.351C84.3988 292.949 87.3559 288.346 88.5576 286.495C90.4619 283.563 92.7645 280.396 95.2851 277.32C96.9603 275.276 104.98 264.705 110.731 258.462C111.351 257.79 112.064 257.03 112.862 256.211C113.375 254.914 113.99 253.365 114.528 252.07L114.837 251.346C118.077 243.946 122.758 239.089 125.49 236.568C128.461 233.826 131.319 231.888 132.541 231.066L133.365 230.524C141.88 225.019 150.681 222.658 156.953 221.468C163.618 220.204 170.051 219.806 174.59 219.593C176.909 219.485 178.6 219.422 179.951 219.372C180.372 219 180.833 218.59 181.336 218.14C184.177 215.596 188.41 211.726 193.298 207.808C193.408 207.602 193.534 207.364 193.674 207.089C194.099 206.253 194.417 205.599 195.052 204.318C195.595 203.226 196.339 201.739 197.19 200.175C198.78 197.252 201.634 192.342 206.119 187.584L206.853 186.793C209.645 183.742 211.657 181.013 215.858 175.81C216.656 171.34 218.901 162.783 224.356 155.359Z" fill="white"/>
<path d="M222.46 172.428C224.11 152.474 241.363 137.557 261.223 138.695L262.171 138.761L262.964 138.832C279.627 140.428 295.622 148.814 306.724 163.125C312.743 170.884 315.061 179.225 316.049 183.183C317.136 187.534 317.835 192.059 318.267 194.835C319.236 195.167 320.306 195.54 321.418 195.949C328.031 198.385 333.622 201.206 336.871 202.805C339.031 203.868 340.176 204.392 340.752 204.645C340.982 204.682 341.255 204.727 341.579 204.778C342.478 204.921 344.966 205.315 347.758 206.1C350.232 206.796 356.144 208.631 362.083 213.336C364.78 215.473 369.935 219.901 373.783 226.897C378.328 235.163 381.775 249.061 374.422 263.372C368.465 274.966 358.701 279.882 354.868 281.582C350.221 283.642 345.878 284.596 343.095 285.095C332.97 286.909 319.872 286.527 310.452 286.082C301.367 285.653 291.642 284.901 283.7 284.287C282.889 285.723 281.974 287.221 280.944 288.722C273.051 300.219 270.966 302.371 269.078 306.592C269.127 306.482 268.893 306.97 267.837 311.321C267.044 314.586 265.477 321.438 262.578 328.345C261.85 330.079 260.997 333.301 259.138 347.401C257.221 361.939 258.843 376.023 258.89 393.554C258.95 416.148 244.788 429.917 238.82 435.307C236.537 437.368 231.479 441.542 231.269 441.723C230.832 442.098 230.533 442.366 230.345 442.539C226.183 448.225 223.454 452.892 217.934 461.177C213.636 467.628 206.31 476.228 196.272 482.758C189.025 487.473 178.865 490.823 167.302 488.824C156.664 486.984 149.427 481.388 145.461 477.509C138.377 470.582 134.68 462.148 133.255 458.846C131.387 454.518 129.753 449.794 128.805 447.118C127.487 443.401 127.171 442.731 127.304 442.998C124.038 436.454 121.522 429.801 119.459 424.192C117.237 418.151 115.42 412.986 112.994 406.978C107.052 392.261 105.516 377.956 103.972 368.763C102.916 362.47 101.841 358.686 100.906 355.311C100.557 354.05 99.5292 350.485 98.9507 346.852C98.2853 342.674 97.6041 335.167 100.459 326.531L100.84 325.424C109.056 302.425 130.993 295.453 137.508 293.512C142.429 292.046 147.163 291.121 150.512 290.512C152.972 290.064 154.402 289.823 155.498 289.631C155.992 289.278 156.674 288.761 157.553 288.027C161.035 285.117 165.182 280.902 170.573 275.099C171.271 274.349 171.558 273.891 171.639 273.756C171.715 273.629 171.751 273.552 171.804 273.41C171.924 273.09 171.981 272.902 172.479 271.186C172.657 270.575 173.125 268.948 173.75 267.213C174.315 265.645 175.682 262.023 178.298 258.082L178.638 257.572C179.596 256.148 181.678 253.177 184.533 250.358C185.01 249.886 191.275 243.207 201.852 240.558C207.066 239.252 214.492 238.689 222.382 241.289C222.617 240.734 222.838 240.224 223.027 239.804C224.62 236.256 231.049 221.44 246.829 213.908C246.565 212.5 246.332 211.151 246.132 209.925C231.144 204.269 221.074 189.197 222.46 172.428ZM244.64 201.039C244.545 200.657 244.537 200.732 244.666 201.15C244.657 201.111 244.649 201.074 244.64 201.039Z" fill="white"/>
<path d="M-216.174 479.835C-211.232 479.86 -202.094 480.925 -193.453 486.38C-188.885 488.598 -184.704 491.802 -181.246 495.963C-169.839 509.687 -170.087 529.25 -180.881 542.624C-181.065 542.91 -181.252 543.198 -181.447 543.484C-186.884 551.485 -195.238 557.316 -205.088 559.485C-214.025 561.452 -221.053 561.475 -223.224 561.475C-227.046 561.475 -230.733 560.891 -234.199 559.809C-236.954 559.102 -239.975 558.051 -243.01 556.478C-256.609 549.433 -264.938 535.091 -263.954 519.573C-263.093 506.001 -255.371 494.697 -244.933 488.455L-243.406 487.551C-239.006 485.004 -228.893 479.772 -216.174 479.835Z" fill="white"/>
<path d="M-272.946 531.455C-271.035 525.718 -264.838 522.618 -259.106 524.53C-258.234 524.821 -257.757 524.975 -257.225 525.108C-256.743 525.229 -256.123 525.353 -255.22 525.446C-253.056 525.667 -249.757 525.68 -245.46 525.68C-239.418 525.68 -234.519 530.582 -234.519 536.629C-234.519 542.675 -239.418 547.577 -245.46 547.577C-249.306 547.577 -253.91 547.59 -257.442 547.23C-261.504 546.815 -264.107 545.944 -266.026 545.304C-271.758 543.392 -274.856 537.191 -272.946 531.455Z" fill="white"/>
<path d="M100.997 609.218C104.962 605.371 111.088 605.131 115.325 608.434C116.439 608.052 117.633 607.841 118.876 607.841C124.919 607.841 129.817 612.743 129.817 618.79C129.817 621.288 129.856 622.645 129.948 623.454C130.888 625.436 132.061 627.346 133.515 629.569C134.383 630.04 135.44 630.559 136.735 631.153C138.611 632.013 141.652 633.319 144.049 634.487C148.363 636.589 156.372 640.758 159.358 649.227L159.496 649.634L159.598 649.955C160.173 651.816 161.538 657.409 157.437 662.548C153.636 667.312 147.83 668.076 144.39 668.247C135.846 668.67 127.612 668.958 121.229 668.707C118.093 668.583 114.883 668.315 112.12 667.698C110.751 667.392 109.023 666.901 107.318 666.028C105.736 665.217 102.993 663.475 101.336 660.073C100.109 657.556 99.7017 654.917 99.5191 653.738C99.235 651.901 99.2182 651.502 99.0665 650.825C97.3883 643.344 96.9574 634.716 96.9597 628.208C96.9608 624.883 97.0761 621.905 97.2394 619.639C97.3196 618.528 97.4201 617.459 97.5463 616.552C97.6056 616.127 97.6991 615.526 97.8465 614.894C97.916 614.596 98.0522 614.047 98.2875 613.406C98.3409 613.26 99.0451 611.112 100.997 609.218Z" fill="white"/>
<path d="M195.849 604.418C201.891 604.418 206.79 609.32 206.79 615.366C206.79 616.997 206.809 617.8 206.886 618.419C207.57 621.289 208.16 624.801 208.708 627.895C211.268 630.98 214.286 633.779 217.752 636.918C221.576 640.381 226.497 644.712 230.147 649.83C230.393 650.175 231.305 651.414 231.999 652.844C232.657 654.201 234.128 657.719 232.849 662.019C231.49 666.587 228.029 668.854 225.953 669.84C223.888 670.821 221.701 671.283 219.908 671.558C217.438 671.935 211.931 672.89 206.537 673.071C203.819 673.162 200.641 673.083 197.542 672.472C194.61 671.894 190.47 670.595 187.158 667.248C179.475 659.481 176.984 651.336 175.917 649.011C173.715 644.215 172.171 637.61 171.357 631.836C170.934 628.838 170.662 625.747 170.637 622.869C170.613 620.194 170.786 616.899 171.694 613.903C173.446 608.116 179.554 604.847 185.337 606.6C186.281 606.886 187.156 607.291 187.955 607.789C189.946 605.712 192.746 604.418 195.849 604.418Z" fill="white"/>
<path fill-rule="evenodd" clip-rule="evenodd" d="M177.786 71.9255C181.566 71.9255 183.058 72.6222 187.534 76.2054C190.319 78.5943 196.585 84.9644 201.359 90.4388C206.233 95.8137 212.897 104.175 222.545 117.811L227.519 117.214C230.204 117.014 236.172 116.716 248.904 116.716L254.474 108.455C257.557 103.975 262.829 96.9085 266.111 92.8276C269.394 88.7467 273.969 83.4714 276.157 81.0826C278.445 78.6938 281.528 76.0064 283.219 75.2101C284.811 74.3143 287.795 73.7171 289.684 73.7171C291.972 73.8166 293.961 74.6129 295.453 76.1059C296.647 77.3998 298.04 79.9877 298.437 81.8789C298.935 83.77 298.935 91.8323 298.537 99.795C298.139 107.758 297.741 118.707 297.642 134.134L302.615 138.116C305.4 140.305 309.578 144.585 311.965 147.571C314.352 150.557 318.032 155.932 320.021 159.516C322.11 163.099 325.194 169.768 326.984 174.446C329.769 181.712 330.863 183.404 335.041 186.688C337.726 188.779 352.646 196.841 368.262 204.605C392.432 216.648 396.908 219.236 398.897 222.222C400.19 224.213 401.086 227.199 401.086 229.189C401.086 231.081 400.19 236.256 399.096 240.636C398.002 245.015 395.416 251.983 393.427 256.064C391.139 260.642 387.359 266.117 383.679 269.998C379.402 274.477 375.125 277.762 369.655 280.649C365.378 282.938 358.216 285.725 353.84 286.82C349.463 287.915 336.433 290.005 324.995 291.398C313.457 292.792 300.029 294.384 295.155 295.081C287.795 295.977 285.706 296.674 283.617 298.764C281.727 300.655 280.733 303.243 279.738 308.319C279.042 312.599 278.246 331.411 277.749 357.091C277.251 380.083 276.356 402.877 275.759 407.853C275.063 412.73 273.472 421.091 272.179 426.267C270.886 431.443 268.299 438.808 266.41 442.69C264.619 446.473 262.033 450.752 260.641 452.146C259.248 453.539 256.861 455.232 255.27 455.928C253.579 456.725 250.893 457.023 248.904 456.725C247.014 456.426 244.328 455.032 240.449 451.151L236.073 458.417C233.785 462.298 230.503 467.176 226.226 472.55L224.137 502.908C222.943 519.63 221.153 547.798 220.059 565.615C218.965 583.432 217.771 605.628 216.578 632.004L221.053 634.293C223.54 635.587 227.817 638.872 230.602 641.659C233.586 644.745 236.968 649.522 238.957 653.703C241.046 658.082 242.439 662.959 242.836 666.742C243.433 672.714 243.334 672.913 239.952 676.396C237.465 678.885 235.277 680.079 231.995 680.577C229.508 680.875 216.975 681.075 204.144 680.875C184.152 680.577 180.273 680.278 177.587 678.885C175.797 677.889 173.609 675.7 172.813 674.107C172.017 672.415 168.834 657.784 165.85 641.46C162.866 625.236 157.495 596.172 153.914 577.061C150.334 557.851 147.25 542.025 146.952 541.727C146.753 541.428 146.355 542.523 146.057 544.215C145.758 545.808 144.863 557.951 144.067 571.089C143.172 584.228 142.277 603.239 141.183 631.805L146.057 634.99C148.742 636.782 152.82 640.066 155.108 642.455C157.396 644.844 160.678 649.821 162.468 653.703C164.557 658.182 165.85 662.86 166.149 666.642C166.646 672.116 166.447 672.913 163.761 675.899C161.971 677.989 159.385 679.482 156.898 680.079C154.71 680.577 142.178 681.075 129.048 681.075C115.62 681.075 103.684 680.676 101.695 680.079C99.8053 679.482 97.1198 678.089 95.8267 676.795C94.5337 675.6 93.1412 673.51 92.5444 672.116C92.047 670.723 89.6599 657.087 87.2727 641.759C84.8856 626.43 81.3048 603.537 79.415 590.996C77.5251 578.355 74.3422 557.752 72.4524 545.21C70.5626 532.57 68.2749 517.142 67.2802 510.871C66.385 504.6 65.3904 499.126 64.9925 498.728C64.6941 498.33 52.7583 496.24 38.5348 494.05C24.3112 491.761 4.11978 488.376 -6.2246 486.485C-16.6685 484.495 -25.3219 483.3 -25.7198 483.698C-26.0182 484.096 -27.3112 487.182 -28.5048 490.467C-29.7979 493.751 -33.2792 501.316 -36.1636 507.387C-39.0481 513.359 -43.9219 522.616 -47.0054 527.792C-50.1882 532.968 -56.554 542.423 -61.3283 548.694C-66.0032 554.965 -74.2588 564.62 -89.3775 580.047L-87.2888 590.498C-86.1947 596.271 -84.1059 607.917 -82.7134 616.377C-81.3209 624.838 -80.1273 631.805 -80.0278 631.905C-79.9283 631.905 -76.9444 633 -73.3636 634.293C-69.7829 635.488 -64.5112 638.175 -61.5273 640.166C-58.5433 642.157 -54.6642 645.74 -52.8738 648.228C-51.1829 650.717 -48.6963 655.196 -47.5027 658.182C-46.3091 661.168 -45.215 665.547 -45.215 667.836C-45.1155 670.623 -45.7123 672.913 -47.1048 674.804C-48.1989 676.297 -50.6856 678.387 -52.5754 679.283C-55.5594 680.875 -59.1401 681.075 -80.5251 681.075C-99.8214 681.075 -105.988 680.776 -108.873 679.582C-111.061 678.785 -113.747 676.595 -115.338 674.406C-116.83 672.316 -120.112 665.249 -122.599 658.679C-125.185 652.11 -132.446 633.497 -138.712 617.373C-145.078 601.248 -151.344 585.323 -152.637 582.038C-153.93 578.753 -154.925 575.369 -154.925 574.573C-154.925 573.777 -152.637 568.601 -149.753 563.127C-146.968 557.652 -142.691 547.102 -140.304 539.736C-137.917 532.37 -136.226 526.199 -136.524 526C-136.822 525.901 -140.005 528.389 -143.686 531.674C-147.465 534.859 -153.135 539.238 -156.417 541.428C-159.699 543.518 -164.474 546.504 -167.06 547.997C-169.944 549.59 -172.232 551.78 -172.928 553.472C-173.426 554.965 -175.117 560.141 -176.41 565.117C-177.802 569.994 -180.09 579.251 -181.383 585.522C-182.775 591.792 -184.765 603.04 -185.759 610.405C-186.853 617.771 -187.749 625.933 -187.749 628.62C-187.749 632.9 -187.55 633.298 -184.964 633.895C-183.472 634.194 -179.99 635.687 -177.305 637.279C-174.52 638.773 -170.342 642.256 -167.856 644.944C-165.468 647.532 -162.385 652.21 -160.993 655.196C-159.103 659.277 -158.506 662.362 -158.406 667.239C-158.406 672.515 -158.804 674.406 -160.396 676.098C-161.49 677.392 -163.877 678.984 -165.568 679.681C-168.055 680.776 -175.117 681.075 -194.413 681.075C-217.489 681.075 -220.473 680.875 -223.556 679.283C-225.446 678.188 -227.933 676.098 -229.027 674.505C-230.22 672.913 -231.414 669.827 -231.812 667.637C-232.11 665.448 -235.194 642.157 -238.476 615.88C-241.758 589.603 -244.643 567.606 -244.842 567.108C-245.041 566.511 -249.119 565.515 -253.993 564.719C-258.866 564.022 -268.216 562.032 -274.781 560.439C-281.345 558.847 -290.695 555.562 -295.668 553.273C-301.338 550.585 -305.814 547.699 -307.803 545.409C-310.19 542.722 -311.086 540.731 -311.086 538.243C-311.086 536.053 -310.19 533.764 -308.698 531.972C-307.505 530.479 -300.94 526.398 -294.276 522.815C-285.821 518.336 -279.953 514.355 -275.079 509.876C-271.2 506.293 -265.53 500.022 -262.447 495.941C-259.264 491.86 -254.291 483.499 -251.307 477.527C-248.124 471.257 -243.549 459.511 -240.565 450.155C-237.68 441.098 -232.806 426.068 -229.822 416.811C-226.739 407.455 -222.263 395.212 -219.876 389.439C-217.389 383.666 -213.013 374.708 -210.128 369.533C-207.144 364.357 -202.47 356.693 -199.585 352.612C-196.701 348.531 -190.036 340.867 -184.864 335.691C-179.593 330.515 -171.735 323.747 -167.358 320.661C-162.982 317.576 -156.517 313.495 -152.936 311.504C-149.355 309.514 -142.89 306.428 -138.513 304.537C-134.137 302.646 -125.682 299.66 -119.615 297.968C-113.647 296.275 -102.209 293.787 -94.2513 292.493C-86.2941 291.1 -71.5733 289.308 -61.4278 288.512C-51.2824 287.616 -32.4834 286.322 -19.6524 285.426C-6.8214 284.63 11.0823 283.236 20.1337 282.341C29.185 281.544 40.5241 280.051 45.4973 279.056C50.3711 277.961 56.9358 276.269 59.9198 275.174C62.9037 273.98 68.2749 271.193 71.8556 268.804C75.4364 266.515 82.1005 260.742 86.7754 256.064C91.4503 251.386 98.9102 243.124 103.287 237.65C107.763 232.175 114.427 223.416 118.107 218.241C121.887 213.065 131.336 199.13 153.417 165.985V146.775C153.417 135.428 154.014 123.086 154.909 116.517C155.705 110.346 157.296 101.985 158.39 98.0034C159.484 94.1216 161.673 88.05 163.264 84.5663C164.856 81.1821 167.84 76.9022 169.729 75.1106C172.713 72.5227 174.205 71.9255 177.786 71.9255ZM262.332 148.069C263.724 148.865 266.907 152.349 269.394 155.733C271.88 159.217 275.262 164.492 276.754 167.478C278.246 170.464 280.434 176.038 281.628 179.92C282.821 183.702 284.114 190.869 284.413 195.845C284.711 201.121 284.512 208.287 283.816 213.264C283.12 217.942 281.329 224.81 279.837 228.692C278.345 232.474 275.361 238.347 273.273 241.532C271.084 244.816 266.41 250.39 262.829 253.973C259.248 257.557 249.998 265.32 242.438 271.193C234.78 276.966 225.132 285.327 221.053 289.607C216.975 293.887 211.505 300.157 208.819 303.541C205.835 307.523 203.448 309.812 202.155 309.812C201.061 309.812 198.475 309.115 196.386 308.22C194.397 307.324 188.926 304.039 184.251 300.854C179.576 297.669 172.415 291.896 168.337 288.114C164.259 284.331 158.589 278.16 155.705 274.378C152.92 270.596 149.041 264.126 147.051 260.045C145.161 255.964 142.874 249.196 141.979 245.115C141.083 241.034 140.089 237.053 139.89 236.356C139.691 235.759 137.204 237.948 134.22 241.532C131.435 245.015 127.258 249.992 125.07 252.68C122.881 255.367 118.405 260.642 115.123 264.524C111.841 268.306 108.16 273.084 106.967 274.975C105.773 276.866 103.585 281.843 102.193 285.924C100.8 290.005 99.2086 297.171 98.8107 301.849C98.2139 306.826 98.2139 313.594 98.8107 318.273C99.308 322.652 100.601 329.619 101.596 333.7C102.69 337.781 104.878 344.251 106.469 348.133C108.061 351.915 111.741 359.977 114.725 365.85L120.096 376.6C127.755 366.148 131.236 361.669 132.728 359.878C134.32 358.086 136.309 356.593 137.204 356.593C138.199 356.593 140.188 358.484 141.581 360.873C143.073 363.162 146.355 369.334 148.941 374.509C151.527 379.685 155.705 388.842 158.191 394.914C160.579 400.886 163.762 408.948 165.055 412.83C166.348 416.612 168.735 424.973 170.326 431.244C171.818 437.514 173.807 446.97 174.703 452.146C175.598 457.322 176.593 465.284 176.99 469.764C177.687 477.428 177.985 477.925 179.775 477.428C180.87 477.029 183.356 475.835 185.246 474.74C187.136 473.645 191.612 470.46 195.093 467.673C198.674 464.886 203.945 459.711 206.929 456.127C209.814 452.544 214.489 445.179 217.174 439.704C219.86 434.23 223.242 425.073 224.833 419.3C226.325 413.527 228.314 407.654 229.309 406.062C230.204 404.569 232.691 402.677 234.68 401.782C237.067 400.786 239.852 400.488 242.14 400.786C244.726 401.184 246.616 402.279 248.108 404.37C249.401 405.962 250.694 407.057 251.092 406.858C251.589 406.559 252.186 403.573 252.484 400.189C252.783 396.705 253.181 376.699 253.28 355.598C253.479 324.145 253.877 315.685 255.27 308.319C256.264 303.342 258.452 296.176 260.243 292.394C262.033 288.512 264.818 283.933 266.41 282.042C268.001 280.151 270.985 277.563 272.974 276.269C275.063 275.075 279.44 273.084 282.722 271.989C286.402 270.795 295.255 269.401 305.798 268.406C315.247 267.51 329.073 265.818 336.433 264.624C345.385 263.131 351.95 261.339 356.227 259.448C359.708 257.855 363.886 255.068 365.378 253.277C366.969 251.585 368.262 249.594 368.262 249.096C368.262 248.499 367.068 247.106 365.576 245.812C364.084 244.617 362.095 241.83 361.101 239.641C360.205 237.451 359.31 234.166 359.31 232.375C359.31 229.787 358.614 228.791 355.53 226.801C353.541 225.507 347.175 222.123 341.406 219.236C335.637 216.35 327.382 211.671 323.005 208.785C318.629 205.898 313.457 202.017 311.567 200.125C308.881 197.637 307.29 194.552 304.803 187.385C303.112 182.209 300.128 175.441 298.437 172.455C296.647 169.469 292.271 164.094 288.69 160.511C283.816 155.534 280.136 152.847 273.77 149.861C269.095 147.571 264.122 145.481 262.63 145.183C261.038 144.784 259.845 144.984 259.845 145.581C259.845 146.078 260.939 147.273 262.332 148.069ZM243.035 193.755C243.035 195.746 243.632 198.632 244.428 200.325C245.224 201.917 246.914 204.007 248.108 204.804C249.401 205.6 252.186 206.297 254.374 206.297C256.563 206.297 259.348 205.6 260.541 204.804C261.834 204.007 263.525 201.917 264.321 200.325C265.117 198.632 265.813 196.244 265.813 194.85C265.813 193.457 265.017 190.769 264.022 188.779C263.127 186.788 261.138 184.499 259.547 183.802C258.055 183.006 255.468 182.408 253.778 182.408C251.49 182.408 249.699 183.404 246.914 186.29C244.129 189.177 243.135 190.968 243.035 193.755ZM-238.575 508.781C-243.151 514.554 -250.113 521.919 -253.893 525.204C-257.772 528.588 -262.447 532.47 -264.337 533.864L-267.818 536.551C-261.651 538.143 -256.081 539.139 -251.406 539.736C-246.732 540.234 -241.261 540.731 -239.272 540.731C-235.492 540.731 -235.492 540.632 -232.607 533.465C-231.016 529.584 -228.728 523.412 -227.535 519.829C-226.341 516.246 -224.252 507.985 -222.959 501.415C-221.666 494.846 -220.373 488.476 -220.174 487.182C-220.075 485.988 -220.174 484.992 -220.572 484.992C-220.97 484.992 -223.357 487.978 -225.744 491.661C-228.231 495.443 -234 503.107 -238.575 508.781ZM97.1198 622.548C97.5176 624.34 98.9102 632.8 100.303 641.261C101.596 649.721 103.187 659.077 103.684 661.964L104.679 667.14H153.914C152.721 662.163 151.527 659.177 150.632 657.286C149.737 655.395 146.952 652.011 144.366 649.821C141.879 647.531 137.403 644.844 134.419 643.65C129.247 641.659 129.048 641.36 128.849 637.678C128.65 635.587 128.352 630.511 128.053 626.629L127.556 619.363H96.4235L97.1198 622.548ZM179.576 644.247L183.754 666.543C224.833 667.04 230.005 666.841 230.005 665.846C230.005 665.149 229.409 662.86 228.712 660.67C228.116 658.58 225.728 654.797 223.54 652.309C221.153 649.622 217.174 646.735 213.594 645.043C210.311 643.451 206.83 642.256 205.935 642.256C204.343 642.256 204.045 640.763 203.647 630.81L203.15 619.363C178.681 619.363 175.299 619.662 175.399 620.558C175.399 621.255 177.289 631.905 179.576 644.247Z" fill="black"/>
</g>
</svg>
