<svg width="64" height="79" viewBox="0 0 64 79" fill="none" xmlns="http://www.w3.org/2000/svg">
<path d="M21.7052 10C21.7052 11.6569 23.0484 13 24.7052 13C26.3621 13 27.7052 11.6569 27.7052 10H21.7052ZM35.7052 10C35.7052 11.6569 37.0484 13 38.7052 13C40.3621 13 41.7052 11.6569 41.7052 10H35.7052ZM54.0693 46.3026L51.7399 48.193L51.7399 48.193L54.0693 46.3026ZM60.636 58.418L63.6027 57.9723L60.636 58.418ZM31.8303 8C30.1734 8 28.8303 9.34315 28.8303 11C28.8303 12.6569 30.1734 14 31.8303 14V8ZM53.3397 30L50.3534 30.2871L53.3397 30ZM9.61866 46.3026L11.9481 48.193H11.9481L9.61866 46.3026ZM3.05191 58.418L6.0186 58.8638L3.05191 58.418ZM31.8577 14C33.5145 14 34.8577 12.6569 34.8577 11C34.8577 9.34315 33.5145 8 31.8577 8V14ZM10.3483 30L7.36206 29.7129L10.3483 30ZM39.7052 63V64.5H45.7052V63H39.7052ZM23.7052 64.5V63H17.7052V64.5H23.7052ZM31.7052 72.5C27.2869 72.5 23.7052 68.9183 23.7052 64.5H17.7052C17.7052 72.232 23.9732 78.5 31.7052 78.5V72.5ZM39.7052 64.5C39.7052 68.9183 36.1235 72.5 31.7052 72.5V78.5C39.4372 78.5 45.7052 72.232 45.7052 64.5H39.7052ZM27.7052 10C27.7052 7.79086 29.4961 6 31.7052 6V0C26.1824 0 21.7052 4.47715 21.7052 10H27.7052ZM31.7052 6C33.9144 6 35.7052 7.79086 35.7052 10H41.7052C41.7052 4.47715 37.2281 0 31.7052 0V6ZM51.7399 48.193C52.2094 48.7716 52.9412 49.4594 53.3768 49.8978C53.9098 50.4343 54.4563 51.0229 54.989 51.7563C56.0262 53.1844 57.1397 55.3389 57.6693 58.8638L63.6027 57.9723C62.9299 53.4944 61.446 50.4365 59.8435 48.2302C59.0563 47.1463 58.2723 46.3123 57.6333 45.6691C56.8969 44.9278 56.6152 44.6788 56.3987 44.4121L51.7399 48.193ZM31.8303 14C31.8341 14 31.838 14 31.842 14L31.846 8.00001C31.8408 8 31.8356 8 31.8303 8V14ZM31.842 14C41.6661 14.0065 49.5824 22.268 50.3534 30.2871L56.3259 29.7129C55.2708 18.7396 44.8802 8.00867 31.846 8.00001L31.842 14ZM50.3534 30.2871C50.7867 34.7932 50.5771 38.1691 50.4422 40.8109C50.3772 42.0852 50.3164 43.3786 50.4093 44.4959C50.5025 45.6182 50.7771 47.0066 51.7399 48.193L56.3987 44.4121C56.55 44.5985 56.4417 44.6366 56.3887 43.999C56.3353 43.3565 56.3648 42.4805 56.4344 41.1167C56.5689 38.4822 56.806 34.7068 56.3259 29.7129L50.3534 30.2871ZM7.28924 44.4121C7.07279 44.6788 6.79108 44.9278 6.05463 45.6691C5.4156 46.3123 4.63166 47.1463 3.8444 48.2302C2.24191 50.4365 0.758012 53.4944 0.0852067 57.9723L6.0186 58.8638C6.54823 55.3389 7.66171 53.1844 8.69899 51.7563C9.23161 51.0229 9.77815 50.4343 10.3111 49.8978C10.7467 49.4594 11.4785 48.7716 11.9481 48.193L7.28924 44.4121ZM31.8577 8C31.8524 8 31.8471 8 31.842 8.00001L31.846 14C31.85 14 31.8539 14 31.8577 14V8ZM31.842 8.00001C18.8078 8.00867 8.41715 18.7396 7.36206 29.7129L13.3345 30.2871C14.1056 22.268 22.0219 14.0065 31.846 14L31.842 8.00001ZM7.36206 29.7129C6.88189 34.7068 7.11903 38.4822 7.25351 41.1167C7.32312 42.4805 7.35267 43.3565 7.29927 43.999C7.24628 44.6366 7.13799 44.5985 7.28924 44.4121L11.9481 48.193C12.9109 47.0066 13.1854 45.6182 13.2787 44.4959C13.3715 43.3786 13.3108 42.0852 13.2457 40.8109C13.1109 38.1691 12.9013 34.7932 13.3345 30.2871L7.36206 29.7129ZM7.70522 66.4026H55.9827V60.4026H7.70522V66.4026ZM0.0852067 57.9723C-0.646246 62.8404 3.45213 66.4026 7.70522 66.4026V60.4026C7.13694 60.4026 6.65337 60.169 6.35232 59.8557C6.07167 59.5636 5.96339 59.2313 6.0186 58.8638L0.0852067 57.9723ZM57.6693 58.8638C57.7246 59.2312 57.6163 59.5636 57.3356 59.8557C57.0346 60.169 56.551 60.4026 55.9827 60.4026V66.4026C60.2358 66.4026 64.3342 62.8404 63.6027 57.9723L57.6693 58.8638Z" fill="white"/>
</svg>
