<svg width="24" height="24" viewBox="0 0 24 24" fill="none" xmlns="http://www.w3.org/2000/svg">
<g clip-path="url(#clip0_2_657)">
<path fill-rule="evenodd" clip-rule="evenodd" d="M3.95943 2.95944L5.05131 -0.316223H6.94868L8.04057 2.95943L11.3162 4.05132V5.94869L8.04057 7.04057L6.94868 10.3162H5.05131L3.95943 7.04057L0.683769 5.94869V4.05132L3.95943 2.95944ZM6 3.16228L5.69868 4.06623L5.06623 4.69869L4.16227 5L5.06623 5.30132L5.69868 5.93378L6 6.83773L6.30131 5.93378L6.93377 5.30132L7.83772 5L6.93377 4.69869L6.30131 4.06623L6 3.16228ZM17.0889 6.03756C16.6389 6.00079 16.0566 6.00001 15.2 6.00001H14V4.00001H15.2413C16.0463 4 16.7106 3.99999 17.2518 4.04421C17.8139 4.09013 18.3306 4.1887 18.8159 4.43599C19.5686 4.81948 20.1805 5.4314 20.564 6.18405C20.8113 6.66939 20.9099 7.18609 20.9558 7.74819C21 8.28938 21 8.95373 21 9.75869V13.2408C21 14.0457 21 14.7101 20.9558 15.2513C20.9099 15.8134 20.8113 16.3301 20.564 16.8154C20.1805 17.5681 19.5686 18.18 18.8159 18.5635C18.3306 18.8108 17.8139 18.9093 17.2518 18.9553C16.7106 18.9995 16.0463 18.9995 15.2413 18.9995H15.0314L12.7593 21.6507L11.2407 21.6507L8.96857 18.9995H8.75866C7.9537 18.9995 7.28935 18.9995 6.74816 18.9553C6.18606 18.9093 5.66936 18.8108 5.18402 18.5635C4.43137 18.18 3.81945 17.5681 3.43596 16.8154C3.18867 16.3301 3.0901 15.8134 3.04418 15.2513C2.99996 14.7101 2.99997 14.0457 2.99998 13.2408L2.99998 12.4997H4.99998V13.1995C4.99998 14.056 5.00076 14.6383 5.03753 15.0884C5.07335 15.5268 5.13828 15.751 5.21797 15.9074C5.40972 16.2838 5.71568 16.5897 6.092 16.7815C6.2484 16.8612 6.47261 16.9261 6.91102 16.9619C7.36111 16.9987 7.9434 16.9995 8.79998 16.9995H9.88856L12 19.4633L14.1114 16.9995H15.2C16.0566 16.9995 16.6389 16.9987 17.0889 16.9619C17.5274 16.9261 17.7516 16.8612 17.908 16.7815C18.2843 16.5897 18.5902 16.2838 18.782 15.9074C18.8617 15.751 18.9266 15.5268 18.9624 15.0884C18.9992 14.6383 19 14.056 19 13.1995V9.80001C19 8.94343 18.9992 8.36114 18.9624 7.91105C18.9266 7.47264 18.8617 7.24843 18.782 7.09203C18.5902 6.71571 18.2843 6.40975 17.908 6.218C17.7516 6.13831 17.5274 6.07338 17.0889 6.03756Z" fill="white"/>
<path fill-rule="evenodd" clip-rule="evenodd" d="M10.7757 10.7757L11.4308 8.81027H12.5692L13.2243 10.7757L15.1897 11.4308V12.5692L13.2243 13.2243L12.5692 15.1897H11.4308L10.7757 13.2243L8.81026 12.5692V11.4308L10.7757 10.7757Z" fill="white"/>
</g>
<defs>
<clipPath id="clip0_2_657">
<rect width="24" height="24" fill="white"/>
</clipPath>
</defs>
</svg>
