<svg width="58" height="58" viewBox="0 0 58 58" fill="none" xmlns="http://www.w3.org/2000/svg">
<path fill-rule="evenodd" clip-rule="evenodd" d="M39.253 18.7469C40.1968 19.6907 40.1968 21.2208 39.253 22.1646L32.4177 28.9999L39.253 35.8353C40.1968 36.7791 40.1968 38.3092 39.253 39.253C38.3093 40.1968 36.7791 40.1968 35.8354 39.253L29 32.4176L22.1646 39.253C21.2209 40.1968 19.6907 40.1968 18.747 39.253C17.8032 38.3092 17.8032 36.7791 18.7469 35.8353L25.5823 28.9999L18.7469 22.1646C17.8032 21.2208 17.8032 19.6907 18.7469 18.7469C19.6907 17.8031 21.2209 17.8031 22.1646 18.7469L29 25.5823L35.8354 18.7469C36.7791 17.8031 38.3093 17.8031 39.253 18.7469Z" fill="white"/>
</svg>
