<svg width="58" height="81" viewBox="0 0 58 81" fill="none" xmlns="http://www.w3.org/2000/svg">
<path d="M32.8451 69.8543L53.6297 57.8544M19.9791 22.4646L43.4791 63.1678M29.8291 14.6304C30.1973 15.2682 29.9581 16.0956 29.2948 16.4785L9.17996 28.0918C8.51673 28.4747 7.68059 28.2682 7.3124 27.6304C-0.988715 13.2525 4.4124 7.75034 9.2374 4.96463C14.0624 2.17891 21.5141 0.228496 29.8291 14.6304ZM30.4957 15.7851L54.0564 56.5933C54.3432 57.0902 54.4826 57.6596 54.4518 58.2325C54.0634 65.4648 53.0708 71.8021 52.4124 75.4014C52.0997 77.1103 50.3784 78.1132 48.7383 77.5404C45.2754 76.3308 39.2557 74.0462 32.7626 70.7552C32.2503 70.4956 31.8264 70.09 31.5392 69.5926L7.97907 28.7851L30.4957 15.7851Z" stroke="white" stroke-width="6" stroke-linecap="round"/>
</svg>
