<svg width="78" height="66" viewBox="0 0 78 66" fill="none" xmlns="http://www.w3.org/2000/svg">
<path d="M39.0774 10.3206C39.0774 10.3206 39.4648 8.23966 39.8522 6.26576C40.2396 4.29186 39.4648 3 37.1404 3L23.9689 3.00003C21.6445 3.00003 21.2571 4.29186 20.8697 6.26576L18.1579 17.2105M67.4211 52.2632C65.1343 62.2717 61.4755 62.6842 54.1579 62.6842M67.4036 52.2632L75 14.801C75 12.4692 73.1898 10.5789 70.9569 10.5789H39M58.8947 23.3836V58.4058C58.8947 60.7687 57.1164 62.6842 54.9227 62.6842H6.97205C4.77835 62.6842 3 60.7687 3 58.4058V24.7196C3 19.969 5.81751 19.1053 7.83002 19.1053H54.9227C57.1164 19.1053 58.8947 21.0208 58.8947 23.3836Z" stroke="white" stroke-width="6" stroke-linecap="round"/>
</svg>
