<svg width="486" height="486" viewBox="0 0 486 486" fill="none" xmlns="http://www.w3.org/2000/svg">
<mask id="mask0_2023_299" style="mask-type:alpha" maskUnits="userSpaceOnUse" x="0" y="0" width="486" height="486">
<circle cx="243" cy="243" r="242.5" fill="#D9D9D9" stroke="white"/>
</mask>
<g mask="url(#mask0_2023_299)">
<path fill-rule="evenodd" clip-rule="evenodd" d="M227.358 57.7516C231.097 57.7516 232.573 58.4407 237.001 61.9848C239.756 64.3475 245.955 70.6481 250.678 76.0627C255.499 81.3789 262.092 89.6484 271.636 103.136L276.556 102.545C279.213 102.348 285.117 102.053 297.711 102.053L303.221 93.8817C306.272 89.4516 311.487 82.4618 314.734 78.4255C317.981 74.3891 322.507 69.1714 324.672 66.8087C326.935 64.446 329.985 61.7879 331.658 61.0003C333.232 60.1143 336.184 59.5236 338.053 59.5236C340.317 59.622 342.284 60.4096 343.76 61.8863C344.941 63.1661 346.319 65.7258 346.712 67.5963C347.204 69.4668 347.204 77.441 346.811 85.3168C346.417 93.1925 346.023 104.022 345.925 119.281L350.845 123.219C353.6 125.385 357.733 129.618 360.094 132.571C362.456 135.525 366.096 140.841 368.064 144.385C370.13 147.929 373.181 154.525 374.952 159.152C377.707 166.339 378.789 168.012 382.922 171.261C385.579 173.329 400.338 181.303 415.786 188.982C439.696 200.894 444.124 203.453 446.092 206.407C447.371 208.376 448.257 211.329 448.257 213.298C448.257 215.169 447.371 220.288 446.289 224.62C445.206 228.951 442.648 235.843 440.68 239.879C438.417 244.407 434.678 249.822 431.037 253.661C426.806 258.092 422.575 261.34 417.164 264.195C412.933 266.46 405.848 269.216 401.519 270.299C397.189 271.382 384.299 273.449 372.984 274.828C361.57 276.206 348.287 277.781 343.465 278.47C336.184 279.356 334.118 280.045 332.051 282.113C330.182 283.983 329.198 286.543 328.214 291.564C327.525 295.797 326.738 314.403 326.246 339.803C325.754 362.544 324.868 385.089 324.278 390.011C323.589 394.835 322.015 403.104 320.736 408.224C319.457 413.343 316.898 420.628 315.029 424.467C313.258 428.208 310.699 432.442 309.322 433.82C307.944 435.198 305.583 436.872 304.009 437.561C302.336 438.348 299.679 438.644 297.711 438.348C295.842 438.053 293.185 436.675 289.348 432.835L285.018 440.022C282.755 443.861 279.508 448.685 275.277 454.002L273.211 484.028C272.03 500.567 270.259 528.428 269.176 546.05C268.094 563.672 266.913 585.625 265.733 611.714L270.16 613.978C272.62 615.258 276.851 618.507 279.606 621.263C282.558 624.315 285.904 629.041 287.872 633.175C289.938 637.507 291.316 642.331 291.709 646.072C292.299 651.979 292.201 652.176 288.856 655.621C286.396 658.083 284.231 659.264 280.984 659.756C278.524 660.052 266.126 660.248 253.433 660.052C233.656 659.756 229.818 659.461 227.161 658.083C225.39 657.098 223.226 654.932 222.439 653.357C221.651 651.684 218.503 637.212 215.551 621.066C212.599 605.02 207.286 576.273 203.743 557.371C200.201 538.371 197.151 522.718 196.856 522.422C196.659 522.127 196.265 523.21 195.97 524.884C195.675 526.459 194.789 538.469 194.002 551.464C193.117 564.459 192.231 583.263 191.149 611.517L195.97 614.667C198.627 616.439 202.661 619.688 204.924 622.051C207.187 624.414 210.434 629.336 212.205 633.175C214.272 637.606 215.551 642.233 215.846 645.974C216.338 651.388 216.141 652.176 213.484 655.129C211.713 657.197 209.155 658.673 206.695 659.264C204.53 659.756 192.133 660.248 179.144 660.248C165.861 660.248 154.053 659.855 152.086 659.264C150.216 658.673 147.559 657.295 146.28 656.015C145.001 654.834 143.623 652.766 143.033 651.388C142.541 650.01 140.18 636.523 137.818 621.362C135.457 606.201 131.914 583.558 130.045 571.154C128.175 558.651 125.027 538.272 123.157 525.868C121.288 513.365 119.025 498.106 118.041 491.904C117.155 485.702 116.171 480.287 115.778 479.893C115.482 479.499 103.675 477.432 89.6043 475.266C75.5337 473.002 55.5594 469.655 45.3262 467.784C34.9947 465.815 26.4342 464.634 26.0406 465.028C25.7454 465.421 24.4663 468.473 23.2856 471.722C22.0064 474.971 18.5626 482.453 15.7091 488.458C12.8556 494.365 8.03421 503.521 4.98394 508.64C1.83528 513.759 -4.46203 523.112 -9.18502 529.314C-13.8096 535.516 -21.9765 545.065 -36.9326 560.325L-34.8663 570.661C-33.784 576.371 -31.7176 587.89 -30.3401 596.258C-28.9626 604.626 -27.7818 611.517 -27.6834 611.616C-27.585 611.616 -24.6332 612.698 -21.0909 613.978C-17.5487 615.16 -12.3337 617.818 -9.38183 619.787C-6.42995 621.756 -2.59251 625.3 -0.821389 627.761C0.851339 630.222 3.31122 634.652 4.49197 637.606C5.67272 640.559 6.75508 644.891 6.75508 647.155C6.85347 649.912 6.26308 652.176 4.88554 654.046C3.80319 655.523 1.3433 657.59 -0.526216 658.476C-3.47809 660.052 -7.02032 660.248 -28.1754 660.248C-47.2642 660.248 -53.3647 659.953 -56.2182 658.772C-58.3829 657.984 -61.0396 655.818 -62.6139 653.652C-64.0898 651.585 -67.3369 644.595 -69.7968 638.098C-72.3551 631.6 -79.538 613.191 -85.7369 597.242C-92.0342 581.294 -98.2332 565.542 -99.5123 562.293C-100.791 559.045 -101.775 555.698 -101.775 554.91C-101.775 554.122 -99.5123 549.003 -96.6588 543.589C-93.9037 538.174 -89.6727 527.739 -87.3112 520.453C-84.9497 513.168 -83.277 507.065 -83.5722 506.868C-83.8674 506.769 -87.0161 509.23 -90.6567 512.479C-94.3957 515.629 -100.004 519.961 -103.251 522.127C-106.498 524.194 -111.221 527.148 -113.78 528.625C-116.633 530.2 -118.896 532.366 -119.585 534.039C-120.077 535.516 -121.75 540.635 -123.029 545.557C-124.406 550.381 -126.67 559.537 -127.949 565.739C-129.326 571.941 -131.294 583.066 -132.278 590.351C-133.36 597.636 -134.246 605.709 -134.246 608.367C-134.246 612.6 -134.049 612.994 -131.491 613.584C-130.015 613.88 -126.571 615.357 -123.914 616.932C-121.159 618.408 -117.027 621.854 -114.567 624.512C-112.205 627.072 -109.155 631.699 -107.778 634.652C-105.908 638.688 -105.318 641.74 -105.219 646.564C-105.219 651.782 -105.613 653.652 -107.187 655.326C-108.27 656.606 -110.631 658.181 -112.304 658.87C-114.764 659.953 -121.75 660.248 -140.838 660.248C-163.666 660.248 -166.618 660.052 -169.668 658.476C-171.538 657.393 -173.998 655.326 -175.08 653.751C-176.261 652.176 -177.442 649.124 -177.835 646.958C-178.13 644.792 -181.181 621.756 -184.428 595.766C-187.675 569.775 -190.528 548.019 -190.725 547.526C-190.922 546.936 -194.956 545.951 -199.778 545.164C-204.599 544.475 -213.848 542.506 -220.342 540.93C-226.836 539.355 -236.086 536.107 -241.005 533.842C-246.614 531.184 -251.042 528.329 -253.01 526.065C-255.371 523.407 -256.257 521.438 -256.257 518.977C-256.257 516.811 -255.371 514.547 -253.895 512.775C-252.714 511.298 -246.22 507.261 -239.628 503.717C-231.264 499.287 -225.459 495.349 -220.637 490.919C-216.8 487.375 -211.191 481.173 -208.141 477.137C-204.993 473.1 -200.073 464.831 -197.121 458.924C-193.972 452.722 -189.446 441.105 -186.494 431.851C-183.641 422.892 -178.819 408.027 -175.867 398.871C-172.817 389.617 -168.389 377.508 -166.028 371.798C-163.568 366.088 -159.239 357.228 -156.385 352.109C-153.433 346.989 -148.809 339.409 -145.955 335.373C-143.102 331.336 -136.509 323.756 -131.393 318.637C-126.178 313.517 -118.404 306.823 -114.075 303.771C-109.745 300.719 -103.35 296.683 -99.8075 294.714C-96.2652 292.745 -89.8695 289.693 -85.5401 287.823C-81.2107 285.952 -72.8471 282.999 -66.8449 281.325C-60.9412 279.652 -49.6257 277.19 -41.754 275.911C-33.8824 274.532 -19.3198 272.76 -9.28342 271.973C0.75294 271.087 19.3497 269.807 32.0428 268.921C44.7358 268.133 62.4471 266.755 71.4011 265.869C80.3551 265.081 91.5722 263.605 96.492 262.62C101.313 261.537 107.807 259.864 110.759 258.781C113.711 257.599 119.025 254.843 122.567 252.48C126.109 250.216 132.702 244.506 137.326 239.879C141.951 235.252 149.33 227.081 153.66 221.666C158.088 216.252 164.68 207.588 168.321 202.469C172.06 197.35 181.407 183.567 203.251 150.784V131.784C203.251 120.561 203.842 108.353 204.727 101.856C205.514 95.7522 207.089 87.4826 208.171 83.5447C209.253 79.7053 211.418 73.7 212.993 70.2543C214.567 66.9071 217.519 62.6739 219.388 60.9019C222.34 58.3422 223.816 57.7516 227.358 57.7516ZM310.995 133.064C312.372 133.851 315.521 137.297 317.981 140.644C320.441 144.09 323.786 149.307 325.262 152.261C326.738 155.214 328.903 160.727 330.083 164.567C331.264 168.308 332.543 175.396 332.839 180.318C333.134 185.536 332.937 192.624 332.248 197.547C331.559 202.174 329.788 208.966 328.312 212.806C326.836 216.547 323.884 222.355 321.818 225.506C319.653 228.754 315.029 234.267 311.487 237.811C307.944 241.356 298.794 249.034 291.316 254.843C283.739 260.553 274.195 268.822 270.16 273.056C266.126 277.289 260.714 283.491 258.058 286.838C255.106 290.776 252.744 293.04 251.465 293.04C250.383 293.04 247.825 292.351 245.758 291.465C243.79 290.579 238.379 287.33 233.754 284.18C229.129 281.03 222.045 275.32 218.011 271.579C213.976 267.838 208.368 261.734 205.514 257.993C202.759 254.252 198.922 247.853 196.954 243.817C195.084 239.78 192.821 233.086 191.936 229.05C191.05 225.013 190.066 221.075 189.87 220.386C189.673 219.796 187.213 221.961 184.261 225.506C181.506 228.951 177.373 233.874 175.209 236.532C173.044 239.19 168.616 244.407 165.369 248.247C162.122 251.988 158.481 256.713 157.301 258.584C156.12 260.454 153.955 265.377 152.578 269.413C151.2 273.449 149.626 280.538 149.232 285.165C148.642 290.087 148.642 296.781 149.232 301.408C149.724 305.74 151.003 312.631 151.987 316.668C153.07 320.704 155.234 327.103 156.809 330.943C158.383 334.684 162.024 342.658 164.975 348.466L170.289 359.098C177.865 348.761 181.309 344.331 182.785 342.559C184.359 340.787 186.327 339.311 187.213 339.311C188.197 339.311 190.165 341.181 191.542 343.544C193.018 345.808 196.265 351.912 198.824 357.031C201.382 362.15 205.514 371.207 207.974 377.213C210.336 383.12 213.485 391.094 214.764 394.933C216.043 398.674 218.404 406.944 219.979 413.146C221.455 419.348 223.422 428.701 224.308 433.82C225.194 438.939 226.178 446.815 226.571 451.245C227.26 458.825 227.555 459.318 229.326 458.825C230.409 458.432 232.868 457.25 234.738 456.167C236.607 455.084 241.035 451.934 244.479 449.178C248.021 446.421 253.236 441.302 256.188 437.758C259.042 434.214 263.666 426.929 266.323 421.514C268.98 416.099 272.325 407.042 273.899 401.332C275.375 395.622 277.343 389.814 278.327 388.239C279.213 386.762 281.673 384.892 283.641 384.006C286.002 383.021 288.757 382.726 291.02 383.021C293.579 383.415 295.448 384.498 296.924 386.565C298.203 388.14 299.482 389.223 299.876 389.026C300.368 388.731 300.958 385.778 301.253 382.43C301.549 378.985 301.942 359.197 302.041 338.326C302.237 307.217 302.631 298.849 304.009 291.564C304.993 286.641 307.157 279.553 308.928 275.812C310.699 271.973 313.454 267.444 315.029 265.574C316.603 263.703 319.555 261.143 321.523 259.864C323.589 258.682 327.919 256.713 331.166 255.63C334.806 254.449 343.564 253.071 353.994 252.086C363.341 251.2 377.018 249.527 384.299 248.345C393.155 246.869 399.649 245.097 403.88 243.226C407.324 241.651 411.457 238.894 412.933 237.122C414.507 235.449 415.786 233.48 415.786 232.988C415.786 232.397 414.605 231.019 413.129 229.739C411.653 228.557 409.686 225.801 408.702 223.635C407.816 221.469 406.93 218.22 406.93 216.448C406.93 213.889 406.242 212.904 403.191 210.935C401.224 209.656 394.926 206.308 389.219 203.453C383.512 200.598 375.345 195.971 371.016 193.116C366.687 190.261 361.57 186.422 359.701 184.552C357.044 182.09 355.47 179.039 353.01 171.95C351.337 166.831 348.385 160.137 346.712 157.183C344.941 154.23 340.612 148.914 337.07 145.37C332.248 140.447 328.607 137.789 322.31 134.836C317.686 132.571 312.766 130.504 311.29 130.209C309.715 129.815 308.535 130.012 308.535 130.602C308.535 131.095 309.617 132.276 310.995 133.064ZM291.906 178.251C291.906 180.22 292.496 183.075 293.283 184.748C294.071 186.324 295.743 188.391 296.924 189.179C298.203 189.966 300.958 190.655 303.123 190.655C305.288 190.655 308.043 189.966 309.224 189.179C310.503 188.391 312.175 186.324 312.963 184.748C313.75 183.075 314.438 180.712 314.438 179.334C314.438 177.956 313.651 175.298 312.667 173.329C311.782 171.36 309.814 169.095 308.24 168.406C306.764 167.619 304.205 167.028 302.533 167.028C300.27 167.028 298.498 168.012 295.743 170.867C292.988 173.722 292.004 175.494 291.906 178.251ZM-184.526 489.836C-189.052 495.546 -195.94 502.831 -199.679 506.08C-203.517 509.427 -208.141 513.267 -210.011 514.645L-213.455 517.303C-207.354 518.878 -201.844 519.863 -197.219 520.453C-192.595 520.946 -187.183 521.438 -185.215 521.438C-181.476 521.438 -181.476 521.339 -178.622 514.251C-177.048 510.412 -174.785 504.308 -173.604 500.764C-172.424 497.22 -170.357 489.049 -169.078 482.551C-167.799 476.054 -166.52 469.753 -166.323 468.473C-166.225 467.292 -166.323 466.307 -166.717 466.307C-167.11 466.307 -169.472 469.261 -171.833 472.903C-174.293 476.644 -180 484.225 -184.526 489.836ZM147.559 602.361C147.953 604.134 149.33 612.502 150.708 620.87C151.987 629.238 153.561 638.492 154.053 641.347L155.037 646.466H203.743C202.563 641.544 201.382 638.59 200.496 636.72C199.611 634.849 196.856 631.502 194.297 629.336C191.837 627.072 187.41 624.414 184.458 623.232C179.341 621.263 179.144 620.968 178.948 617.325C178.751 615.258 178.456 610.237 178.16 606.398L177.668 599.211H146.871L147.559 602.361ZM229.129 623.823L233.262 645.875C273.899 646.367 279.016 646.17 279.016 645.186C279.016 644.497 278.426 642.233 277.737 640.067C277.147 637.999 274.785 634.258 272.62 631.797C270.259 629.139 266.323 626.284 262.781 624.611C259.534 623.035 256.09 621.854 255.204 621.854C253.63 621.854 253.335 620.377 252.941 610.533L252.449 599.211C228.244 599.211 224.898 599.507 224.997 600.393C224.997 601.082 226.866 611.616 229.129 623.823Z" fill="black"/>
<path d="M227.358 42C230.322 42 234.088 42.2736 238.291 44.1343C241.337 45.4827 243.951 47.4056 245.995 49.0163L246.836 49.6845L247.044 49.8517L247.247 50.0258C250.804 53.0766 257.537 59.9746 262.497 65.6571C266.846 70.4702 272.208 77.1144 279.156 86.6204C281.585 86.5107 284.865 86.4076 289.308 86.3503L290.171 85.0716L290.213 85.0082L290.257 84.9457C293.531 80.1897 298.98 72.8864 302.47 68.549C305.931 64.2461 310.677 58.7729 313.066 56.1652L313.185 56.0364L313.306 55.9105C314.798 54.3524 316.531 52.7117 318.238 51.2717C319.511 50.1981 321.797 48.3438 324.412 47.0147C326.99 45.6493 329.613 44.9331 331.346 44.5496C333.341 44.1084 335.713 43.7719 338.053 43.7719H338.396L338.738 43.7872C344.353 44.0316 350.244 46.0984 354.892 50.7487L355.115 50.9708L355.328 51.2025C357.155 53.1826 358.539 55.4179 359.478 57.2112C360.379 58.9322 361.43 61.3155 362.039 63.9997C362.532 66.0753 362.655 68.1905 362.709 69.172C362.793 70.6743 362.83 72.386 362.837 74.1444C362.85 77.6836 362.743 81.9322 362.534 86.1032C362.22 92.4002 361.905 100.69 361.748 111.796C365.42 114.892 369.724 119.4 372.387 122.732C375.207 126.258 379.311 132.231 381.764 136.625C384.356 141.111 387.691 148.394 389.651 153.512L390.107 154.687C390.527 155.756 390.846 156.519 391.11 157.102C391.314 157.551 391.449 157.806 391.52 157.932C391.659 158.062 391.95 158.32 392.497 158.754C392.501 158.744 393.146 159.178 394.896 160.192C396.707 161.242 399.133 162.59 402.03 164.153C407.089 166.883 413.383 170.158 419.958 173.46L422.791 174.875L422.797 174.879L422.804 174.882C434.642 180.78 442.184 184.619 447.016 187.399C451.467 189.96 455.758 192.752 458.892 197.23L459.191 197.67L459.242 197.746L459.292 197.823C462.079 202.114 464 208.015 464 213.298C464 215.746 463.54 218.711 463.19 220.731C462.771 223.142 462.202 225.881 461.562 228.44C460.194 233.917 457.241 241.839 454.83 246.785L454.761 246.923C451.826 252.796 447.203 259.499 442.459 264.502L442.439 264.523L442.419 264.544C437.092 270.122 431.533 274.409 424.588 278.084L424.589 278.085C424.581 278.089 424.573 278.092 424.565 278.096C424.545 278.107 424.526 278.119 424.506 278.129L424.505 278.128C419.196 280.957 410.962 284.173 405.337 285.58C399.967 286.923 386.213 289.084 374.887 290.464L374.879 290.465L374.87 290.466C363.275 291.866 350.288 293.406 345.692 294.063L345.529 294.086L345.366 294.107C344.753 294.181 344.209 294.252 343.725 294.317C343.703 294.5 343.671 294.801 343.63 295.25C343.558 296.03 343.479 297.056 343.395 298.34C343.228 300.904 343.055 304.285 342.886 308.395C342.548 316.603 342.231 327.484 341.986 340.108V340.126L341.985 340.144C341.501 362.53 340.614 386.011 339.909 391.888L339.888 392.063L339.863 392.238C339.105 397.545 337.431 406.35 336.009 412.044C334.54 417.924 331.686 426.17 329.256 431.21L329.256 431.211C328.126 433.597 326.781 436.073 325.475 438.219C324.425 439.946 322.603 442.807 320.454 444.958C318.018 447.394 314.258 450.18 310.711 451.812C305.744 454.151 299.853 454.597 295.376 453.926L295.316 453.917L295.256 453.907C295.138 453.889 295.019 453.866 294.902 453.846C293.623 455.753 292.207 457.759 290.655 459.838L288.917 485.11L288.915 485.13L288.914 485.15C287.739 501.606 285.972 529.401 284.89 547.016C283.949 562.33 282.932 580.958 281.904 602.772C284.805 604.796 287.767 607.252 290.058 609.458L290.739 610.125L290.83 610.216L290.92 610.31C295.013 614.542 299.352 620.664 302.079 626.391L302.582 627.473C304.884 632.568 306.562 638.219 307.237 643.336L307.366 644.423L307.37 644.464L307.374 644.505C307.508 645.85 307.683 647.586 307.722 649.196C307.763 650.913 307.693 653.471 306.825 656.337C305.115 661.984 300.949 665.772 300.148 666.597L300.068 666.678L299.988 666.759C295.457 671.292 290.315 674.273 283.342 675.33L283.102 675.366L282.86 675.395C279.111 675.845 265.512 675.992 253.189 675.801C243.431 675.655 237.024 675.506 232.697 675.181C228.373 674.856 224.143 674.26 219.914 672.066L219.713 671.962L219.515 671.852C219.162 671.655 218.816 671.449 218.478 671.238C215.896 672.792 213.131 673.918 210.37 674.581L210.276 674.603L210.184 674.624C208.236 675.067 205.788 675.243 204.388 675.34C202.491 675.471 200.152 675.586 197.56 675.682C192.359 675.874 185.818 676 179.144 676C172.37 676 165.905 675.9 160.814 675.719C158.283 675.63 155.977 675.516 154.093 675.374C152.94 675.287 150.008 675.085 147.562 674.351L147.453 674.319L147.345 674.284C145.274 673.63 143.201 672.698 141.412 671.72C139.825 670.852 137.441 669.396 135.313 667.314C132.374 664.505 129.892 660.697 128.563 657.593L128.371 657.145L128.207 656.686C127.576 654.917 127.093 652.308 126.886 651.236C126.533 649.407 126.098 647.012 125.617 644.247C124.651 638.701 123.455 631.445 122.262 623.787C119.906 608.661 116.355 585.957 114.478 573.502L114.476 573.494L114.475 573.484C112.596 560.916 109.486 540.797 107.59 528.217L107.588 528.208L107.587 528.198C105.706 515.619 103.461 500.483 102.492 494.373L102.473 494.252L102.455 494.131C102.414 493.843 102.371 493.557 102.329 493.275C98.0952 492.553 92.8538 491.703 87.2107 490.835L87.1569 490.826L87.104 490.818C73 488.549 52.8962 485.18 42.4973 483.279L42.3801 483.258C40.1159 482.826 37.9569 482.437 35.9767 482.099C34.2068 486.104 31.8604 491.154 29.9278 495.222L29.9057 495.267L29.8836 495.313C26.8933 501.503 21.8554 511.086 18.5066 516.706L18.4499 516.801L18.3923 516.895C15.0239 522.372 8.49425 532.071 3.43306 538.732L3.43404 538.732C-1.08847 544.798 -8.21996 553.183 -19.8735 565.348L-19.4132 567.649L-19.3988 567.726C-18.295 573.549 -16.2057 585.193 -14.8057 593.698C-14.4424 595.904 -14.0939 598.001 -13.7766 599.891C-9.20038 601.694 -4.01538 604.435 -0.648816 606.68C3.38839 609.373 8.52411 613.953 11.6584 618.152L11.9553 618.557L12.0783 618.729L12.1974 618.903C14.3856 622.123 17.4307 627.557 19.1091 631.756C20.0234 634.042 20.8055 636.6 21.3711 638.947C21.8545 640.953 22.4472 643.888 22.4934 646.797C22.651 652.174 21.462 658.074 17.5803 663.36C17.5733 663.37 17.5672 663.381 17.5602 663.39L17.5592 663.389C15.9711 665.549 14.0317 667.363 12.4933 668.633C10.9933 669.871 8.92311 671.376 6.55116 672.547C2.26275 674.756 -1.90425 675.381 -6.53334 675.673C-11.0376 675.957 -17.7755 676 -28.1756 676C-37.6834 676 -44.3688 675.929 -49.101 675.684C-53.2435 675.469 -57.8339 675.077 -61.9492 673.442C-67.54 671.303 -72.4229 666.939 -75.346 662.917L-75.4248 662.808C-77.1378 660.408 -78.8746 656.853 -80.1235 654.153C-81.5687 651.029 -83.1277 647.347 -84.486 643.766C-87.0889 637.154 -94.2201 618.876 -100.379 603.03L-109.153 580.782C-110.733 576.773 -112.061 573.399 -112.986 571.05C-114.228 577.021 -115.841 586.273 -116.677 592.46L-116.69 592.564L-116.706 592.667C-117.186 595.896 -117.623 599.295 -117.952 602.226C-117.353 602.544 -116.755 602.875 -116.169 603.217C-111.775 605.643 -106.837 609.831 -103.643 613.145L-103.015 613.81L-103.007 613.82L-102.999 613.828C-99.4929 617.628 -95.5485 623.624 -93.5117 627.991L-93.5021 628.01L-93.4934 628.029C-90.539 634.408 -89.6126 639.682 -89.4788 646.243L-89.4759 646.403V646.564C-89.4759 651.434 -89.4445 659.226 -95.4671 665.844C-97.2368 667.847 -99.2396 669.365 -100.634 670.319C-102.13 671.343 -103.986 672.435 -105.964 673.285L-105.963 673.288C-108.571 674.436 -111.169 674.898 -112.956 675.145C-114.934 675.419 -117.169 675.585 -119.594 675.699C-124.45 675.928 -131.312 676 -140.839 676C-152.064 676 -159.072 675.957 -163.643 675.674C-168.673 675.362 -172.626 674.675 -176.889 672.474L-177.227 672.299L-177.556 672.108C-180.685 670.296 -185.074 666.888 -187.883 662.917C-190.787 658.911 -192.638 653.552 -193.325 649.776L-193.387 649.433L-193.434 649.087C-193.739 646.849 -196.797 623.752 -200.049 597.719C-201.67 584.747 -203.192 572.841 -204.331 564.127C-204.508 562.77 -204.678 561.493 -204.835 560.303C-210.52 559.323 -218.438 557.6 -224.051 556.239C-231.492 554.434 -241.706 550.858 -247.585 548.152L-247.665 548.116L-247.745 548.077C-253.562 545.32 -260.508 541.367 -264.775 536.529L-264.776 536.53C-264.796 536.508 -264.815 536.485 -264.835 536.463C-264.853 536.442 -264.871 536.422 -264.889 536.401L-264.887 536.4C-268.712 532.061 -272 526.555 -272 518.977C-272 512.712 -269.544 506.958 -265.99 502.691L-265.988 502.692C-264.257 500.609 -262.151 499.077 -261.38 498.514C-260.107 497.584 -258.652 496.621 -257.186 495.696C-254.229 493.832 -250.635 491.753 -247.079 489.842L-247.037 489.819L-246.994 489.796C-239.404 485.776 -234.834 482.572 -231.313 479.341C-228.163 476.431 -223.185 470.927 -220.699 467.637L-220.626 467.54L-220.552 467.445C-218.292 464.547 -213.907 457.292 -211.202 451.88L-211.18 451.835L-211.157 451.79C-208.529 446.613 -204.3 435.863 -201.492 427.062C-198.628 418.068 -193.785 403.136 -190.85 394.035L-190.835 393.986L-190.819 393.938C-187.69 384.447 -183.129 371.952 -180.575 365.776L-180.53 365.669L-180.485 365.563C-177.835 359.413 -173.273 350.068 -170.134 344.437L-170.079 344.337L-170.022 344.238C-167.009 339.013 -162.093 330.923 -158.808 326.277C-155.266 321.267 -148.016 312.993 -142.525 307.499L-142.471 307.446L-142.418 307.393C-136.838 301.915 -128.398 294.6 -123.142 290.895C-118.429 287.572 -111.558 283.227 -107.453 280.945C-103.303 278.638 -96.3989 275.357 -91.7811 273.362C-86.7308 271.18 -77.7017 268.002 -71.095 266.159C-64.517 264.297 -52.6919 261.736 -44.3696 260.378C-35.9345 258.907 -21.0519 257.103 -10.6758 256.282C-0.454477 255.38 18.35 254.087 30.9473 253.208L31.0079 253.203L31.0684 253.199C43.6331 252.419 61.1429 251.055 69.8511 250.194L69.9366 250.185L70.0222 250.178C78.5884 249.425 88.9882 248.037 93.2249 247.209C97.8318 246.168 103.099 244.774 105.134 244.064C107.133 243.229 111.261 241.091 113.834 239.374L113.962 239.289L114.091 239.206C116.192 237.863 121.834 233.104 126.194 228.741C130.444 224.49 137.43 216.75 141.367 211.826L141.421 211.759L141.475 211.692C145.677 206.553 152.055 198.171 155.493 193.337L155.61 193.175C158.953 188.598 167.465 176.072 187.508 146.011V131.784C187.508 121.016 188.029 108.89 188.941 101.204L189.128 99.7281C189.98 93.1681 191.662 84.2041 192.991 79.3676L193.005 79.3186L193.019 79.2686C194.295 74.7409 196.728 67.9664 198.675 63.7055L198.71 63.6267L198.748 63.5478C200.933 58.9023 204.93 52.9089 208.561 49.4672L208.814 49.2268L209.077 48.999C210.91 47.4097 213.643 45.1919 217.357 43.7209C221.241 42.1827 224.804 42 227.358 42ZM227.358 57.7516C223.816 57.7516 222.34 58.3422 219.388 60.9019C217.519 62.6739 214.567 66.9071 212.993 70.2543C211.418 73.7 209.253 79.7053 208.171 83.5447C207.089 87.4826 205.514 95.7522 204.727 101.856C203.842 108.353 203.251 120.561 203.251 131.784V150.784C181.407 183.567 172.06 197.35 168.321 202.469C164.68 207.588 158.088 216.252 153.66 221.666C149.33 227.081 141.951 235.252 137.326 239.879C132.702 244.506 126.109 250.216 122.567 252.48C119.025 254.843 113.711 257.599 110.759 258.781C107.807 259.864 101.313 261.537 96.492 262.62C91.5722 263.605 80.3551 265.081 71.4011 265.869C62.4471 266.755 44.7358 268.133 32.0428 268.921C19.3497 269.807 0.75294 271.087 -9.28342 271.973C-19.3198 272.76 -33.8824 274.532 -41.754 275.911C-49.6257 277.19 -60.9412 279.652 -66.8449 281.325C-72.8471 282.999 -81.2107 285.952 -85.5401 287.823C-89.8695 289.693 -96.2652 292.745 -99.8075 294.714C-103.35 296.683 -109.745 300.719 -114.075 303.771C-118.404 306.823 -126.178 313.517 -131.393 318.637C-136.509 323.756 -143.102 331.336 -145.955 335.373C-148.809 339.409 -153.433 346.989 -156.385 352.109C-159.239 357.228 -163.568 366.088 -166.028 371.798C-168.389 377.508 -172.817 389.617 -175.867 398.871C-178.819 408.027 -183.641 422.892 -186.494 431.851C-189.446 441.105 -193.972 452.722 -197.121 458.924C-200.073 464.831 -204.993 473.1 -208.141 477.137C-211.191 481.173 -216.8 487.375 -220.637 490.919C-225.459 495.349 -231.264 499.287 -239.628 503.717C-246.22 507.261 -252.714 511.298 -253.895 512.775C-255.371 514.547 -256.257 516.811 -256.257 518.977C-256.257 521.438 -255.371 523.407 -253.01 526.065C-251.042 528.329 -246.614 531.184 -241.005 533.842C-236.086 536.107 -226.836 539.355 -220.342 540.93C-213.848 542.506 -204.599 544.475 -199.778 545.164C-194.956 545.951 -190.922 546.936 -190.725 547.526C-190.528 548.019 -187.675 569.775 -184.428 595.766C-181.181 621.756 -178.13 644.792 -177.835 646.958C-177.442 649.124 -176.261 652.176 -175.08 653.751C-173.998 655.326 -171.538 657.393 -169.668 658.476C-166.618 660.052 -163.666 660.248 -140.838 660.248C-121.75 660.248 -114.764 659.953 -112.304 658.87C-110.631 658.181 -108.27 656.606 -107.187 655.326C-105.613 653.652 -105.219 651.782 -105.219 646.564C-105.318 641.74 -105.908 638.688 -107.778 634.652C-109.155 631.699 -112.205 627.072 -114.567 624.512C-117.027 621.854 -121.159 618.408 -123.914 616.932C-126.571 615.357 -130.015 613.88 -131.491 613.584C-134.049 612.994 -134.246 612.6 -134.246 608.367C-134.246 605.709 -133.36 597.636 -132.278 590.351C-131.294 583.066 -129.326 571.941 -127.949 565.739C-126.67 559.537 -124.406 550.381 -123.029 545.557C-121.75 540.635 -120.077 535.516 -119.585 534.039C-118.896 532.366 -116.633 530.2 -113.78 528.625C-111.221 527.148 -106.498 524.194 -103.251 522.127C-100.004 519.961 -94.3957 515.629 -90.6567 512.479C-87.0161 509.23 -83.8674 506.769 -83.5722 506.868C-83.2774 507.066 -84.95 513.169 -87.3112 520.453C-89.6727 527.739 -93.9037 538.174 -96.6588 543.589C-99.5123 549.003 -101.775 554.122 -101.775 554.91C-101.775 555.698 -100.791 559.045 -99.5123 562.293C-98.2332 565.542 -92.0342 581.294 -85.7369 597.242C-79.538 613.191 -72.3551 631.6 -69.7968 638.098C-67.3369 644.595 -64.0898 651.585 -62.6139 653.652C-61.0396 655.818 -58.3829 657.984 -56.2182 658.772C-53.3647 659.953 -47.2642 660.248 -28.1754 660.248C-7.02032 660.248 -3.47809 660.052 -0.526216 658.476C1.3433 657.59 3.80319 655.523 4.88554 654.046C6.26308 652.176 6.85347 649.912 6.75508 647.155C6.75508 644.891 5.67272 640.559 4.49197 637.606C3.31122 634.652 0.851339 630.222 -0.821389 627.761C-2.59251 625.3 -6.42995 621.756 -9.38183 619.787C-12.3337 617.818 -17.5487 615.16 -21.0909 613.978C-24.6332 612.698 -27.585 611.616 -27.6834 611.616C-27.7837 611.505 -28.9638 604.618 -30.3401 596.258C-31.7176 587.89 -33.784 576.371 -34.8663 570.661L-36.9326 560.325C-21.9765 545.065 -13.8096 535.516 -9.18502 529.314C-4.46203 523.112 1.83528 513.759 4.98394 508.64C8.03421 503.521 12.8556 494.365 15.7091 488.458C18.5626 482.453 22.0064 474.971 23.2856 471.722C24.4663 468.473 25.7454 465.421 26.0406 465.028C26.4356 464.634 34.9956 465.815 45.3262 467.784C55.5594 469.655 75.5337 473.002 89.6043 475.266C103.671 477.431 115.477 479.499 115.778 479.893C116.171 480.287 117.155 485.702 118.041 491.904C119.025 498.106 121.288 513.365 123.157 525.868C125.027 538.272 128.175 558.651 130.045 571.154C131.914 583.558 135.457 606.201 137.818 621.362C140.18 636.523 142.541 650.01 143.033 651.388C143.623 652.766 145.001 654.834 146.28 656.015C147.559 657.295 150.216 658.673 152.086 659.264C154.053 659.855 165.861 660.248 179.144 660.248C192.133 660.248 204.53 659.756 206.695 659.264C209.155 658.673 211.713 657.197 213.484 655.129C216.141 652.176 216.338 651.388 215.846 645.974C215.551 642.233 214.272 637.606 212.205 633.175C210.434 629.336 207.187 624.414 204.924 622.051C202.661 619.688 198.627 616.439 195.97 614.667L191.149 611.517C192.231 583.263 193.117 564.459 194.002 551.464C194.789 538.469 195.675 526.459 195.97 524.884C196.265 523.21 196.659 522.127 196.856 522.422C197.151 522.718 200.201 538.371 203.743 557.371C207.286 576.273 212.599 605.02 215.551 621.066C218.503 637.212 221.651 651.684 222.439 653.357C223.226 654.932 225.39 657.098 227.161 658.083C229.818 659.461 233.656 659.756 253.433 660.052C266.126 660.248 278.524 660.052 280.984 659.756C284.231 659.264 286.396 658.083 288.856 655.621C292.201 652.176 292.299 651.979 291.709 646.072C291.316 642.331 289.938 637.507 287.872 633.175C285.904 629.041 282.558 624.315 279.606 621.263C276.851 618.507 272.62 615.258 270.16 613.978L265.733 611.714C266.913 585.625 268.094 563.672 269.176 546.05C270.259 528.428 272.03 500.567 273.211 484.028L275.277 454.002C279.508 448.685 282.755 443.861 285.018 440.022L289.348 432.835C293.185 436.675 295.842 438.053 297.711 438.348C299.679 438.644 302.336 438.348 304.009 437.561C305.583 436.872 307.944 435.198 309.322 433.82C310.699 432.442 313.258 428.208 315.029 424.467C316.898 420.628 319.457 413.343 320.736 408.224C322.015 403.104 323.589 394.835 324.278 390.011C324.868 385.089 325.754 362.544 326.246 339.803C326.738 314.403 327.525 295.797 328.214 291.564C329.198 286.543 330.182 283.983 332.051 282.113C334.118 280.045 336.184 279.356 343.465 278.47C348.287 277.781 361.57 276.206 372.984 274.828C384.299 273.449 397.189 271.382 401.519 270.299C405.848 269.216 412.933 266.46 417.164 264.195C422.575 261.34 426.806 258.092 431.037 253.661C434.678 249.822 438.417 244.407 440.68 239.879C442.648 235.843 445.206 228.951 446.289 224.62C447.371 220.288 448.257 215.169 448.257 213.298C448.257 211.329 447.371 208.376 446.092 206.407C444.124 203.453 439.696 200.894 415.786 188.982C400.338 181.303 385.579 173.329 382.922 171.261C378.789 168.012 377.707 166.339 374.952 159.152C373.181 154.525 370.13 147.929 368.064 144.385C366.096 140.841 362.456 135.525 360.094 132.571C357.733 129.618 353.6 125.385 350.845 123.219L345.925 119.281C346.023 104.022 346.417 93.1925 346.811 85.3168C347.204 77.441 347.204 69.4668 346.712 67.5963C346.319 65.7258 344.941 63.1661 343.76 61.8863C342.284 60.4096 340.317 59.622 338.053 59.5236C336.184 59.5236 333.232 60.1143 331.658 61.0003C329.985 61.7879 326.935 64.446 324.672 66.8087C322.507 69.1714 317.981 74.3891 314.734 78.4255C311.487 82.4618 306.272 89.4516 303.221 93.8817L297.711 102.053C285.117 102.053 279.213 102.348 276.556 102.545L271.636 103.136C262.092 89.6484 255.499 81.3789 250.678 76.0627C245.955 70.6481 239.756 64.3475 237.001 61.9848C232.573 58.4407 231.097 57.7516 227.358 57.7516ZM177.668 599.211L178.16 606.398C178.456 610.237 178.751 615.258 178.948 617.325C179.144 620.968 179.341 621.263 184.458 623.232C187.41 624.414 191.837 627.072 194.297 629.336C196.856 631.502 199.611 634.849 200.496 636.72C201.382 638.59 202.563 641.544 203.743 646.466H155.037L154.053 641.347C153.561 638.492 151.987 629.238 150.708 620.87C149.33 612.502 147.953 604.134 147.559 602.361L146.871 599.211H177.668ZM252.941 610.533C253.335 620.377 253.63 621.854 255.204 621.854C256.09 621.854 259.534 623.035 262.781 624.611C266.323 626.284 270.259 629.139 272.62 631.797C274.785 634.258 277.147 637.999 277.737 640.067C278.426 642.233 279.016 644.497 279.016 645.186C279.015 646.17 273.897 646.367 233.262 645.875L229.129 623.823C226.867 611.617 224.997 601.083 224.997 600.393C224.898 599.507 228.244 599.211 252.449 599.211L252.941 610.533ZM-166.717 466.307C-166.323 466.307 -166.225 467.292 -166.323 468.473C-166.52 469.753 -167.799 476.054 -169.078 482.551C-170.357 489.049 -172.424 497.22 -173.604 500.764C-174.785 504.308 -177.048 510.412 -178.622 514.251C-181.476 521.339 -181.476 521.438 -185.215 521.438C-187.183 521.438 -192.595 520.946 -197.219 520.453C-201.844 519.863 -207.354 518.878 -213.455 517.303L-210.011 514.645C-208.141 513.267 -203.517 509.427 -199.679 506.08C-195.94 502.831 -189.052 495.546 -184.526 489.836C-180 484.225 -174.293 476.644 -171.833 472.903C-169.472 469.261 -167.11 466.307 -166.717 466.307ZM308.535 130.602C308.535 130.012 309.715 129.815 311.29 130.209C312.766 130.504 317.686 132.571 322.31 134.836C328.607 137.789 332.248 140.447 337.07 145.37C340.612 148.914 344.941 154.23 346.712 157.183C348.385 160.137 351.337 166.831 353.01 171.95C355.47 179.039 357.044 182.09 359.701 184.552C361.57 186.422 366.687 190.261 371.016 193.116C375.345 195.971 383.512 200.598 389.219 203.453C394.926 206.308 401.224 209.656 403.191 210.935C406.242 212.904 406.93 213.889 406.93 216.448C406.93 218.22 407.816 221.469 408.702 223.635C409.686 225.801 411.653 228.557 413.129 229.739C414.605 231.019 415.786 232.397 415.786 232.988C415.786 233.48 414.507 235.449 412.933 237.122C411.457 238.894 407.324 241.651 403.88 243.226C399.649 245.097 393.155 246.869 384.299 248.345C377.018 249.527 363.341 251.2 353.994 252.086C343.564 253.071 334.806 254.449 331.166 255.63C327.919 256.713 323.589 258.682 321.523 259.864C319.555 261.143 316.603 263.703 315.029 265.574C313.454 267.444 310.699 271.973 308.928 275.812C307.157 279.553 304.993 286.641 304.009 291.564C302.631 298.849 302.237 307.217 302.041 338.326C301.942 359.197 301.549 378.985 301.253 382.43C300.958 385.778 300.368 388.731 299.876 389.026C299.482 389.223 298.203 388.14 296.924 386.565C295.448 384.498 293.579 383.415 291.02 383.021C288.757 382.726 286.002 383.021 283.641 384.006C281.673 384.892 279.213 386.762 278.327 388.239C277.343 389.814 275.375 395.622 273.899 401.332C272.325 407.042 268.98 416.099 266.323 421.514C263.666 426.929 259.042 434.214 256.188 437.758C253.236 441.302 248.021 446.421 244.479 449.178C241.035 451.934 236.607 455.084 234.738 456.167C232.868 457.25 230.409 458.432 229.326 458.825C227.555 459.318 227.26 458.825 226.571 451.245C226.178 446.815 225.194 438.939 224.308 433.82C223.422 428.701 221.455 419.348 219.979 413.146C218.404 406.944 216.043 398.674 214.764 394.933C213.485 391.094 210.336 383.12 207.974 377.213C205.514 371.207 201.382 362.15 198.824 357.031C196.265 351.912 193.018 345.808 191.542 343.544C190.165 341.181 188.197 339.311 187.213 339.311C186.327 339.311 184.359 340.787 182.785 342.559C181.309 344.331 177.865 348.761 170.289 359.098L164.975 348.466C162.024 342.658 158.383 334.684 156.809 330.943C155.234 327.103 153.07 320.704 151.987 316.668C151.003 312.631 149.724 305.74 149.232 301.408C148.642 296.781 148.642 290.087 149.232 285.165C149.626 280.538 151.2 273.449 152.578 269.413C153.955 265.377 156.12 260.454 157.301 258.584C158.481 256.713 162.122 251.988 165.369 248.247C168.616 244.407 173.044 239.19 175.209 236.532C177.373 233.874 181.506 228.951 184.261 225.506C187.213 221.961 189.673 219.796 189.87 220.386C190.066 221.075 191.05 225.013 191.936 229.05C192.821 233.086 195.084 239.78 196.954 243.817C198.922 247.853 202.759 254.252 205.514 257.993C208.368 261.734 213.976 267.838 218.011 271.579C222.045 275.32 229.129 281.03 233.754 284.18C238.379 287.33 243.79 290.579 245.758 291.465C247.825 292.351 250.383 293.04 251.465 293.04C252.744 293.04 255.106 290.776 258.058 286.838C260.714 283.491 266.126 277.289 270.16 273.056C274.195 268.822 283.739 260.553 291.316 254.843C298.794 249.034 307.944 241.356 311.487 237.811C315.029 234.267 319.653 228.754 321.818 225.506C323.884 222.355 326.836 216.547 328.312 212.806C329.788 208.966 331.559 202.174 332.248 197.547C332.937 192.624 333.134 185.536 332.839 180.318C332.543 175.396 331.264 168.308 330.083 164.567C328.903 160.727 326.738 155.214 325.262 152.261C323.786 149.307 320.441 144.09 317.981 140.644C315.521 137.297 312.372 133.851 310.995 133.064C309.617 132.276 308.535 131.095 308.535 130.602ZM183.206 251.532C181.246 253.861 179.11 256.384 177.387 258.421L177.322 258.498L177.255 258.575C175.849 260.196 174.308 262.088 172.987 263.787C172.331 264.631 171.762 265.385 171.316 265.996C171.094 266.301 170.918 266.548 170.787 266.737C170.723 266.829 170.678 266.896 170.649 266.938C170.612 267.007 170.517 267.186 170.362 267.498C170.106 268.013 169.789 268.694 169.436 269.5C168.723 271.132 168.002 272.961 167.476 274.503C166.476 277.433 165.194 283.261 164.918 286.5L164.895 286.771L164.864 287.041C164.446 290.526 164.432 295.483 164.775 298.778L164.849 299.413L164.863 299.522L164.875 299.63C165.277 303.168 166.401 309.27 167.245 312.777C168.167 316.162 170.051 321.724 171.349 324.902C171.846 326.081 172.58 327.744 173.439 329.639C174.23 328.914 175.058 328.226 175.905 327.6C176.777 326.955 177.952 326.165 179.354 325.467C180.337 324.978 183.287 323.559 187.213 323.559L187.643 323.565C192.051 323.68 195.23 325.527 196.368 326.229C197.969 327.215 199.251 328.323 200.184 329.227C201.991 330.979 203.628 333.08 204.956 335.297C207.032 338.573 210.489 345.153 212.904 349.987C215.464 355.109 219.4 363.703 222.033 370.01L222.541 371.24L222.567 371.301L222.591 371.363C224.862 377.043 228.18 385.421 229.66 389.835L229.948 390.695C231.245 394.634 233.127 401.207 234.594 406.781L235.238 409.269L235.266 409.383L235.293 409.497C236.823 415.925 238.865 425.609 239.821 431.134C239.874 431.44 239.926 431.754 239.98 432.075C241.495 430.575 242.951 429.031 243.999 427.784C246.057 425.199 250.009 419.02 252.191 414.573C254.363 410.145 257.365 402.049 258.712 397.177C259.529 394.038 260.477 390.871 261.386 388.184C262.064 386.179 263.275 382.717 264.829 380.135L264.827 380.134C264.854 380.09 264.882 380.047 264.909 380.003C264.932 379.965 264.954 379.927 264.977 379.89L264.978 379.891C266.858 376.859 269.342 374.7 270.858 373.509C272.65 372.102 274.84 370.695 277.18 369.642L277.382 369.55L277.585 369.466C280.296 368.336 283.151 367.642 285.965 367.339C285.97 367.102 285.976 366.862 285.981 366.621C286.127 358.71 286.249 348.618 286.298 338.252V338.226C286.491 307.639 286.837 297.636 288.539 288.635L288.555 288.555L288.571 288.475C289.414 284.257 290.98 278.625 292.731 273.853C287.98 277.822 283.624 281.754 281.555 283.925C277.828 287.836 272.791 293.614 270.447 296.558C268.766 298.781 266.904 301.014 264.948 302.864C263.943 303.814 262.552 305.012 260.835 306.063C259.421 306.928 256.05 308.792 251.465 308.792C248.67 308.792 246.026 308.107 244.824 307.778C243.164 307.323 241.318 306.699 239.557 305.943L239.427 305.888L239.297 305.83C235.972 304.333 229.584 300.396 224.894 297.2C219.565 293.57 211.869 287.36 207.309 283.131C202.713 278.869 196.475 272.105 193 267.549L192.919 267.444L192.84 267.337C189.678 263.044 185.638 256.353 183.206 251.532ZM348.308 195.441C348.182 196.939 348.028 198.384 347.839 199.731L347.82 199.867C346.975 205.546 344.926 213.465 343.006 218.461L342.956 218.59C341.135 223.205 337.707 229.991 334.981 234.148L334.949 234.195L334.917 234.243C333.896 235.776 332.56 237.561 331.081 239.411C336.354 238.277 343.413 237.314 350.583 236.593L352.515 236.404C361.602 235.543 374.854 233.917 381.711 232.808C387.341 231.869 391.456 230.874 394.296 229.99L394.245 229.878L394.13 229.6C393.383 227.772 392.72 225.717 392.228 223.782C392.141 223.443 392.048 223.056 391.952 222.63C391.415 222.337 390.825 222.018 390.192 221.68C387.792 220.397 384.916 218.911 382.179 217.542C376.058 214.48 367.324 209.547 362.353 206.268C358.055 203.434 352.027 199.043 348.858 195.97C348.671 195.795 348.488 195.618 348.308 195.441ZM302.533 167.028C304.205 167.028 306.764 167.619 308.24 168.406C309.814 169.095 311.782 171.36 312.667 173.329C313.651 175.298 314.438 177.956 314.438 179.334C314.438 180.712 313.75 183.075 312.963 184.748C312.175 186.324 310.503 188.391 309.224 189.179C308.043 189.966 305.288 190.655 303.123 190.655C300.958 190.655 298.203 189.966 296.924 189.179C295.743 188.391 294.071 186.324 293.283 184.748C292.496 183.075 291.906 180.22 291.906 178.251C292.004 175.494 292.988 173.722 295.743 170.867C298.498 168.012 300.27 167.028 302.533 167.028ZM303.123 180.115L302.889 180.225L301.339 182.553C301.568 182.656 301.712 182.709 301.751 182.723C301.771 182.73 301.788 182.736 301.801 182.74L301.804 182.741C301.825 182.744 302.079 182.78 302.533 182.78C303.14 182.779 303.948 182.709 304.858 182.473C305.579 182.286 306.194 182.037 306.685 181.792L303.123 180.115ZM302.243 180.53L299.854 181.654C300.127 181.855 300.535 182.131 301.078 182.423L302.243 180.53ZM306.013 178.754L303.421 179.975L306.868 181.699C306.87 181.698 306.872 181.696 306.874 181.695C307.092 181.243 307.293 180.718 307.436 180.147C307.598 179.496 307.632 179.01 307.639 178.813L306.013 178.754ZM298.729 178.495C298.712 178.707 298.695 178.991 298.695 179.334C298.695 179.882 298.733 180.294 298.759 180.522C298.763 180.56 298.768 180.597 298.772 180.631C298.831 180.714 298.887 180.787 298.954 180.862C299.027 180.945 299.218 181.15 299.566 181.432C299.603 181.461 299.649 181.495 299.702 181.536L302.477 180.148L302.638 179.888L299.757 178.531L298.729 178.495ZM303.92 178.679L303.172 179.801L305.314 178.729L303.92 178.679ZM300.595 178.561L302.781 179.655L303.393 178.661L300.595 178.561ZM298.75 178.251H299.162L298.772 178.068C298.765 178.122 298.757 178.184 298.75 178.251ZM302.835 174.912C302.811 174.914 302.793 174.916 302.781 174.917C302.77 174.92 302.754 174.925 302.733 174.932C302.687 174.946 302.591 174.976 302.451 175.03C302.317 175.081 302.091 175.173 301.795 175.318C301.536 175.445 301.127 175.661 300.628 175.984C299.951 176.435 299.552 176.806 299.437 176.914C299.338 177.008 299.273 177.076 299.24 177.112C299.206 177.148 299.188 177.169 299.183 177.175C299.182 177.177 299.18 177.177 299.163 177.202C299.157 177.212 299.046 177.375 298.882 177.704L299.975 178.251H303.645L305.175 175.763C304.718 175.481 304.348 175.298 304.121 175.192C303.885 175.082 303.709 175.012 303.608 174.975C303.528 174.945 303.47 174.925 303.431 174.913C303.425 174.913 303.418 174.913 303.41 174.912C303.362 174.909 303.265 174.904 303.123 174.904C302.981 174.904 302.884 174.909 302.835 174.912ZM305.657 176.073L304.205 178.251H306.271L307.364 177.704C307.276 177.527 307.206 177.405 307.169 177.343C307.148 177.307 307.132 177.281 307.12 177.263C307.096 177.236 307.055 177.193 306.996 177.135C306.924 177.065 306.793 176.938 306.6 176.776C306.415 176.62 306.098 176.367 305.657 176.073ZM307.084 178.251H307.622C307.595 178.19 307.565 178.119 307.529 178.042L307.084 178.251ZM303.478 174.919H303.48C303.48 174.919 303.479 174.918 303.477 174.918C303.477 174.918 303.473 174.917 303.471 174.917C303.474 174.918 303.478 174.919 303.478 174.919Z" fill="white"/>
<path d="M204.632 221.795C204.642 219.897 204.653 221.927 204.663 224.712C204.666 225.577 204.665 229.437 204.667 230.207C204.671 231.709 204.674 229.815 204.678 231.603C204.68 232.215 204.678 238.333 204.679 238.834C204.687 241.537 204.694 239.979 204.701 241.279C204.739 247.694 204.776 249.991 204.814 252.778C204.826 253.693 204.842 259.242 204.855 256.815C204.857 256.526 204.856 251.161 204.856 250.715C204.861 243.941 204.859 254.778 204.862 256.219C204.873 261.905 204.886 262.4 204.897 260.328C204.902 259.431 204.897 248.766 204.902 254.752C204.902 255.156 204.902 260.858 204.903 261.466C204.906 262.833 204.911 261.815 204.914 262.266C204.918 263.166 204.919 263.109 204.923 263.174C204.929 263.315 204.935 266.145 204.942 264.854C204.943 264.562 204.941 258.719 204.943 257.723C204.946 256.73 204.951 257.225 204.953 258.602C204.955 259.981 204.954 264.575 204.954 265.628C204.957 274.515 204.964 262.206 204.965 261.902C204.98 256.716 204.993 263.723 205.007 263.707C205.018 263.677 205.029 261.362 205.04 261.68C205.052 262.082 205.061 265.246 205.073 264.703C205.074 264.653 205.074 257.78 205.075 257.704C205.091 256.905 205.107 257.654 205.123 262.293C205.125 262.764 205.122 268.797 205.124 269.63C205.134 274.588 205.15 286.5 205.156 260.23C205.163 261.256 205.171 262.316 205.177 267.611C205.181 271.019 205.177 277.592 205.182 274.788C205.183 274.162 205.181 268.408 205.183 267.905C205.189 265.798 205.197 267.668 205.204 264.694C205.205 264.073 205.204 258.918 205.205 257.989C205.208 250.468 205.213 262.897 205.214 263.804C205.223 270.542 205.23 267.891 205.238 268.056C205.24 268.095 205.239 261.168 205.24 260.959C205.25 259.966 205.26 260.562 205.269 263.636C205.271 264.338 205.269 270.237 205.27 270.875C205.275 273.61 205.276 262.465 205.28 264.872C205.281 265.365 205.281 270.418 205.281 270.973C205.283 279.683 205.286 267.341 205.287 267.068C205.295 263.346 205.3 276.229 205.308 274.405C205.309 274.166 205.307 267.782 205.31 267.522C205.328 265.758 205.347 267.513 205.364 272.626C205.367 273.413 205.365 278.214 205.365 278.807C205.368 288.055 205.37 275.669 205.371 275.197C205.378 271.837 205.384 282.23 205.389 267.468C205.42 272.591 205.45 264.302 205.48 277.527C205.48 277.68 205.479 283.784 205.48 284.063C205.489 287.49 205.487 278.003 205.493 266.401C205.495 263.49 205.499 277.494 205.5 278.523C205.501 282.306 205.5 291.384 205.501 292.12C205.505 297.864 205.504 267.938 205.509 267.834C205.51 267.9 205.509 273.412 205.509 273.961C205.511 275.686 205.513 273.49 205.514 275.392C205.518 279.795 205.518 294.387 205.523 285.895C205.524 284.789 205.523 267.761 205.528 268.562C205.53 268.898 205.539 268.606 205.541 269.709C205.544 270.811 205.542 276.295 205.542 276.539C205.549 283.798 205.546 286.807 205.55 297.553C205.553 308.26 205.552 282.724 205.554 279.874C205.555 277.033 205.559 283.021 205.56 285.103C205.562 287.186 205.56 290.675 205.561 291.853C205.568 299.554 205.565 279.179 205.567 275.126C205.573 265.53 205.576 284.463 205.581 286.321C205.583 286.822 205.582 282.51 205.583 282.107C205.588 280.566 205.59 286.475 205.596 281.057C205.597 280.171 205.602 268.791 205.605 277.144C205.605 278.349 205.603 283.069 205.606 284.126C205.609 285.712 205.615 286.743 205.618 285.166C205.62 283.999 205.617 276.224 205.62 278.638C205.621 279.716 205.619 284.266 205.622 285.913C205.624 287.559 205.631 287.359 205.633 287.202C205.636 287.038 205.634 281.146 205.634 280.746C205.636 278.47 205.641 275.626 205.641 275.633C205.662 274.913 205.681 284.854 205.702 281.564C205.703 281.315 205.702 275.096 205.703 274.992C205.708 272.386 205.704 288.923 205.707 294.459C205.707 281.838 205.709 284.122 205.713 282.738C205.715 282.061 205.714 277.173 205.714 276.673C205.717 269.25 205.718 278.837 205.719 280.799C205.721 288.014 205.723 279.489 205.725 284.312C205.726 289.032 205.723 295.998 205.727 296.104C205.728 291.585 205.725 279.779 205.728 277.865C205.738 270.626 205.758 279.891 205.767 280.853C205.775 281.814 205.777 280.981 205.782 282.613C205.791 285.566 205.788 276.805 205.794 272.795C205.799 268.787 205.797 290.341 205.798 294.975C205.798 299.606 205.8 294.839 205.801 297.384C205.802 299.929 205.799 303.08 205.802 304.036C205.804 304.991 205.81 296.751 205.811 291.906C205.813 281.642 205.81 270.87 205.816 274.654C205.816 274.878 205.816 280.545 205.817 281.119C205.828 285.482 205.838 285.753 205.849 289.612C205.85 290.152 205.849 296.455 205.85 296.842C205.858 300.875 205.855 290.244 205.86 278.434C205.859 294.133 205.862 303.745 205.869 303.858C205.873 303.777 205.872 297.005 205.875 292.218C205.875 290.76 205.879 295.472 205.879 292.245C205.881 281.693 205.878 269.88 205.885 274.583C205.885 274.806 205.884 280.583 205.885 280.933C205.892 283.222 205.893 272.184 205.901 270.848C205.906 269.801 205.916 276.53 205.923 277.625C205.922 295.295 205.929 291.248 205.931 279.065C205.936 279.563 205.941 278.875 205.945 280.559C205.946 281.133 205.945 286.249 205.945 286.802C205.947 295.473 205.95 283.62 205.95 283.156C205.96 278.639 205.969 287.622 205.978 278.843C205.979 278.522 205.979 266.254 205.981 275.214C205.981 275.832 205.979 281.417 205.983 281.849C205.988 282.285 205.996 288.86 206.002 283.174C206.004 281.805 206.008 271.841 206.011 279.625C206.011 280.682 206.01 284.203 206.011 286.162C206.013 292.403 206.014 279.998 206.016 290.537C206.018 301.076 206.023 308.969 206.029 301.698C206.029 301.49 206.031 291.974 206.033 291.809C206.036 292.06 206.04 293.997 206.044 294.05C206.045 294.016 206.044 287.913 206.045 287.798C206.055 284.377 206.063 289.82 206.074 292.182C206.077 291.78 206.082 284.653 206.086 290.884C206.09 298.091 206.086 328.066 206.097 320.924C206.101 318.067 206.106 280.038 206.113 299.742C206.127 294.859 206.141 304.943 206.155 297.972C206.156 297.663 206.158 287.049 206.159 287.193C206.161 287.429 206.162 292.388 206.164 292.716C206.171 294.21 206.177 289.967 206.183 290.626C206.185 290.865 206.185 295.991 206.188 296.281C206.191 296.563 206.193 289.81 206.196 293.071C206.199 295.558 206.203 309.362 206.207 310.973C206.207 297.355 206.21 297.635 206.215 294.04C206.216 293.342 206.214 288.603 206.215 288.029C206.217 285.587 206.218 289.514 206.22 286.855C206.22 286.215 206.22 281.567 206.22 280.782C206.223 273.933 206.228 284.392 206.229 286.215C206.232 293.132 206.233 287.084 206.236 289.807C206.238 292.531 206.235 295.936 206.238 297.589C206.244 301.007 206.251 300.257 206.257 300.47C206.259 300.407 206.258 294.317 206.258 294.183C206.263 292.61 206.268 299.211 206.27 286.846C206.274 318.819 206.273 283.745 206.28 290.146C206.281 290.665 206.282 305.783 206.28 308.003C206.278 310.22 206.274 305.495 206.271 308.955C206.271 309.771 206.267 323.935 206.267 324.793C206.262 331.499 206.261 308.905 206.261 307.664C206.258 294.273 206.253 309.536 206.252 310.591C206.246 315.423 206.242 312.246 206.237 315.695C206.234 317.857 206.233 331.84 206.231 332.271C206.223 330.774 206.22 310.128 206.212 328.03C206.21 331.848 206.212 348.023 206.206 335.304C206.206 334.5 206.201 322.867 206.198 330.227C206.198 331.155 206.198 335.866 206.197 336.264C206.195 338.826 206.193 335.071 206.19 336.869C206.187 338.668 206.183 341.349 206.179 339.75C206.177 338.793 206.174 330.011 206.173 327.861C206.171 321.666 206.168 331.822 206.166 324.322C206.164 316.783 206.168 305.333 206.163 300.462C206.163 312.71 206.162 325.281 206.162 337.599C206.151 337.167 206.141 333.207 206.13 333.748C206.129 333.85 206.131 340.412 206.129 340.666C206.123 341.712 206.118 337.019 206.112 338.888C206.107 340.36 206.102 347.332 206.097 349.088C206.094 335.073 206.086 339.83 206.081 338.549C206.079 338.105 206.08 334.365 206.078 333.143C206.073 328.627 206.076 341.01 206.074 342.96C206.069 351.279 206.068 323.246 206.061 323.939C206.061 324.008 206.056 338.91 206.055 339.84C206.051 345.906 206.055 334.642 206.052 333.535C206.048 331.517 206.045 327.949 206.04 332.325C206.038 333.623 206.034 342.934 206.031 335.731C206.031 334.787 206.032 329.851 206.031 329.559C206.025 324.738 206.025 340.257 206.022 345.513C206.018 350.768 206.014 340.055 206.013 336.967C206.01 328.979 206.015 333.553 206.015 332.769C206.017 323.442 206.013 325.047 206.01 324.259C206.008 339.189 206.003 341.101 205.999 327.149C205.996 320.61 205.999 312.987 205.992 315.775C205.989 317.034 205.99 327.512 205.987 330.369C205.981 336.885 205.972 327.113 205.966 328.652C205.964 329.211 205.966 334.947 205.965 335.527C205.961 337.082 205.957 332.78 205.952 334.984C205.952 335.191 205.953 341.195 205.951 341.271C205.941 341.968 205.933 338.122 205.923 338.016C205.918 337.999 205.909 341.275 205.903 340.613C205.894 339.492 205.883 330.765 205.876 332.885C205.871 334.242 205.872 340.247 205.87 344.339C205.866 352.27 205.858 338.064 205.857 335.864C205.857 334.443 205.847 333.08 205.846 334.228C205.845 334.855 205.845 340.545 205.845 340.764C205.833 345.856 205.822 347.302 205.81 344.642C205.81 344.527 205.811 338.162 205.81 337.972C205.803 335.143 205.798 342.927 205.793 347.549C205.787 352.169 205.783 350.622 205.779 339.697C205.775 341.072 205.769 336.242 205.766 333.312C205.763 330.382 205.762 342.769 205.762 343.014C205.753 350.852 205.747 343.762 205.737 342.658C205.732 342.113 205.723 343.909 205.718 345.264C205.714 346.355 205.711 343.453 205.707 345.308C205.707 345.556 205.708 351.065 205.707 351.284C205.703 357.883 205.705 344.399 205.704 341.991C205.701 333.234 205.699 328.57 205.694 332.69C205.693 333.636 205.689 353.048 205.687 354.184C205.684 355.624 205.685 348.666 205.682 350.351C205.682 350.488 205.681 354.782 205.68 354.592C205.671 353.77 205.662 351.273 205.653 351.702C205.651 351.745 205.652 358.555 205.651 358.728C205.642 359.535 205.634 359.283 205.626 356.096C205.624 355.29 205.624 350.521 205.624 349.106C205.621 340.54 205.618 352.986 205.617 353.223C205.602 359.204 205.591 347.941 205.576 353.303C205.575 353.618 205.568 366.96 205.565 355.517C205.565 354.752 205.562 343.05 205.559 351.053C205.559 351.554 205.562 357.581 205.558 356.967C205.555 356.355 205.55 360.378 205.546 353.757C205.545 351.671 205.541 339.992 205.537 349.302C205.537 349.957 205.531 370.999 205.529 356.478C205.528 354.085 205.529 338.719 205.524 346.598C205.523 348.126 205.525 351.554 205.523 353.694C205.519 356.994 205.514 352.878 205.509 359.724C205.509 360.938 205.505 371.367 205.503 363.45C205.502 362.209 205.503 357.079 205.502 356.504C205.495 353.75 205.487 357.182 205.481 353.632C205.478 352.383 205.48 344.09 205.478 341.867C205.475 339.645 205.47 337.507 205.467 341.298C205.465 345.091 205.467 358.311 205.463 359.368C205.446 363.962 205.429 356.208 205.411 355.073C205.409 355.234 205.411 359.638 205.408 359.724C205.394 360.078 205.37 364.508 205.358 354.46C205.348 346.408 205.36 340.279 205.353 337.002C205.349 335.44 205.346 350.81 205.345 351.294C205.337 356.208 205.331 349.401 205.323 351.489C205.321 351.922 205.323 358.152 205.322 358.452C205.318 359.532 205.312 356.753 205.308 357.26C205.306 357.503 205.307 362.258 205.305 361.894C205.301 361.07 205.296 359.07 205.292 354.61C205.292 354.204 205.294 348.286 205.291 348.065C205.286 347.726 205.28 343.327 205.274 347.869C205.272 349.236 205.272 360.11 205.268 352.6C205.267 351.03 205.269 337.976 205.264 349.256C205.264 351.131 205.256 366.349 205.253 356.54C205.252 353.958 205.249 343.276 205.247 344.952C205.247 345.22 205.248 351.06 205.246 351.631C205.24 353.537 205.234 352.915 205.228 354.744C205.226 355.246 205.228 361.287 205.226 361.84C205.219 363.368 205.211 361.829 205.204 359.938C205.201 359.229 205.203 354.223 205.203 353.677C205.2 344.816 205.198 356.772 205.197 357.474C205.191 361.65 205.186 356.032 205.181 357.519C205.179 357.916 205.18 363.614 205.18 364.125C205.177 369.095 205.179 358.852 205.177 357.723C205.171 354.526 205.165 354.984 205.16 355.713C205.158 355.99 205.16 362.593 205.158 362.774C205.147 363.913 205.136 363.281 205.125 359.635C205.123 358.936 205.125 353.845 205.124 352.681C205.121 344.543 205.116 355.643 205.115 356.701C205.111 361.527 205.11 357.026 205.106 357.865C205.087 362.05 205.063 359.067 205.044 357.225C205.021 354.853 205.002 350.009 204.979 351.267C204.978 351.344 204.979 358.115 204.978 358.266C204.962 359.898 204.947 357.252 204.931 359.208C204.93 359.356 204.931 365.779 204.929 366.234C204.925 367.21 204.919 366.861 204.915 364.811C204.913 363.823 204.916 358.311 204.914 357.429C204.909 355.363 204.903 354.906 204.898 355.935C204.896 356.387 204.899 362.957 204.896 363.032C204.877 363.684 204.857 364.814 204.838 356.309C204.836 355.725 204.836 342.375 204.833 344.935C204.833 348.64 204.833 352.998 204.833 356.958C204.805 359.091 204.777 354.465 204.748 353.748C204.747 353.807 204.749 360.732 204.746 360.773C204.733 360.671 204.721 362.624 204.707 355.598C204.706 354.91 204.706 342.468 204.702 344.348C204.702 344.691 204.695 346.351 204.694 349.053C204.693 349.462 204.695 355.264 204.693 355.437C204.681 356.319 204.669 354.993 204.658 351.445C204.656 350.861 204.658 344.675 204.657 344.205C204.648 340.923 204.638 345.624 204.629 340.008C204.623 336.226 204.626 325.535 204.623 315.01C204.622 313.526 204.619 313.29 204.619 307.166C204.618 291.769 204.619 274.908 204.619 258.496C204.619 254.961 204.614 258.768 204.617 250.226C204.617 249.654 204.621 246.819 204.622 243.921C204.622 241.917 204.621 235.689 204.623 233.124C204.624 230.562 204.624 235.782 204.626 232.769C204.628 229.718 204.628 222.635 204.632 221.795ZM204.634 311.729C204.633 318.649 204.638 319.208 204.637 312.014C204.637 311.724 204.634 311.442 204.634 311.729ZM206.228 302.115C206.227 297.936 206.222 302.761 206.224 307.959C206.226 312.139 206.23 307.314 206.228 302.115ZM205.58 298.176C205.58 304.087 205.582 302.419 205.581 296.957C205.581 296.633 205.58 296.342 205.58 298.176ZM206.294 288.394C206.3 292.585 206.303 276.561 206.308 285.148C206.309 286.709 206.303 301.675 206.302 301.795C206.302 301.783 206.302 301.771 206.302 301.76C206.291 300.592 206.285 275.075 206.296 277.953C206.299 278.474 206.292 286.093 206.294 288.394ZM205.746 293.766C205.744 300.683 205.75 301.237 205.749 294.04C205.749 293.752 205.746 293.48 205.746 293.766ZM205.466 282.862C205.463 294.174 205.476 295.369 205.473 283.485C205.473 282.871 205.466 282.297 205.466 282.862Z" fill="white"/>
<path d="M273.427 140.274C285.338 124.067 308.126 120.588 324.325 132.505C338.055 142.606 342.642 160.524 336.47 175.621L336.247 176.584C334.886 182.465 332.874 188.716 329.612 195.195L327.739 198.914L325.074 202.116C321.814 206.034 315.518 214.202 310.06 220.274C309.666 221.05 309.366 221.732 307.97 224.476C305.462 229.408 299.992 239.882 289.193 248.245C286.081 250.654 283.376 253.121 279.424 256.659C276.065 259.667 270.795 264.392 264.757 268.318C258.867 272.146 253.126 273.749 249.843 274.5C246.26 275.318 242.917 275.7 240.467 275.916C238.874 276.056 237.043 276.166 235.239 276.256C235.105 276.656 234.968 277.056 234.822 277.452C234.822 277.452 234.792 277.533 234.74 277.717C234.686 277.905 234.615 278.183 234.527 278.575C234.34 279.416 234.146 280.482 233.877 282.167C233.667 283.477 233.266 286.145 232.875 288.346C232.447 290.764 231.815 293.942 230.813 297.373C226.224 313.09 216.167 325.079 206.55 333.488C192.44 345.825 174.634 350.646 162.313 350.646C142.206 350.646 125.907 334.338 125.907 314.221C125.907 307.676 127.634 301.536 130.654 296.228C130.587 293.38 130.855 291.142 131.035 289.893C131.551 286.321 132.486 283.456 132.903 282.223L133.083 281.704C134.975 276.362 137.9 271.808 139.089 269.978C140.973 267.078 143.251 263.946 145.744 260.903C147.402 258.882 155.335 248.426 161.025 242.251C161.637 241.586 162.343 240.835 163.133 240.025C163.64 238.742 164.248 237.21 164.781 235.929L165.086 235.213C168.291 227.893 172.922 223.089 175.624 220.596C178.564 217.884 181.39 215.967 182.6 215.154L183.414 214.618C191.839 209.174 200.545 206.838 206.749 205.662C213.342 204.411 219.707 204.017 224.197 203.807C226.49 203.699 228.163 203.637 229.5 203.588C229.917 203.22 230.373 202.815 230.87 202.37C233.681 199.853 237.868 196.025 242.704 192.15C242.812 191.947 242.937 191.711 243.075 191.439C243.496 190.613 243.81 189.965 244.439 188.699C244.975 187.618 245.712 186.148 246.554 184.6C248.126 181.71 250.95 176.853 255.386 172.147L256.113 171.365C258.874 168.347 260.865 165.648 265.021 160.502C265.81 156.081 268.031 147.617 273.427 140.274Z" fill="white"/>
<path d="M271.552 157.156C273.184 137.421 290.251 122.666 309.898 123.792L310.836 123.857L311.621 123.927C328.104 125.506 343.928 133.8 354.91 147.955C360.864 155.629 363.157 163.879 364.135 167.794C365.209 172.098 365.901 176.573 366.328 179.319C367.287 179.647 368.346 180.016 369.445 180.421C375.988 182.83 381.518 185.62 384.732 187.202C386.87 188.253 388.002 188.771 388.572 189.022C388.799 189.058 389.07 189.102 389.39 189.153C390.279 189.295 392.741 189.684 395.503 190.461C397.95 191.149 403.799 192.964 409.673 197.618C412.342 199.731 417.442 204.111 421.247 211.031C425.744 219.207 429.154 232.952 421.88 247.107C415.987 258.575 406.328 263.437 402.536 265.118C397.939 267.156 393.643 268.099 390.89 268.593C380.873 270.388 367.916 270.009 358.598 269.57C349.611 269.145 339.99 268.402 332.133 267.794C331.331 269.215 330.426 270.696 329.407 272.181C321.599 283.552 319.537 285.681 317.669 289.855C317.717 289.747 317.486 290.229 316.441 294.533C315.656 297.762 314.106 304.539 311.238 311.371C310.518 313.086 309.675 316.273 307.836 330.218C305.939 344.598 307.543 358.528 307.59 375.868C307.649 398.215 293.639 411.834 287.736 417.164C285.478 419.203 280.474 423.332 280.266 423.511C279.834 423.881 279.538 424.146 279.352 424.318C275.235 429.942 272.535 434.557 267.075 442.752C262.823 449.132 255.575 457.639 245.646 464.098C238.476 468.762 228.426 472.075 216.987 470.097C206.463 468.278 199.304 462.742 195.381 458.906C188.373 452.054 184.716 443.713 183.306 440.447C181.458 436.166 179.842 431.493 178.904 428.847C177.6 425.171 177.287 424.508 177.419 424.772C174.188 418.3 171.699 411.719 169.658 406.171C167.46 400.196 165.663 395.087 163.263 389.145C157.384 374.589 155.865 360.44 154.338 351.347C153.293 345.123 152.23 341.38 151.305 338.042C150.959 336.795 149.943 333.269 149.371 329.676C148.712 325.544 148.039 318.119 150.863 309.577L151.239 308.482C159.367 285.734 181.069 278.838 187.513 276.918C192.382 275.469 197.064 274.554 200.378 273.951C202.811 273.508 204.226 273.269 205.31 273.08C205.798 272.731 206.473 272.219 207.342 271.493C210.787 268.615 214.89 264.446 220.223 258.707C220.913 257.964 221.197 257.511 221.277 257.378C221.353 257.252 221.388 257.176 221.441 257.036C221.559 256.719 221.616 256.533 222.108 254.836C222.284 254.232 222.747 252.622 223.365 250.907C223.924 249.356 225.277 245.773 227.865 241.875L228.201 241.371C229.148 239.963 231.208 237.024 234.032 234.235C234.504 233.769 240.702 227.163 251.166 224.542C256.323 223.251 263.669 222.694 271.474 225.265C271.707 224.717 271.926 224.212 272.112 223.796C273.689 220.288 280.048 205.633 295.659 198.184C295.398 196.791 295.168 195.457 294.969 194.244C280.142 188.65 270.181 173.742 271.552 157.156ZM293.493 185.455C293.399 185.078 293.392 185.152 293.519 185.564C293.51 185.526 293.502 185.49 293.493 185.455Z" fill="white"/>
<path d="M-162.366 461.207C-157.476 461.231 -148.437 462.285 -139.889 467.68C-135.37 469.874 -131.234 473.043 -127.813 477.158C-116.529 490.733 -116.774 510.082 -127.452 523.31C-127.634 523.593 -127.819 523.877 -128.012 524.16C-133.39 532.075 -141.655 537.842 -151.399 539.987C-160.24 541.933 -167.192 541.955 -169.34 541.955C-173.121 541.955 -176.768 541.377 -180.197 540.307C-182.922 539.608 -185.911 538.568 -188.913 537.013C-202.366 530.044 -210.606 515.859 -209.632 500.511C-208.78 487.087 -201.141 475.906 -190.816 469.732L-189.305 468.838C-184.952 466.319 -174.948 461.144 -162.366 461.207Z" fill="white"/>
<path d="M-218.527 512.263C-216.636 506.589 -210.507 503.522 -204.836 505.414C-203.973 505.701 -203.502 505.854 -202.976 505.986C-202.498 506.105 -201.885 506.228 -200.991 506.319C-198.851 506.538 -195.587 506.551 -191.337 506.551C-185.36 506.551 -180.514 511.399 -180.514 517.38C-180.514 523.361 -185.36 528.209 -191.337 528.209C-195.141 528.209 -199.696 528.222 -203.19 527.865C-207.208 527.455 -209.783 526.594 -211.681 525.961C-217.352 524.069 -220.417 517.936 -218.527 512.263Z" fill="white"/>
<path d="M151.394 589.177C155.317 585.371 161.378 585.135 165.569 588.401C166.67 588.023 167.852 587.815 169.082 587.815C175.059 587.815 179.905 592.663 179.905 598.644C179.905 601.114 179.944 602.457 180.035 603.257C180.965 605.217 182.125 607.107 183.563 609.305C184.421 609.771 185.467 610.285 186.749 610.872C188.604 611.722 191.613 613.014 193.984 614.17C198.252 616.249 206.175 620.372 209.128 628.749L209.264 629.151L209.366 629.468C209.935 631.31 211.284 636.842 207.228 641.924C203.468 646.636 197.724 647.392 194.321 647.561C185.87 647.979 177.724 648.264 171.409 648.016C168.307 647.894 165.132 647.628 162.399 647.018C161.044 646.715 159.334 646.23 157.648 645.366C156.083 644.564 153.37 642.841 151.73 639.476C150.517 636.987 150.113 634.377 149.933 633.21C149.652 631.393 149.635 630.999 149.485 630.33C147.825 622.93 147.399 614.396 147.401 607.959C147.402 604.671 147.516 601.725 147.678 599.484C147.757 598.385 147.856 597.328 147.981 596.431C148.04 596.01 148.132 595.416 148.278 594.791C148.347 594.496 148.482 593.953 148.714 593.319C148.767 593.175 149.464 591.05 151.394 589.177Z" fill="white"/>
<path d="M245.227 584.429C251.204 584.429 256.05 589.277 256.05 595.258C256.05 596.871 256.069 597.665 256.146 598.277C256.822 601.116 257.406 604.59 257.948 607.649C260.481 610.701 263.466 613.47 266.894 616.574C270.677 619.999 275.545 624.283 279.156 629.345C279.4 629.687 280.302 630.912 280.989 632.327C281.64 633.669 283.095 637.148 281.829 641.401C280.485 645.919 277.061 648.161 275.007 649.137C272.965 650.106 270.801 650.564 269.027 650.835C266.584 651.209 261.136 652.153 255.8 652.332C253.111 652.422 249.967 652.345 246.902 651.74C244.002 651.168 239.906 649.884 236.63 646.573C229.029 638.891 226.565 630.834 225.509 628.535C223.331 623.792 221.803 617.259 220.998 611.548C220.58 608.583 220.311 605.525 220.286 602.679C220.262 600.033 220.434 596.774 221.331 593.81C223.065 588.087 229.108 584.853 234.828 586.587C235.761 586.87 236.627 587.27 237.418 587.763C239.387 585.709 242.157 584.429 245.227 584.429Z" fill="white"/>
<path fill-rule="evenodd" clip-rule="evenodd" d="M227.358 57.7516C231.097 57.7516 232.573 58.4407 237.001 61.9848C239.756 64.3475 245.955 70.6481 250.678 76.0627C255.499 81.3789 262.092 89.6484 271.636 103.136L276.556 102.545C279.213 102.348 285.117 102.053 297.711 102.053L303.221 93.8817C306.272 89.4516 311.487 82.4618 314.734 78.4255C317.981 74.3891 322.507 69.1714 324.672 66.8087C326.935 64.446 329.985 61.7879 331.658 61.0003C333.232 60.1143 336.184 59.5236 338.053 59.5236C340.317 59.622 342.284 60.4096 343.76 61.8863C344.941 63.1661 346.319 65.7258 346.712 67.5963C347.204 69.4668 347.204 77.441 346.811 85.3168C346.417 93.1925 346.023 104.022 345.925 119.281L350.845 123.219C353.6 125.385 357.733 129.618 360.094 132.571C362.456 135.525 366.096 140.841 368.064 144.385C370.13 147.929 373.181 154.525 374.952 159.152C377.707 166.339 378.789 168.012 382.922 171.261C385.579 173.329 400.338 181.303 415.786 188.982C439.696 200.894 444.124 203.453 446.092 206.407C447.371 208.376 448.257 211.329 448.257 213.298C448.257 215.169 447.371 220.288 446.289 224.62C445.206 228.951 442.648 235.843 440.68 239.879C438.417 244.407 434.678 249.822 431.037 253.661C426.806 258.092 422.575 261.34 417.164 264.195C412.933 266.46 405.848 269.216 401.519 270.299C397.189 271.382 384.299 273.449 372.984 274.828C361.57 276.206 348.287 277.781 343.465 278.47C336.184 279.356 334.118 280.045 332.051 282.113C330.182 283.983 329.198 286.543 328.214 291.564C327.525 295.797 326.738 314.403 326.246 339.803C325.754 362.544 324.868 385.089 324.278 390.011C323.589 394.835 322.015 403.104 320.736 408.224C319.457 413.343 316.898 420.628 315.029 424.467C313.258 428.208 310.699 432.442 309.322 433.82C307.944 435.198 305.583 436.872 304.009 437.561C302.336 438.348 299.679 438.644 297.711 438.348C295.842 438.053 293.185 436.675 289.348 432.835L285.018 440.022C282.755 443.861 279.508 448.685 275.277 454.002L273.211 484.028C272.03 500.567 270.259 528.428 269.176 546.05C268.094 563.672 266.913 585.625 265.733 611.714L270.16 613.978C272.62 615.258 276.851 618.507 279.606 621.263C282.558 624.315 285.904 629.041 287.872 633.175C289.938 637.507 291.316 642.331 291.709 646.072C292.299 651.979 292.201 652.176 288.856 655.621C286.396 658.083 284.231 659.264 280.984 659.756C278.524 660.052 266.126 660.248 253.433 660.052C233.656 659.756 229.818 659.461 227.161 658.083C225.39 657.098 223.226 654.932 222.439 653.357C221.651 651.684 218.503 637.212 215.551 621.066C212.599 605.02 207.286 576.273 203.743 557.371C200.201 538.371 197.151 522.718 196.856 522.422C196.659 522.127 196.265 523.21 195.97 524.884C195.675 526.459 194.789 538.469 194.002 551.464C193.117 564.459 192.231 583.263 191.149 611.517L195.97 614.667C198.627 616.439 202.661 619.688 204.924 622.051C207.187 624.414 210.434 629.336 212.205 633.175C214.272 637.606 215.551 642.233 215.846 645.974C216.338 651.388 216.141 652.176 213.484 655.129C211.713 657.197 209.155 658.673 206.695 659.264C204.53 659.756 192.133 660.248 179.144 660.248C165.861 660.248 154.053 659.855 152.086 659.264C150.216 658.673 147.559 657.295 146.28 656.015C145.001 654.834 143.623 652.766 143.033 651.388C142.541 650.01 140.18 636.523 137.818 621.362C135.457 606.201 131.914 583.558 130.045 571.154C128.175 558.651 125.027 538.272 123.157 525.868C121.288 513.365 119.025 498.106 118.041 491.904C117.155 485.702 116.171 480.287 115.778 479.893C115.482 479.499 103.675 477.432 89.6043 475.266C75.5337 473.002 55.5594 469.655 45.3262 467.784C34.9947 465.815 26.4342 464.634 26.0406 465.028C25.7454 465.421 24.4663 468.473 23.2856 471.722C22.0064 474.971 18.5626 482.453 15.7091 488.458C12.8556 494.365 8.03421 503.521 4.98394 508.64C1.83528 513.759 -4.46203 523.112 -9.18502 529.314C-13.8096 535.516 -21.9765 545.065 -36.9326 560.325L-34.8663 570.661C-33.784 576.371 -31.7176 587.89 -30.3401 596.258C-28.9626 604.626 -27.7818 611.517 -27.6834 611.616C-27.585 611.616 -24.6332 612.698 -21.0909 613.978C-17.5487 615.16 -12.3337 617.818 -9.38183 619.787C-6.42995 621.756 -2.59251 625.3 -0.821389 627.761C0.851339 630.222 3.31122 634.652 4.49197 637.606C5.67272 640.559 6.75508 644.891 6.75508 647.155C6.85347 649.912 6.26308 652.176 4.88554 654.046C3.80319 655.523 1.3433 657.59 -0.526216 658.476C-3.47809 660.052 -7.02032 660.248 -28.1754 660.248C-47.2642 660.248 -53.3647 659.953 -56.2182 658.772C-58.3829 657.984 -61.0396 655.818 -62.6139 653.652C-64.0898 651.585 -67.3369 644.595 -69.7968 638.098C-72.3551 631.6 -79.538 613.191 -85.7369 597.242C-92.0342 581.294 -98.2332 565.542 -99.5123 562.293C-100.791 559.045 -101.775 555.698 -101.775 554.91C-101.775 554.122 -99.5123 549.003 -96.6588 543.589C-93.9037 538.174 -89.6727 527.739 -87.3112 520.453C-84.9497 513.168 -83.277 507.065 -83.5722 506.868C-83.8674 506.769 -87.0161 509.23 -90.6567 512.479C-94.3957 515.629 -100.004 519.961 -103.251 522.127C-106.498 524.194 -111.221 527.148 -113.78 528.625C-116.633 530.2 -118.896 532.366 -119.585 534.039C-120.077 535.516 -121.75 540.635 -123.029 545.557C-124.406 550.381 -126.67 559.537 -127.949 565.739C-129.326 571.941 -131.294 583.066 -132.278 590.351C-133.36 597.636 -134.246 605.709 -134.246 608.367C-134.246 612.6 -134.049 612.994 -131.491 613.584C-130.015 613.88 -126.571 615.357 -123.914 616.932C-121.159 618.408 -117.027 621.854 -114.567 624.512C-112.205 627.072 -109.155 631.699 -107.778 634.652C-105.908 638.688 -105.318 641.74 -105.219 646.564C-105.219 651.782 -105.613 653.652 -107.187 655.326C-108.27 656.606 -110.631 658.181 -112.304 658.87C-114.764 659.953 -121.75 660.248 -140.838 660.248C-163.666 660.248 -166.618 660.052 -169.668 658.476C-171.538 657.393 -173.998 655.326 -175.08 653.751C-176.261 652.176 -177.442 649.124 -177.835 646.958C-178.13 644.792 -181.181 621.756 -184.428 595.766C-187.675 569.775 -190.528 548.019 -190.725 547.526C-190.922 546.936 -194.956 545.951 -199.778 545.164C-204.599 544.475 -213.848 542.506 -220.342 540.93C-226.836 539.355 -236.086 536.107 -241.005 533.842C-246.614 531.184 -251.042 528.329 -253.01 526.065C-255.371 523.407 -256.257 521.438 -256.257 518.977C-256.257 516.811 -255.371 514.547 -253.895 512.775C-252.714 511.298 -246.22 507.261 -239.628 503.717C-231.264 499.287 -225.459 495.349 -220.637 490.919C-216.8 487.375 -211.191 481.173 -208.141 477.137C-204.993 473.1 -200.073 464.831 -197.121 458.924C-193.972 452.722 -189.446 441.105 -186.494 431.851C-183.641 422.892 -178.819 408.027 -175.867 398.871C-172.817 389.617 -168.389 377.508 -166.028 371.798C-163.568 366.088 -159.239 357.228 -156.385 352.109C-153.433 346.989 -148.809 339.409 -145.955 335.373C-143.102 331.336 -136.509 323.756 -131.393 318.637C-126.178 313.517 -118.404 306.823 -114.075 303.771C-109.745 300.719 -103.35 296.683 -99.8075 294.714C-96.2652 292.745 -89.8695 289.693 -85.5401 287.823C-81.2107 285.952 -72.8471 282.999 -66.8449 281.325C-60.9412 279.652 -49.6257 277.19 -41.754 275.911C-33.8824 274.532 -19.3198 272.76 -9.28342 271.973C0.75294 271.087 19.3497 269.807 32.0428 268.921C44.7358 268.133 62.4471 266.755 71.4011 265.869C80.3551 265.081 91.5722 263.605 96.492 262.62C101.313 261.537 107.807 259.864 110.759 258.781C113.711 257.599 119.025 254.843 122.567 252.48C126.109 250.216 132.702 244.506 137.326 239.879C141.951 235.252 149.33 227.081 153.66 221.666C158.088 216.252 164.68 207.588 168.321 202.469C172.06 197.35 181.407 183.567 203.251 150.784V131.784C203.251 120.561 203.842 108.353 204.727 101.856C205.514 95.7522 207.089 87.4826 208.171 83.5447C209.253 79.7053 211.418 73.7 212.993 70.2543C214.567 66.9071 217.519 62.6739 219.388 60.9019C222.34 58.3422 223.816 57.7516 227.358 57.7516ZM310.995 133.064C312.372 133.851 315.521 137.297 317.981 140.644C320.441 144.09 323.786 149.307 325.262 152.261C326.738 155.214 328.903 160.727 330.083 164.567C331.264 168.308 332.543 175.396 332.839 180.318C333.134 185.536 332.937 192.624 332.248 197.547C331.559 202.174 329.788 208.966 328.312 212.806C326.836 216.547 323.884 222.355 321.818 225.506C319.653 228.754 315.029 234.267 311.487 237.811C307.944 241.356 298.794 249.034 291.316 254.843C283.739 260.553 274.195 268.822 270.16 273.056C266.126 277.289 260.714 283.491 258.058 286.838C255.106 290.776 252.744 293.04 251.465 293.04C250.383 293.04 247.825 292.351 245.758 291.465C243.79 290.579 238.379 287.33 233.754 284.18C229.129 281.03 222.045 275.32 218.011 271.579C213.976 267.838 208.368 261.734 205.514 257.993C202.759 254.252 198.922 247.853 196.954 243.817C195.084 239.78 192.821 233.086 191.936 229.05C191.05 225.013 190.066 221.075 189.87 220.386C189.673 219.796 187.213 221.961 184.261 225.506C181.506 228.951 177.373 233.874 175.209 236.532C173.044 239.19 168.616 244.407 165.369 248.247C162.122 251.988 158.481 256.713 157.301 258.584C156.12 260.454 153.955 265.377 152.578 269.413C151.2 273.449 149.626 280.538 149.232 285.165C148.642 290.087 148.642 296.781 149.232 301.408C149.724 305.74 151.003 312.631 151.987 316.668C153.07 320.704 155.234 327.103 156.809 330.943C158.383 334.684 162.024 342.658 164.975 348.466L170.289 359.098C177.865 348.761 181.309 344.331 182.785 342.559C184.359 340.787 186.327 339.311 187.213 339.311C188.197 339.311 190.165 341.181 191.542 343.544C193.018 345.808 196.265 351.912 198.824 357.031C201.382 362.15 205.514 371.207 207.974 377.213C210.336 383.12 213.485 391.094 214.764 394.933C216.043 398.674 218.404 406.944 219.979 413.146C221.455 419.348 223.422 428.701 224.308 433.82C225.194 438.939 226.178 446.815 226.571 451.245C227.26 458.825 227.555 459.318 229.326 458.825C230.409 458.432 232.868 457.25 234.738 456.167C236.607 455.084 241.035 451.934 244.479 449.178C248.021 446.421 253.236 441.302 256.188 437.758C259.042 434.214 263.666 426.929 266.323 421.514C268.98 416.099 272.325 407.042 273.899 401.332C275.375 395.622 277.343 389.814 278.327 388.239C279.213 386.762 281.673 384.892 283.641 384.006C286.002 383.021 288.757 382.726 291.02 383.021C293.579 383.415 295.448 384.498 296.924 386.565C298.203 388.14 299.482 389.223 299.876 389.026C300.368 388.731 300.958 385.778 301.253 382.43C301.549 378.985 301.942 359.197 302.041 338.326C302.237 307.217 302.631 298.849 304.009 291.564C304.993 286.641 307.157 279.553 308.928 275.812C310.699 271.973 313.454 267.444 315.029 265.574C316.603 263.703 319.555 261.143 321.523 259.864C323.589 258.682 327.919 256.713 331.166 255.63C334.806 254.449 343.564 253.071 353.994 252.086C363.341 251.2 377.018 249.527 384.299 248.345C393.155 246.869 399.649 245.097 403.88 243.226C407.324 241.651 411.457 238.894 412.933 237.122C414.507 235.449 415.786 233.48 415.786 232.988C415.786 232.397 414.605 231.019 413.129 229.739C411.653 228.557 409.686 225.801 408.702 223.635C407.816 221.469 406.93 218.22 406.93 216.448C406.93 213.889 406.242 212.904 403.191 210.935C401.224 209.656 394.926 206.308 389.219 203.453C383.512 200.598 375.345 195.971 371.016 193.116C366.687 190.261 361.57 186.422 359.701 184.552C357.044 182.09 355.47 179.039 353.01 171.95C351.337 166.831 348.385 160.137 346.712 157.183C344.941 154.23 340.612 148.914 337.07 145.37C332.248 140.447 328.607 137.789 322.31 134.836C317.686 132.571 312.766 130.504 311.29 130.209C309.715 129.815 308.535 130.012 308.535 130.602C308.535 131.095 309.617 132.276 310.995 133.064ZM291.906 178.251C291.906 180.22 292.496 183.075 293.283 184.748C294.071 186.324 295.743 188.391 296.924 189.179C298.203 189.966 300.958 190.655 303.123 190.655C305.288 190.655 308.043 189.966 309.224 189.179C310.503 188.391 312.175 186.324 312.963 184.748C313.75 183.075 314.438 180.712 314.438 179.334C314.438 177.956 313.651 175.298 312.667 173.329C311.782 171.36 309.814 169.095 308.24 168.406C306.764 167.619 304.205 167.028 302.533 167.028C300.27 167.028 298.498 168.012 295.743 170.867C292.988 173.722 292.004 175.494 291.906 178.251ZM-184.526 489.836C-189.052 495.546 -195.94 502.831 -199.679 506.08C-203.517 509.427 -208.141 513.267 -210.011 514.645L-213.455 517.303C-207.354 518.878 -201.844 519.863 -197.219 520.453C-192.595 520.946 -187.183 521.438 -185.215 521.438C-181.476 521.438 -181.476 521.339 -178.622 514.251C-177.048 510.412 -174.785 504.308 -173.604 500.764C-172.424 497.22 -170.357 489.049 -169.078 482.551C-167.799 476.054 -166.52 469.753 -166.323 468.473C-166.225 467.292 -166.323 466.307 -166.717 466.307C-167.11 466.307 -169.472 469.261 -171.833 472.903C-174.293 476.644 -180 484.225 -184.526 489.836ZM147.559 602.361C147.953 604.134 149.33 612.502 150.708 620.87C151.987 629.238 153.561 638.492 154.053 641.347L155.037 646.466H203.743C202.563 641.544 201.382 638.59 200.496 636.72C199.611 634.849 196.856 631.502 194.297 629.336C191.837 627.072 187.41 624.414 184.458 623.232C179.341 621.263 179.144 620.968 178.948 617.325C178.751 615.258 178.456 610.237 178.16 606.398L177.668 599.211H146.871L147.559 602.361ZM229.129 623.823L233.262 645.875C273.899 646.367 279.016 646.17 279.016 645.186C279.016 644.497 278.426 642.233 277.737 640.067C277.147 637.999 274.785 634.258 272.62 631.797C270.259 629.139 266.323 626.284 262.781 624.611C259.534 623.035 256.09 621.854 255.204 621.854C253.63 621.854 253.335 620.377 252.941 610.533L252.449 599.211C228.244 599.211 224.898 599.507 224.997 600.393C224.997 601.082 226.866 611.616 229.129 623.823Z" fill="black"/>
</g>
</svg>
