<svg width="74" height="74" viewBox="0 0 74 74" fill="none" xmlns="http://www.w3.org/2000/svg">
<path d="M39.7695 50.7297L41.0881 52.0482C43.484 54.4442 47.8008 54.0122 50.7297 51.0833C53.6586 48.1543 54.0907 43.8376 51.6947 41.4416L50.3761 40.1231M9.71751 20.6777L3 13.9602M20.6777 9.71751L13.9602 3M70.7184 62.59V57.8252C70.7184 55.5552 68.8782 53.715 66.6082 53.715C64.3382 53.715 62.498 55.5552 62.498 57.8252V65.8893C62.498 68.2093 60.6173 70.09 58.2974 70.09C55.9774 70.09 54.0967 68.2093 54.0967 65.8894V57.6818C54.0967 55.1016 53.3326 52.5471 51.5858 50.6482M15.7128 45.0578L5.12129 34.4662C3.16867 32.5136 3.16867 29.3478 5.1213 27.3952L27.3328 5.18371C29.2854 3.23109 32.4512 3.23108 34.4038 5.1837L45.0104 15.7903C53.0966 23.8765 53.0966 36.9867 45.0104 45.0729C36.9243 53.159 23.814 53.159 15.7279 45.0729C15.7229 45.0678 15.7178 45.0628 15.7128 45.0578Z" stroke="white" stroke-width="6" stroke-linecap="round"/>
</svg>
