<svg width="61" height="73" viewBox="0 0 61 73" fill="none" xmlns="http://www.w3.org/2000/svg">
<path d="M44.1872 12.3811H41.1872H44.1872ZM48.1772 16.1841V13.1841L48.174 13.1841L48.1772 16.1841ZM56.4654 14.7029L58.5407 12.5366L56.4654 14.7029ZM47.8178 6.43231L45.7473 8.60322L47.8178 6.43231ZM16 22.9319C14.3431 22.9319 13 24.275 13 25.9319C13 27.5888 14.3431 28.9319 16 28.9319V22.9319ZM47 28.9319C48.6569 28.9319 50 27.5888 50 25.9319C50 24.275 48.6569 22.9319 47 22.9319V28.9319ZM16 34.9319C14.3431 34.9319 13 36.275 13 37.9319C13 39.5888 14.3431 40.9319 16 40.9319V34.9319ZM47 40.9319C48.6569 40.9319 50 39.5888 50 37.9319C50 36.275 48.6569 34.9319 47 34.9319V40.9319ZM16 45.9319C14.3431 45.9319 13 47.275 13 48.9319C13 50.5888 14.3431 51.9319 16 51.9319V45.9319ZM47 51.9319C48.6569 51.9319 50 50.5888 50 48.9319C50 47.275 48.6569 45.9319 47 45.9319V51.9319ZM6.98551 6H39.1872V0H6.98551V6ZM55 18.3066V66.1289H61V18.3066H55ZM54.0145 66.9319H6.98551V72.9319H54.0145V66.9319ZM6 66.1289V6.80295H0V66.1289H6ZM6.98551 66.9319C6.30712 66.9319 6 66.4414 6 66.1289H0C0 70.0171 3.26162 72.9319 6.98551 72.9319V66.9319ZM55 66.1289C55 66.4414 54.6929 66.9319 54.0145 66.9319V72.9319C57.7384 72.9319 61 70.0171 61 66.1289H55ZM45.7473 8.60322C48.5594 11.2854 52.3169 14.8832 54.39 16.8692L58.5407 12.5366C56.4675 10.5504 52.7058 6.94858 49.8884 4.26141L45.7473 8.60322ZM6.98551 0C3.26163 0 0 2.91478 0 6.80295H6C6 6.4905 6.30712 6 6.98551 6V0ZM47.1872 12.3811V4.16556H41.1872V12.3811H47.1872ZM57.5288 13.1841H48.1772V19.1841H57.5288V13.1841ZM41.1872 12.3811C41.1872 16.2724 44.4538 19.1881 48.1804 19.1841L48.174 13.1841C47.4949 13.1848 47.1872 12.6938 47.1872 12.3811H41.1872ZM61 18.3066C61 16.1313 60.1192 14.0488 58.5407 12.5366L54.39 16.8692C54.7795 17.2424 55 17.7566 55 18.3066H61ZM39.1872 6C40.0812 6 41.3554 6.26366 42.6826 6.79009C44.0115 7.31719 45.1097 7.99514 45.7473 8.60322L49.8884 4.26141C48.5276 2.9636 46.6913 1.92539 44.8948 1.21281C43.0966 0.499557 41.0545 0 39.1872 0V6ZM16 28.9319H47V22.9319H16V28.9319ZM16 40.9319H47V34.9319H16V40.9319ZM16 51.9319H47V45.9319H16V51.9319Z" fill="white"/>
</svg>
