<svg width="58" height="58" viewBox="0 0 58 58" fill="none" xmlns="http://www.w3.org/2000/svg">
<path d="M29 4C34.4467 4 39 8.62328 39 14.5C39 20.3767 34.4467 25 29 25C23.5533 25 19 20.3767 19 14.5C19 8.62328 23.5533 4 29 4Z" stroke="white" stroke-width="4"/>
<path d="M29 31C38.7037 31 46 37.6339 46 45.168C46 47.083 45.5485 48.1805 44.9736 48.8672C44.3853 49.5699 43.4472 50.1072 41.9658 50.4648C40.4713 50.8256 38.6067 50.9605 36.3672 50.9922C34.0893 51.0245 31.7256 50.9521 29 50.9521C26.2744 50.9521 23.9107 51.0245 21.6328 50.9922C19.3933 50.9605 17.5287 50.8256 16.0342 50.4648C14.5528 50.1072 13.6147 49.5699 13.0264 48.8672C12.4515 48.1805 12 47.083 12 45.168C12 37.6339 19.2963 31 29 31Z" stroke="white" stroke-width="4"/>
</svg>
