<svg width="73" height="73" viewBox="0 0 73 73" fill="none" xmlns="http://www.w3.org/2000/svg">
<path d="M29.6164 3V0C27.9596 0 26.6164 1.34315 26.6164 3L29.6164 3ZM43.3836 3H46.3836C46.3836 1.34315 45.0404 0 43.3836 0V3ZM43.3836 70V73C45.0404 73 46.3836 71.6569 46.3836 70H43.3836ZM29.6164 70H26.6164C26.6164 71.6569 27.9596 73 29.6164 73V70ZM70 29.6164H73C73 27.9596 71.6569 26.6164 70 26.6164V29.6164ZM70 43.3836V46.3836C70.7956 46.3836 71.5587 46.0675 72.1213 45.5049C72.6839 44.9423 73 44.1792 73 43.3836H70ZM3 43.3836H0C0 45.0404 1.34315 46.3836 3 46.3836L3 43.3836ZM3 29.6164L3 26.6164C2.20435 26.6164 1.44129 26.9325 0.87868 27.4951C0.316071 28.0577 0 28.8208 0 29.6164H3ZM55.3207 7.94451L57.442 5.82319C56.2752 4.65638 54.3851 4.65094 53.2116 5.81103L55.3207 7.94451ZM65.0555 17.6793L67.189 19.7884C68.3491 18.6149 68.3436 16.7248 67.1768 15.558L65.0555 17.6793ZM17.6793 65.0555L15.558 67.1768C16.7253 68.3441 18.6164 68.349 19.7897 67.1877L17.6793 65.0555ZM7.94451 55.3207L5.81232 53.2103C4.65101 54.3836 4.65587 56.2747 5.82319 57.442L7.94451 55.3207ZM65.0555 55.3207L67.1768 57.442C68.3329 56.2859 68.3504 54.4169 67.2161 53.2394L65.0555 55.3207ZM55.3207 65.0555L53.1819 67.1592C53.7428 67.7295 54.5083 68.0522 55.3082 68.0555C56.1082 68.0588 56.8763 67.7425 57.442 67.1768L55.3207 65.0555ZM7.94452 17.6793L5.8232 15.558C5.26059 16.1206 4.94452 16.8837 4.94452 17.6793C4.94452 18.475 5.26059 19.238 5.8232 19.8007L7.94452 17.6793ZM17.6793 7.94451L19.8007 5.82319C18.6291 4.65161 16.7296 4.65161 15.558 5.82319L17.6793 7.94451ZM58.7042 43.3836V40.3836H56.5505L55.8617 42.4241L58.7042 43.3836ZM57.0929 47.0548L54.4623 45.6127L53.4018 47.5472L54.9323 49.1361L57.0929 47.0548ZM47.0548 56.6516L49.1936 54.5479L47.676 53.0049L45.7331 53.9584L47.0548 56.6516ZM43.3836 58.0747L42.5451 55.1943L40.3836 55.8235V58.0747H43.3836ZM29.6164 57.7864H32.6164V55.6327L30.5759 54.9439L29.6164 57.7864ZM26.4041 56.4199L27.786 53.7572L25.8467 52.7507L24.2937 54.2877L26.4041 56.4199ZM16.5801 46.5959L18.7123 48.7063L20.2493 47.1533L19.2428 45.214L16.5801 46.5959ZM15.2136 43.3836L18.0561 42.4241L17.3673 40.3836H15.2136L15.2136 43.3836ZM14.9253 29.6164L14.9253 32.6164H17.1765L17.8057 30.4549L14.9253 29.6164ZM16.3032 26.038L19.0022 27.3475L19.9343 25.4265L18.4245 23.9166L16.3032 26.038ZM25.7501 16.0153L23.6288 18.1366L25.2357 19.7435L27.2177 18.6318L25.7501 16.0153ZM29.6164 14.2958L30.5759 17.1383L32.6164 16.4495V14.2958H29.6164ZM43.3836 14.0075H40.3836V16.2587L42.5451 16.8879L43.3836 14.0075ZM47.5137 15.6623L46.1318 18.325L48.0699 19.3309L49.6228 17.7957L47.5137 15.6623ZM57.3377 25.4863L55.2043 23.3772L53.6691 24.9301L54.675 26.8682L57.3377 25.4863ZM58.9925 29.6164L56.1121 30.4549L56.7413 32.6164H58.9925V29.6164ZM29.6164 6H43.3836V0H29.6164V6ZM43.3836 67H29.6164V73H43.3836V67ZM67 29.6164V43.3836H73V29.6164H67ZM6 43.3836V29.6164H0V43.3836H6ZM53.1993 10.0658L62.9342 19.8007L67.1768 15.558L57.442 5.82319L53.1993 10.0658ZM19.8007 62.9342L10.0658 53.1993L5.82319 57.442L15.558 67.1768L19.8007 62.9342ZM62.9342 53.1993L53.1993 62.9342L57.442 67.1768L67.1768 57.442L62.9342 53.1993ZM10.0658 19.8007L19.8007 10.0658L15.558 5.82319L5.8232 15.558L10.0658 19.8007ZM55.8617 42.4241C55.4873 43.5335 55.0176 44.5996 54.4623 45.6127L59.7236 48.4969C60.4465 47.1782 61.0584 45.7893 61.5466 44.343L55.8617 42.4241ZM45.7331 53.9584C44.7158 54.4577 43.6502 54.8726 42.5451 55.1943L44.222 60.9552C45.6628 60.5358 47.0516 59.9949 48.3765 59.3447L45.7331 53.9584ZM30.5759 54.9439C29.611 54.6183 28.679 54.2206 27.786 53.7572L25.0222 59.0827C26.1848 59.6861 27.3992 60.2042 28.657 60.6288L30.5759 54.9439ZM19.2428 45.214C18.7794 44.321 18.3817 43.389 18.0561 42.4241L12.3712 44.343C12.7958 45.6008 13.3139 46.8152 13.9173 47.9778L19.2428 45.214ZM17.8057 30.4549C18.1189 29.379 18.5205 28.3404 19.0022 27.3475L13.6041 24.7284C12.9766 26.0216 12.4532 27.3752 12.0448 28.778L17.8057 30.4549ZM27.2177 18.6318C28.2813 18.0352 29.4044 17.5337 30.5759 17.1383L28.657 11.4534C27.1298 11.9689 25.6666 12.6224 24.2825 13.3988L27.2177 18.6318ZM42.5451 16.8879C43.7954 17.2519 44.9953 17.7352 46.1318 18.325L48.8956 12.9995C47.4159 12.2315 45.8523 11.6016 44.222 11.127L42.5451 16.8879ZM54.675 26.8682C55.2648 28.0047 55.7481 29.2046 56.1121 30.4549L61.873 28.778C61.3984 27.1477 60.7685 25.5841 60.0005 24.1044L54.675 26.8682ZM32.6164 14.2958V3H26.6164V14.2958H32.6164ZM40.3836 3V14.0075H46.3836V3H40.3836ZM15.558 10.0658L23.6288 18.1366L27.8714 13.8939L19.8007 5.82319L15.558 10.0658ZM18.4245 23.9166L10.0658 15.558L5.8232 19.8007L14.1818 28.1593L18.4245 23.9166ZM49.6228 17.7957L57.4298 10.078L53.2116 5.81103L45.4046 13.5288L49.6228 17.7957ZM62.922 15.5702L55.2043 23.3772L59.4712 27.5954L67.189 19.7884L62.922 15.5702ZM58.9925 32.6164L70 32.6164V26.6164L58.9925 26.6164V32.6164ZM70 40.3836L58.7042 40.3836V46.3836L70 46.3836V40.3836ZM54.9323 49.1361L62.8949 57.402L67.2161 53.2394L59.2535 44.9735L54.9323 49.1361ZM57.4595 62.9518L49.1936 54.5479L44.916 58.7553L53.1819 67.1592L57.4595 62.9518ZM40.3836 58.0747V70H46.3836V58.0747H40.3836ZM32.6164 70V57.7864H26.6164V70H32.6164ZM24.2937 54.2877L15.5689 62.9233L19.7897 67.1877L28.5145 58.5521L24.2937 54.2877ZM10.0767 57.4311L18.7123 48.7063L14.4479 44.4855L5.81232 53.2103L10.0767 57.4311ZM15.2136 40.3836L3 40.3836L3 46.3836L15.2136 46.3836L15.2136 40.3836ZM3 32.6164L14.9253 32.6164L14.9253 26.6164L3 26.6164L3 32.6164ZM43.0668 35.0646C43.8021 38.739 41.4432 42.1646 37.8294 42.7882L38.8498 48.7008C45.8317 47.4959 50.3398 40.8312 48.9502 33.8872L43.0668 35.0646ZM37.8294 42.7882C34.1526 43.4228 30.5121 40.9322 29.7649 37.1982L23.8815 38.3755C25.2592 45.26 31.9309 49.8949 38.8498 48.7008L37.8294 42.7882ZM29.7649 37.1982C29.0296 33.5238 31.3885 30.0982 35.0023 29.4745L33.9819 23.5619C27 24.7669 22.492 31.4316 23.8815 38.3755L29.7649 37.1982ZM35.0023 29.4745C38.6791 28.84 42.3196 31.3306 43.0668 35.0646L48.9502 33.8872C47.5725 27.0028 40.9008 22.3678 33.9819 23.5619L35.0023 29.4745Z" fill="white"/>
</svg>
