<svg width="826" height="942" viewBox="0 0 826 942" fill="none" xmlns="http://www.w3.org/2000/svg">
<path d="M208.627 899.713L226.69 914.029C213.473 931.428 192.547 942 167.656 942C124.702 942 91 907.421 91 864.253C91 821.305 124.702 786.286 167.656 786.286C192.107 786.286 212.812 796.858 226.249 813.596L208.187 827.692C198.274 816.46 184.397 808.751 167.656 808.751C137.478 808.751 114.349 833.639 114.349 864.253C114.349 895.088 137.478 919.535 167.656 919.535C184.397 919.535 199.155 912.047 208.627 899.713Z" fill="white"/>
<path d="M294.005 919.975C311.186 919.975 325.284 907.421 325.284 888.04C325.284 869.319 311.186 856.985 294.005 856.985C277.043 856.985 262.946 869.319 262.946 888.04C262.946 907.421 277.043 919.975 294.005 919.975ZM294.005 942C264.928 942 240.478 920.636 240.478 888.04C240.478 855.443 264.928 834.74 294.005 834.74C323.301 834.74 347.972 855.443 347.972 888.04C347.972 920.636 323.301 942 294.005 942Z" fill="white"/>
<path d="M373.142 939.798V781H395.83V939.798H373.142Z" fill="white"/>
<path d="M427.566 939.798V781H450.254V939.798H427.566Z" fill="white"/>
<path d="M504.457 836.943V939.798H481.989V836.943H504.457ZM478.024 795.316C478.024 787.167 485.073 781 493.223 781C501.814 781 508.202 787.167 508.202 795.316C508.202 803.465 501.814 809.632 493.223 809.632C485.073 809.632 478.024 803.465 478.024 795.316Z" fill="white"/>
<path d="M634 888.04C634 890.462 634 893.986 633.78 896.409H552.057C554.481 912.267 566.816 922.178 583.557 922.178C595.011 922.178 606.245 916.892 611.532 907.421L630.035 915.57C621.224 933.851 601.619 942 582.455 942C553.379 942 529.589 920.636 529.589 888.04C529.589 855.443 553.379 834.74 582.455 834.74C611.532 834.74 634 855.443 634 888.04ZM552.057 879.891H611.752C609.329 863.813 598.095 854.562 582.455 854.562C566.596 854.562 554.481 864.033 552.057 879.891Z" fill="white"/>
<path fill-rule="evenodd" clip-rule="evenodd" d="M560.421 17.6646C564.617 17.6646 566.274 18.4374 571.243 22.412C574.335 25.0616 581.292 32.1275 586.593 38.1997C592.003 44.1615 599.402 53.4354 610.114 68.5607L615.635 67.8983C618.617 67.6775 625.242 67.3463 639.377 67.3463L645.561 58.1828C648.984 53.2146 654.837 45.3759 658.481 40.8494C662.125 36.3228 667.205 30.4714 669.634 27.8217C672.174 25.1721 675.597 22.1911 677.475 21.3079C679.241 20.3143 682.554 19.6519 684.652 19.6519C687.192 19.7623 689.401 20.6455 691.057 22.3016C692.382 23.7368 693.928 26.6073 694.37 28.705C694.922 30.8026 694.922 39.7453 694.481 48.5776C694.039 57.4099 693.597 69.5543 693.487 86.6669L699.008 91.0831C702.1 93.512 706.738 98.2593 709.388 101.571C712.039 104.884 716.124 110.845 718.333 114.82C720.652 118.794 724.075 126.191 726.063 131.38C729.155 139.44 730.37 141.317 735.007 144.96C737.989 147.279 754.553 156.221 771.89 164.833C798.724 178.192 803.694 181.062 805.902 184.374C807.338 186.582 808.332 189.894 808.332 192.102C808.332 194.2 807.338 199.941 806.123 204.799C804.908 209.657 802.037 217.385 799.829 221.911C797.289 226.99 793.093 233.062 789.007 237.368C784.258 242.336 779.51 245.98 773.436 249.181C768.688 251.72 760.737 254.812 755.878 256.026C751.02 257.241 736.553 259.559 723.854 261.105C711.045 262.65 696.137 264.417 690.726 265.19C682.554 266.183 680.235 266.956 677.916 269.275C675.818 271.372 674.714 274.243 673.61 279.873C672.837 284.621 671.953 305.487 671.401 333.971C670.849 359.475 669.855 384.757 669.193 390.277C668.42 395.687 666.653 404.961 665.217 410.702C663.782 416.443 660.91 424.613 658.812 428.918C656.825 433.114 653.953 437.861 652.407 439.407C650.861 440.952 648.211 442.829 646.444 443.602C644.567 444.485 641.586 444.817 639.377 444.485C637.279 444.154 634.297 442.609 629.991 438.303L625.132 446.362C622.592 450.668 618.948 456.078 614.199 462.04L611.88 495.713C610.555 514.261 608.568 545.505 607.353 565.267C606.138 585.029 604.813 609.649 603.488 638.906L608.457 641.446C611.218 642.881 615.966 646.524 619.058 649.616C622.371 653.038 626.126 658.337 628.334 662.974C630.653 667.832 632.199 673.242 632.641 677.437C633.304 684.061 633.193 684.282 629.439 688.146C626.678 690.907 624.248 692.231 620.604 692.783C617.844 693.115 603.93 693.335 589.684 693.115C567.489 692.783 563.182 692.452 560.2 690.907C558.213 689.802 555.783 687.374 554.9 685.607C554.016 683.73 550.483 667.501 547.17 649.395C543.857 631.399 537.894 599.161 533.918 577.964C529.943 556.656 526.52 539.101 526.189 538.77C525.968 538.439 525.526 539.653 525.195 541.53C524.863 543.297 523.87 556.766 522.986 571.339C521.992 585.913 520.998 607 519.784 638.686L525.195 642.219C528.176 644.206 532.704 647.849 535.244 650.499C537.783 653.148 541.428 658.669 543.415 662.974C545.734 667.943 547.17 673.132 547.501 677.327C548.053 683.399 547.832 684.282 544.851 687.594C542.863 689.913 539.992 691.569 537.231 692.231C534.802 692.783 520.888 693.335 506.312 693.335C491.404 693.335 478.152 692.894 475.944 692.231C473.846 691.569 470.864 690.023 469.429 688.588C467.993 687.263 466.447 684.945 465.784 683.399C465.232 681.853 462.582 666.728 459.932 649.726C457.282 632.724 453.306 607.331 451.208 593.42C449.11 579.399 445.576 556.545 443.478 542.634C441.38 528.613 438.84 511.5 437.736 504.545C436.742 497.59 435.638 491.517 435.196 491.076C434.865 490.634 421.613 488.316 405.822 485.887C390.031 483.348 367.614 479.594 356.13 477.496C344.535 475.288 334.928 473.963 334.486 474.405C334.155 474.846 332.719 478.269 331.394 481.912C329.958 485.556 326.093 493.946 322.891 500.681C319.688 507.305 314.278 517.573 310.854 523.314C307.321 529.055 300.253 539.543 294.953 546.498C289.763 553.454 280.597 564.163 263.812 581.276L266.131 592.868C267.346 599.271 269.665 612.189 271.211 621.573C272.757 630.957 274.082 638.686 274.192 638.796C274.303 638.796 277.616 640.01 281.591 641.446C285.566 642.771 291.419 645.751 294.732 647.96C298.045 650.168 302.351 654.142 304.339 656.902C306.216 659.662 308.977 664.63 310.302 667.943C311.627 671.255 312.842 676.112 312.842 678.652C312.952 681.743 312.29 684.282 310.744 686.38C309.529 688.036 306.768 690.355 304.67 691.348C301.357 693.115 297.382 693.335 273.64 693.335C252.217 693.335 245.371 693.004 242.168 691.679C239.739 690.796 236.757 688.367 234.99 685.938C233.334 683.62 229.69 675.781 226.929 668.495C224.058 661.208 215.997 640.562 209.04 622.677C201.972 604.792 195.016 587.127 193.58 583.484C192.144 579.84 191.04 576.087 191.04 575.203C191.04 574.32 193.58 568.579 196.782 562.507C199.874 556.435 204.623 544.732 207.273 536.562C209.923 528.392 211.801 521.547 211.469 521.326C211.138 521.216 207.604 523.976 203.518 527.619C199.322 531.152 193.028 536.01 189.384 538.439C185.74 540.757 180.439 544.07 177.568 545.726C174.366 547.492 171.826 549.921 171.053 551.798C170.501 553.454 168.623 559.195 167.188 564.715C165.642 570.125 163.102 580.392 161.666 587.348C160.12 594.303 157.912 606.779 156.807 614.949C155.593 623.119 154.599 632.172 154.599 635.153C154.599 639.9 154.82 640.342 157.691 641.004C159.347 641.335 163.212 642.991 166.194 644.758C169.286 646.414 173.924 650.278 176.684 653.259C179.335 656.129 182.758 661.318 184.304 664.63C186.402 669.157 187.065 672.579 187.175 677.989C187.175 683.841 186.733 685.938 184.967 687.815C183.752 689.25 181.102 691.017 179.224 691.79C176.464 693.004 168.623 693.335 147.2 693.335C121.581 693.335 118.268 693.115 114.845 691.348C112.747 690.134 109.986 687.815 108.771 686.049C107.446 684.282 106.121 680.86 105.679 678.431C105.348 676.002 101.925 650.168 98.2807 621.021C94.6366 591.874 91.4342 567.475 91.2134 566.923C90.9925 566.261 86.465 565.157 81.054 564.273C75.6431 563.501 65.2628 561.293 57.9746 559.526C50.6864 557.76 40.3062 554.116 34.7848 551.577C28.4904 548.596 23.5211 545.394 21.3126 542.855C18.6623 539.874 17.6684 537.666 17.6684 534.906C17.6684 532.477 18.6623 529.938 20.3187 527.951C21.6439 526.295 28.9321 521.768 36.3308 517.793C45.7171 512.825 52.2324 508.409 57.6433 503.441C61.95 499.466 68.2444 492.511 71.6676 487.984C75.2013 483.458 80.7227 474.184 84.0356 467.56C87.5693 460.604 92.6489 447.577 95.9618 437.199C99.1642 427.152 104.575 410.481 107.888 400.214C111.311 389.836 116.28 376.256 118.931 369.852C121.691 363.449 126.55 353.513 129.753 347.772C133.066 342.031 138.256 333.53 141.458 329.003C144.66 324.477 152.059 315.975 157.801 310.234C163.654 304.493 172.378 296.986 177.237 293.564C182.095 290.141 189.273 285.614 193.249 283.406C197.224 281.198 204.402 277.776 209.261 275.678C214.12 273.58 223.506 270.268 230.242 268.391C236.868 266.515 249.567 263.755 258.401 262.319C267.235 260.774 283.579 258.786 294.842 257.903C306.106 256.909 326.977 255.474 341.222 254.481C355.467 253.597 375.344 252.052 385.393 251.058C395.442 250.175 408.031 248.519 413.552 247.415C418.963 246.2 426.251 244.323 429.564 243.109C432.877 241.784 438.84 238.693 442.816 236.043C446.791 233.504 454.19 227.1 459.38 221.911C464.57 216.723 472.852 207.559 477.711 201.487C482.68 195.415 490.079 185.699 494.164 179.958C498.361 174.217 508.851 158.761 533.366 121.996V100.688C533.366 88.1022 534.029 74.4121 535.023 67.1255C535.906 60.2804 537.673 51.0065 538.888 46.5904C540.102 42.2846 542.532 35.55 544.299 31.6859C546.066 27.9321 549.378 23.1848 551.476 21.1975C554.789 18.327 556.446 17.6646 560.421 17.6646ZM654.285 102.123C655.831 103.007 659.364 106.871 662.125 110.625C664.886 114.489 668.64 120.34 670.297 123.652C671.953 126.964 674.383 133.147 675.708 137.453C677.033 141.648 678.468 149.597 678.8 155.117C679.131 160.969 678.91 168.918 678.137 174.438C677.364 179.627 675.376 187.245 673.72 191.55C672.064 195.746 668.751 202.26 666.432 205.793C664.002 209.436 658.812 215.618 654.837 219.593C650.862 223.568 640.592 232.179 632.199 238.693C623.696 245.096 612.985 254.37 608.457 259.118C603.93 263.865 597.856 270.82 594.875 274.574C591.562 278.99 588.912 281.53 587.476 281.53C586.261 281.53 583.39 280.757 581.071 279.763C578.863 278.769 572.789 275.126 567.599 271.593C562.409 268.06 554.458 261.657 549.93 257.461C545.403 253.266 539.109 246.421 535.906 242.226C532.814 238.03 528.507 230.854 526.299 226.328C524.201 221.801 521.661 214.294 520.667 209.767C519.673 205.241 518.569 200.824 518.348 200.052C518.127 199.389 515.367 201.818 512.054 205.793C508.962 209.657 504.324 215.177 501.894 218.158C499.465 221.139 494.496 226.99 490.852 231.296C487.207 235.491 483.122 240.791 481.797 242.888C480.471 244.986 478.042 250.506 476.496 255.033C474.95 259.559 473.183 267.508 472.741 272.697C472.079 278.217 472.079 285.725 472.741 290.914C473.294 295.772 474.729 303.5 475.833 308.026C477.048 312.553 479.478 319.729 481.244 324.035C483.011 328.23 487.097 337.173 490.41 343.687L496.373 355.61C504.876 344.018 508.741 339.05 510.397 337.063C512.164 335.075 514.373 333.419 515.367 333.419C516.471 333.419 518.679 335.517 520.225 338.167C521.882 340.706 525.526 347.551 528.397 353.292C531.268 359.033 535.906 369.19 538.667 375.925C541.317 382.549 544.851 391.492 546.286 395.797C547.722 399.993 550.372 409.267 552.139 416.222C553.795 423.177 556.004 433.666 556.998 439.407C557.992 445.148 559.096 453.98 559.538 458.948C560.311 467.449 560.642 468.001 562.63 467.449C563.844 467.008 566.605 465.683 568.703 464.468C570.801 463.254 575.771 459.721 579.636 456.63C583.611 453.539 589.464 447.798 592.776 443.823C595.979 439.848 601.169 431.679 604.151 425.606C607.132 419.534 610.887 409.377 612.653 402.974C614.31 396.57 616.518 390.056 617.623 388.29C618.617 386.634 621.377 384.536 623.586 383.543C626.236 382.439 629.328 382.107 631.868 382.439C634.739 382.88 636.837 384.095 638.494 386.413C639.929 388.18 641.365 389.394 641.806 389.173C642.359 388.842 643.021 385.53 643.352 381.776C643.684 377.912 644.125 355.721 644.236 332.315C644.457 297.428 644.898 288.043 646.444 279.873C647.549 274.353 649.978 266.404 651.966 262.209C653.954 257.903 657.045 252.825 658.812 250.727C660.579 248.629 663.892 245.759 666.101 244.323C668.42 242.999 673.278 240.791 676.922 239.576C681.008 238.251 690.836 236.706 702.542 235.602C713.032 234.608 728.382 232.731 736.553 231.406C746.492 229.75 753.78 227.763 758.529 225.665C762.394 223.899 767.032 220.807 768.688 218.82C770.455 216.943 771.89 214.735 771.89 214.183C771.89 213.521 770.565 211.975 768.909 210.54C767.252 209.215 765.044 206.124 763.94 203.695C762.946 201.266 761.952 197.623 761.952 195.635C761.952 192.765 761.179 191.661 757.756 189.453C755.547 188.018 748.48 184.264 742.075 181.062C735.67 177.86 726.505 172.671 721.646 169.47C716.787 166.268 711.045 161.962 708.947 159.865C705.965 157.105 704.198 153.682 701.437 145.733C699.56 139.992 696.247 132.484 694.37 129.172C692.382 125.86 687.524 119.898 683.548 115.924C678.137 110.404 674.051 107.423 666.984 104.111C661.794 101.571 656.272 99.253 654.616 98.9217C652.849 98.4801 651.524 98.7009 651.524 99.3634C651.524 99.9154 652.739 101.24 654.285 102.123ZM632.862 152.799C632.862 155.007 633.524 158.209 634.408 160.085C635.291 161.852 637.168 164.17 638.494 165.054C639.929 165.937 643.021 166.71 645.451 166.71C647.88 166.71 650.972 165.937 652.297 165.054C653.733 164.17 655.61 161.852 656.493 160.085C657.377 158.209 658.15 155.559 658.15 154.013C658.15 152.468 657.266 149.487 656.162 147.279C655.168 145.07 652.96 142.531 651.193 141.758C649.536 140.875 646.665 140.213 644.788 140.213C642.248 140.213 640.26 141.317 637.168 144.518C634.076 147.72 632.972 149.707 632.862 152.799ZM98.1703 502.227C93.0906 508.63 85.3607 516.8 81.1644 520.443C76.8578 524.197 71.6676 528.503 69.5695 530.048L65.7045 533.029C72.5511 534.796 78.735 535.9 83.9251 536.562C89.1152 537.114 95.1888 537.666 97.3973 537.666C101.594 537.666 101.594 537.556 104.796 529.607C106.563 525.301 109.103 518.456 110.428 514.481C111.753 510.507 114.072 501.343 115.507 494.057C116.943 486.77 118.379 479.704 118.599 478.269C118.71 476.944 118.599 475.84 118.158 475.84C117.716 475.84 115.066 479.152 112.416 483.237C109.655 487.432 103.25 495.934 98.1703 502.227ZM470.864 628.418C471.306 630.405 472.852 639.79 474.398 649.174C475.833 658.558 477.6 668.936 478.152 672.138L479.257 677.879H533.918C532.593 672.359 531.268 669.047 530.274 666.949C529.281 664.851 526.189 661.097 523.317 658.669C520.557 656.129 515.587 653.148 512.275 651.824C506.532 649.616 506.311 649.284 506.091 645.199C505.87 642.881 505.539 637.25 505.207 632.945L504.655 624.885H470.091L470.864 628.418ZM562.409 652.486L567.047 677.216C612.653 677.769 618.396 677.548 618.396 676.444C618.396 675.671 617.733 673.132 616.96 670.703C616.298 668.384 613.647 664.189 611.218 661.429C608.568 658.448 604.151 655.246 600.175 653.369C596.531 651.603 592.666 650.278 591.672 650.278C589.905 650.278 589.574 648.622 589.132 637.582L588.58 624.885C561.415 624.885 557.66 625.216 557.771 626.21C557.771 626.983 559.869 638.796 562.409 652.486Z" fill="black"/>
<path d="M560.421 0C563.748 0 567.974 0.30683 572.691 2.39352C576.109 3.90564 579.043 6.06208 581.337 7.86842L582.28 8.61774L582.514 8.80534L582.742 9.00049C586.734 12.4219 594.29 20.1576 599.857 26.5303C604.738 31.928 610.755 39.3791 618.553 50.0396C621.279 49.9166 624.96 49.801 629.946 49.7367L630.915 48.3027L630.962 48.2316L631.011 48.1615C634.686 42.8279 640.801 34.6376 644.717 29.7734C648.602 24.9479 653.929 18.81 656.61 15.8856L656.742 15.7412L656.878 15.5999C658.553 13.8526 660.498 12.0127 662.414 10.3978C663.842 9.19382 666.408 7.11428 669.342 5.62369C672.236 4.09246 675.18 3.2893 677.125 2.85928C679.364 2.36446 682.026 1.98705 684.652 1.98705H685.036L685.42 2.0043C691.722 2.2783 698.334 4.5961 703.55 9.81127L703.8 10.0603L704.04 10.3202C706.09 12.5407 707.643 15.0475 708.696 17.0587C709.707 18.9887 710.887 21.6614 711.571 24.6716C712.124 26.9992 712.262 29.3714 712.323 30.4721C712.417 32.1568 712.459 34.0764 712.466 36.0483C712.482 40.0174 712.361 44.782 712.127 49.4596C711.774 56.5214 711.42 65.8184 711.245 78.2724C715.365 81.7448 720.195 86.8007 723.185 90.5364C726.349 94.4914 730.955 101.19 733.708 106.117C736.617 111.148 740.36 119.315 742.559 125.055L743.071 126.373C743.543 127.572 743.9 128.428 744.197 129.081C744.426 129.585 744.578 129.871 744.657 130.012C744.812 130.158 745.139 130.447 745.753 130.934C745.758 130.923 746.482 131.41 748.446 132.547C750.478 133.724 753.2 135.236 756.452 136.989C762.13 140.05 769.193 143.723 776.573 147.426L779.752 149.013L779.758 149.017L779.766 149.02C793.052 155.635 801.516 159.94 806.939 163.058C811.935 165.93 816.751 169.061 820.267 174.083L820.603 174.576L820.66 174.661L820.716 174.747C823.845 179.56 826 186.178 826 192.102C826 194.848 825.484 198.173 825.091 200.438C824.621 203.142 823.982 206.214 823.264 209.084C821.728 215.225 818.415 224.11 815.709 229.656L815.631 229.811C812.337 236.398 807.148 243.915 801.825 249.525L801.803 249.549L801.78 249.572C795.801 255.827 789.563 260.636 781.768 264.757L781.77 264.758C781.761 264.762 781.751 264.766 781.743 264.771C781.721 264.782 781.699 264.796 781.677 264.807L781.676 264.806C775.717 267.979 766.476 271.585 760.164 273.163C754.137 274.669 738.701 277.093 725.99 278.64L725.981 278.641L725.971 278.642C712.958 280.212 698.383 281.94 693.225 282.677L693.042 282.703L692.859 282.725C692.172 282.809 691.561 282.888 691.017 282.961C690.993 283.166 690.957 283.504 690.91 284.007C690.83 284.882 690.741 286.033 690.647 287.472C690.46 290.349 690.266 294.14 690.076 298.749C689.696 307.953 689.341 320.156 689.066 334.313V334.334L689.065 334.354C688.522 359.459 687.526 385.791 686.735 392.382L686.711 392.579L686.683 392.775C685.833 398.727 683.954 408.601 682.358 414.986C680.709 421.58 677.506 430.827 674.779 436.48L674.78 436.481C673.512 439.157 672.002 441.933 670.536 444.341C669.357 446.277 667.313 449.485 664.901 451.897C662.167 454.63 657.947 457.754 653.967 459.585C648.392 462.207 641.781 462.708 636.757 461.954L636.689 461.945L636.622 461.934C636.489 461.913 636.356 461.888 636.224 461.865C634.788 464.004 633.2 466.253 631.458 468.585L629.508 496.926L629.505 496.948L629.504 496.971C628.186 515.426 626.202 546.596 624.988 566.351C623.932 583.524 622.79 604.415 621.637 628.879C624.892 631.149 628.217 633.903 630.788 636.376L631.552 637.124L631.655 637.227L631.755 637.331C636.349 642.078 641.218 648.943 644.279 655.366L644.843 656.58C647.427 662.293 649.31 668.63 650.067 674.368L650.213 675.588L650.217 675.634L650.221 675.679C650.372 677.188 650.569 679.135 650.612 680.941C650.658 682.866 650.58 685.735 649.606 688.949C647.686 695.282 643.01 699.53 642.112 700.455L642.022 700.546L641.932 700.637C636.847 705.72 631.077 709.063 623.251 710.249L622.981 710.29L622.709 710.322C618.503 710.827 603.24 710.991 589.411 710.777C578.459 710.613 571.269 710.446 566.413 710.081C561.56 709.717 556.813 709.049 552.067 706.588L551.841 706.472L551.619 706.348C551.222 706.127 550.834 705.896 550.455 705.66C547.557 707.402 544.454 708.665 541.355 709.409L541.25 709.433L541.147 709.457C538.961 709.954 536.213 710.151 534.642 710.259C532.513 710.406 529.888 710.536 526.979 710.643C521.142 710.859 513.801 711 506.312 711C498.709 711 491.453 710.888 485.74 710.685C482.9 710.585 480.311 710.457 478.197 710.298C476.903 710.201 473.612 709.974 470.867 709.151L470.745 709.114L470.623 709.075C468.299 708.342 465.973 707.297 463.965 706.2C462.184 705.227 459.508 703.594 457.12 701.259C453.822 698.109 451.037 693.838 449.545 690.358L449.329 689.855L449.146 689.341C448.437 687.356 447.895 684.43 447.663 683.229C447.266 681.177 446.779 678.491 446.238 675.39C445.155 669.171 443.812 661.034 442.474 652.446C439.829 635.482 435.844 610.021 433.738 596.054L433.735 596.044L433.734 596.034C431.625 581.939 428.136 559.377 426.008 545.268L426.005 545.259L426.004 545.248C423.893 531.14 421.374 514.166 420.286 507.314L420.264 507.179L420.245 507.043C420.198 506.72 420.15 506.399 420.103 506.082C415.351 505.273 409.469 504.32 403.136 503.346L403.076 503.336L403.016 503.328C387.187 500.782 364.625 497.004 352.955 494.873L352.823 494.849C350.282 494.365 347.859 493.929 345.637 493.55C343.651 498.04 341.017 503.705 338.848 508.266L338.824 508.316L338.799 508.368C335.443 515.31 329.789 526.057 326.031 532.359L325.967 532.466L325.902 532.572C322.122 538.714 314.794 549.591 309.114 557.06L309.115 557.061C304.039 563.863 296.036 573.267 282.957 586.909L283.474 589.49L283.49 589.576C284.729 596.107 287.074 609.165 288.645 618.702C289.052 621.177 289.444 623.528 289.8 625.647C294.935 627.67 300.754 630.743 304.533 633.261C309.064 636.281 314.827 641.418 318.345 646.126L318.678 646.581L318.816 646.773L318.95 646.969C321.406 650.58 324.823 656.674 326.707 661.382C327.733 663.947 328.61 666.815 329.245 669.447C329.788 671.696 330.453 674.988 330.505 678.25C330.682 684.281 329.347 690.897 324.991 696.825C324.983 696.836 324.976 696.848 324.968 696.859L324.967 696.858C323.185 699.279 321.008 701.314 319.282 702.738C317.598 704.127 315.275 705.815 312.613 707.127C307.8 709.605 303.124 710.306 297.929 710.633C292.874 710.952 285.312 711 273.64 711C262.969 711 255.467 710.921 250.156 710.645C245.507 710.404 240.355 709.965 235.736 708.131C229.462 705.732 223.982 700.838 220.701 696.328L220.613 696.205C218.691 693.515 216.741 689.527 215.34 686.5C213.718 682.997 211.968 678.867 210.444 674.851C207.522 667.436 199.519 646.938 192.607 629.168L182.76 604.218C180.988 599.722 179.497 595.938 178.458 593.304C177.065 600 175.254 610.375 174.316 617.314L174.301 617.431L174.284 617.546C173.746 621.167 173.254 624.979 172.885 628.266C173.557 628.623 174.228 628.994 174.887 629.378C179.818 632.098 185.359 636.794 188.944 640.511L189.649 641.257L189.658 641.268L189.667 641.277C193.602 645.539 198.028 652.263 200.314 657.16L200.325 657.181L200.335 657.203C203.65 664.356 204.69 670.271 204.84 677.629L204.844 677.809V677.989C204.844 683.45 204.879 692.189 198.12 699.61C196.134 701.857 193.886 703.559 192.321 704.629C190.642 705.778 188.56 707.002 186.339 707.955L186.34 707.959C183.413 709.246 180.498 709.764 178.492 710.042C176.273 710.349 173.764 710.534 171.042 710.663C165.593 710.919 157.892 711 147.2 711C134.602 711 126.737 710.952 121.608 710.635C115.962 710.285 111.526 709.514 106.742 707.045L106.362 706.849L105.992 706.636C102.482 704.604 97.556 700.782 94.4028 696.328C91.1444 691.836 89.0661 685.826 88.2959 681.591L88.2258 681.206L88.1729 680.818C87.8307 678.309 84.3994 652.406 80.7493 623.212C78.9305 608.665 77.2224 595.312 75.9439 585.54C75.7449 584.018 75.5542 582.586 75.3778 581.252C68.9978 580.152 60.1116 578.22 53.812 576.693C45.4611 574.669 33.9984 570.659 27.401 567.625L27.3104 567.584L27.2209 567.541C20.6922 564.449 12.897 560.016 8.10846 554.59L8.10739 554.591C8.08532 554.566 8.06363 554.541 8.0416 554.516C8.02129 554.492 8.00033 554.47 7.98013 554.447L7.98229 554.446C3.69056 549.58 0 543.404 0 534.906C0 527.881 2.75606 521.428 6.74537 516.642L6.74753 516.643C8.69026 514.307 11.0538 512.59 11.9184 511.958C13.347 510.915 14.9808 509.835 16.6256 508.798C19.9443 506.707 23.9779 504.376 27.9682 502.232L28.0157 502.208L28.0642 502.182C36.582 497.673 41.7108 494.08 45.6625 490.457C49.1979 487.193 54.7843 481.021 57.5745 477.331L57.6565 477.222L57.7395 477.116C60.276 473.866 65.197 465.729 68.2323 459.66L68.2571 459.609L68.283 459.56C71.2327 453.754 75.979 441.698 79.1295 431.828C82.3445 421.742 87.7799 404.996 91.0727 394.79L91.09 394.735L91.1083 394.681C94.6191 384.038 99.7384 370.025 102.605 363.099L102.655 362.979L102.705 362.861C105.679 355.963 110.799 345.483 114.322 339.168L114.384 339.056L114.448 338.945C117.829 333.085 123.347 324.013 127.033 318.803C131.008 313.184 139.145 303.905 145.307 297.744L145.368 297.685L145.427 297.625C151.69 291.482 161.162 283.278 167.061 279.123C172.35 275.397 180.061 270.524 184.668 267.965C189.325 265.378 197.074 261.698 202.257 259.461C207.924 257.014 218.058 253.451 225.472 251.383C232.855 249.296 246.126 246.423 255.466 244.9C264.932 243.251 281.635 241.228 293.28 240.307C304.751 239.295 325.855 237.845 339.993 236.859L340.06 236.854L340.128 236.849C354.23 235.975 373.88 234.445 383.654 233.479L383.75 233.469L383.846 233.462C393.459 232.617 405.131 231.06 409.886 230.131C415.056 228.965 420.967 227.402 423.251 226.605C425.494 225.668 430.127 223.27 433.015 221.345L433.158 221.25L433.303 221.157C435.661 219.651 441.993 214.314 446.886 209.421C451.655 204.653 459.496 195.973 463.914 190.452L463.975 190.376L464.036 190.301C468.752 184.538 475.91 175.138 479.768 169.717L479.899 169.535C483.651 164.403 493.204 150.355 515.698 116.643V100.688C515.698 88.6125 516.282 75.0139 517.306 66.3943L517.516 64.7393C518.472 57.3825 520.359 47.3299 521.851 41.906L521.867 41.851L521.882 41.7949C523.315 36.7173 526.045 29.12 528.23 24.3417L528.27 24.2532L528.312 24.1648C530.764 18.9551 535.251 12.2338 539.326 8.37408L539.609 8.10454L539.905 7.84902C541.962 6.06676 545.029 3.57957 549.197 1.92991C553.556 0.204896 557.554 0 560.421 0ZM560.421 17.6646C556.446 17.6646 554.789 18.327 551.476 21.1975C549.378 23.1848 546.066 27.9321 544.299 31.6859C542.532 35.55 540.102 42.2846 538.888 46.5904C537.673 51.0065 535.906 60.2804 535.023 67.1255C534.029 74.4121 533.366 88.1022 533.366 100.688V121.996C508.851 158.761 498.361 174.217 494.164 179.958C490.079 185.699 482.68 195.415 477.711 201.487C472.852 207.559 464.57 216.723 459.38 221.911C454.19 227.1 446.791 233.504 442.816 236.043C438.84 238.693 432.877 241.784 429.564 243.109C426.251 244.323 418.963 246.2 413.552 247.415C408.031 248.519 395.442 250.175 385.393 251.058C375.344 252.052 355.467 253.597 341.222 254.481C326.977 255.474 306.106 256.909 294.842 257.903C283.579 258.786 267.235 260.774 258.401 262.319C249.567 263.755 236.868 266.515 230.242 268.391C223.506 270.268 214.12 273.58 209.261 275.678C204.402 277.776 197.224 281.198 193.249 283.406C189.273 285.614 182.095 290.141 177.237 293.564C172.378 296.986 163.654 304.493 157.801 310.234C152.059 315.975 144.66 324.477 141.458 329.003C138.256 333.53 133.066 342.031 129.753 347.772C126.55 353.513 121.691 363.449 118.931 369.852C116.28 376.256 111.311 389.836 107.888 400.214C104.575 410.481 99.1642 427.152 95.9618 437.199C92.6489 447.577 87.5693 460.604 84.0356 467.56C80.7227 474.184 75.2013 483.458 71.6676 487.984C68.2444 492.511 61.95 499.466 57.6433 503.441C52.2324 508.409 45.7171 512.825 36.3308 517.793C28.9321 521.768 21.6439 526.295 20.3187 527.951C18.6623 529.938 17.6684 532.477 17.6684 534.906C17.6684 537.666 18.6623 539.874 21.3126 542.855C23.5211 545.394 28.4904 548.596 34.7848 551.577C40.3062 554.116 50.6864 557.76 57.9746 559.526C65.2628 561.293 75.6431 563.501 81.054 564.273C86.465 565.157 90.9925 566.261 91.2134 566.923C91.4342 567.475 94.6366 591.874 98.2807 621.021C101.925 650.168 105.348 676.002 105.679 678.431C106.121 680.86 107.446 684.282 108.771 686.049C109.986 687.815 112.747 690.134 114.845 691.348C118.268 693.115 121.581 693.335 147.2 693.335C168.623 693.335 176.464 693.004 179.224 691.79C181.102 691.017 183.752 689.25 184.967 687.815C186.733 685.938 187.175 683.841 187.175 677.989C187.065 672.579 186.402 669.157 184.304 664.63C182.758 661.318 179.335 656.129 176.684 653.259C173.924 650.278 169.286 646.414 166.194 644.758C163.212 642.991 159.347 641.335 157.691 641.004C154.82 640.342 154.599 639.9 154.599 635.153C154.599 632.172 155.593 623.119 156.807 614.949C157.912 606.779 160.12 594.303 161.666 587.348C163.102 580.392 165.642 570.125 167.188 564.715C168.623 559.195 170.501 553.454 171.053 551.798C171.826 549.921 174.366 547.492 177.568 545.726C180.439 544.07 185.74 540.757 189.384 538.439C193.028 536.01 199.322 531.152 203.518 527.619C207.604 523.976 211.138 521.216 211.469 521.326C211.8 521.548 209.923 528.393 207.273 536.562C204.623 544.732 199.874 556.435 196.782 562.507C193.58 568.579 191.04 574.32 191.04 575.203C191.04 576.087 192.144 579.84 193.58 583.484C195.016 587.127 201.972 604.792 209.04 622.677C215.997 640.562 224.058 661.208 226.929 668.495C229.69 675.781 233.334 683.62 234.99 685.938C236.757 688.367 239.739 690.796 242.168 691.679C245.371 693.004 252.217 693.335 273.64 693.335C297.382 693.335 301.357 693.115 304.67 691.348C306.768 690.355 309.529 688.036 310.744 686.38C312.29 684.282 312.952 681.743 312.842 678.652C312.842 676.112 311.627 671.255 310.302 667.943C308.977 664.63 306.216 659.662 304.339 656.902C302.351 654.142 298.045 650.168 294.732 647.96C291.419 645.751 285.566 642.771 281.591 641.446C277.616 640.01 274.303 638.796 274.192 638.796C274.08 638.672 272.755 630.949 271.211 621.573C269.665 612.189 267.346 599.271 266.131 592.868L263.812 581.276C280.597 564.163 289.763 553.454 294.953 546.498C300.253 539.543 307.321 529.055 310.854 523.314C314.278 517.573 319.688 507.305 322.891 500.681C326.093 493.946 329.958 485.556 331.394 481.912C332.719 478.269 334.155 474.846 334.486 474.405C334.929 473.964 344.536 475.288 356.13 477.496C367.614 479.594 390.031 483.348 405.822 485.887C421.609 488.315 434.858 490.633 435.196 491.076C435.638 491.517 436.742 497.59 437.736 504.545C438.84 511.5 441.38 528.613 443.478 542.634C445.576 556.545 449.11 579.399 451.208 593.42C453.306 607.331 457.282 632.724 459.932 649.726C462.582 666.728 465.232 681.853 465.784 683.399C466.447 684.945 467.993 687.263 469.429 688.588C470.864 690.023 473.846 691.569 475.944 692.231C478.152 692.894 491.404 693.335 506.312 693.335C520.888 693.335 534.802 692.783 537.231 692.231C539.992 691.569 542.863 689.913 544.851 687.594C547.832 684.282 548.053 683.399 547.501 677.327C547.17 673.132 545.734 667.943 543.415 662.974C541.428 658.669 537.783 653.148 535.244 650.499C532.704 647.849 528.176 644.206 525.195 642.219L519.784 638.686C520.998 607 521.992 585.913 522.986 571.339C523.87 556.766 524.863 543.297 525.195 541.53C525.526 539.653 525.968 538.439 526.189 538.77C526.52 539.101 529.943 556.656 533.918 577.964C537.894 599.161 543.857 631.399 547.17 649.395C550.483 667.501 554.016 683.73 554.9 685.607C555.783 687.374 558.213 689.802 560.2 690.907C563.182 692.452 567.489 692.783 589.684 693.115C603.93 693.335 617.844 693.115 620.604 692.783C624.248 692.231 626.678 690.907 629.439 688.146C633.193 684.282 633.304 684.061 632.641 677.437C632.199 673.242 630.653 667.832 628.334 662.974C626.126 658.337 622.371 653.038 619.058 649.616C615.966 646.524 611.218 642.881 608.457 641.446L603.488 638.906C604.813 609.649 606.138 585.029 607.353 565.267C608.568 545.505 610.555 514.261 611.88 495.713L614.199 462.04C618.948 456.078 622.592 450.668 625.132 446.362L629.991 438.303C634.297 442.609 637.279 444.154 639.377 444.485C641.586 444.817 644.567 444.485 646.444 443.602C648.211 442.829 650.861 440.952 652.407 439.407C653.953 437.861 656.825 433.114 658.812 428.918C660.91 424.613 663.782 416.443 665.217 410.702C666.653 404.961 668.42 395.687 669.193 390.277C669.855 384.757 670.849 359.475 671.401 333.971C671.953 305.487 672.837 284.621 673.61 279.873C674.714 274.243 675.818 271.372 677.916 269.275C680.235 266.956 682.554 266.183 690.726 265.19C696.137 264.417 711.045 262.65 723.854 261.105C736.553 259.559 751.02 257.241 755.878 256.026C760.737 254.812 768.688 251.72 773.436 249.181C779.51 245.98 784.258 242.336 789.007 237.368C793.093 233.062 797.289 226.99 799.829 221.911C802.037 217.385 804.908 209.657 806.123 204.799C807.338 199.941 808.332 194.2 808.332 192.102C808.332 189.894 807.338 186.582 805.902 184.374C803.694 181.062 798.724 178.192 771.89 164.833C754.553 156.221 737.989 147.279 735.007 144.96C730.37 141.317 729.155 139.44 726.063 131.38C724.075 126.191 720.652 118.794 718.333 114.82C716.124 110.845 712.039 104.884 709.388 101.571C706.738 98.2593 702.1 93.512 699.008 91.0831L693.487 86.6669C693.597 69.5543 694.039 57.4099 694.481 48.5776C694.922 39.7453 694.922 30.8026 694.37 28.705C693.928 26.6073 692.382 23.7368 691.057 22.3016C689.401 20.6455 687.192 19.7623 684.652 19.6519C682.554 19.6519 679.241 20.3143 677.475 21.3079C675.597 22.1911 672.174 25.1721 669.634 27.8217C667.205 30.4714 662.125 36.3228 658.481 40.8494C654.837 45.3759 648.984 53.2146 645.561 58.1828L639.377 67.3463C625.242 67.3463 618.617 67.6775 615.635 67.8983L610.114 68.5607C599.402 53.4354 592.003 44.1615 586.593 38.1997C581.292 32.1275 574.335 25.0616 571.243 22.412C566.274 18.4374 564.617 17.6646 560.421 17.6646ZM504.655 624.885L505.207 632.945C505.539 637.25 505.87 642.881 506.091 645.199C506.311 649.284 506.532 649.616 512.275 651.824C515.587 653.148 520.557 656.129 523.317 658.669C526.189 661.097 529.281 664.851 530.274 666.949C531.268 669.047 532.593 672.359 533.918 677.879H479.257L478.152 672.138C477.6 668.936 475.833 658.558 474.398 649.174C472.852 639.79 471.306 630.405 470.864 628.418L470.091 624.885H504.655ZM589.132 637.582C589.574 648.622 589.905 650.278 591.672 650.278C592.666 650.278 596.531 651.603 600.175 653.369C604.151 655.246 608.568 658.448 611.218 661.429C613.647 664.189 616.298 668.384 616.96 670.703C617.733 673.132 618.396 675.671 618.396 676.444C618.395 677.548 612.651 677.768 567.047 677.216L562.409 652.486C559.869 638.797 557.771 626.985 557.771 626.21C557.66 625.216 561.415 624.885 588.58 624.885L589.132 637.582ZM118.158 475.84C118.599 475.84 118.71 476.944 118.599 478.269C118.379 479.704 116.943 486.77 115.507 494.057C114.072 501.343 111.753 510.507 110.428 514.481C109.103 518.456 106.563 525.301 104.796 529.607C101.594 537.556 101.594 537.666 97.3973 537.666C95.1888 537.666 89.1152 537.114 83.9251 536.562C78.735 535.9 72.5511 534.796 65.7045 533.029L69.5695 530.048C71.6676 528.503 76.8578 524.197 81.1644 520.443C85.3607 516.8 93.0906 508.63 98.1703 502.227C103.25 495.934 109.655 487.432 112.416 483.237C115.066 479.152 117.716 475.84 118.158 475.84ZM651.524 99.3634C651.524 98.7009 652.849 98.4801 654.616 98.9217C656.272 99.253 661.794 101.571 666.984 104.111C674.051 107.423 678.137 110.404 683.548 115.924C687.524 119.898 692.382 125.86 694.37 129.172C696.247 132.484 699.56 139.992 701.437 145.733C704.198 153.682 705.965 157.105 708.947 159.865C711.045 161.962 716.787 166.268 721.646 169.47C726.505 172.671 735.67 177.86 742.075 181.062C748.48 184.264 755.547 188.018 757.756 189.453C761.179 191.661 761.952 192.765 761.952 195.635C761.952 197.623 762.946 201.266 763.94 203.695C765.044 206.124 767.252 209.215 768.909 210.54C770.565 211.975 771.89 213.521 771.89 214.183C771.89 214.735 770.455 216.943 768.688 218.82C767.032 220.807 762.394 223.899 758.529 225.665C753.78 227.763 746.492 229.75 736.553 231.406C728.382 232.731 713.032 234.608 702.542 235.602C690.836 236.706 681.008 238.251 676.922 239.576C673.278 240.791 668.42 242.999 666.101 244.323C663.892 245.759 660.579 248.629 658.812 250.727C657.045 252.825 653.954 257.903 651.966 262.209C649.978 266.404 647.549 274.353 646.444 279.873C644.898 288.043 644.457 297.428 644.236 332.315C644.125 355.721 643.684 377.912 643.352 381.776C643.021 385.53 642.359 388.842 641.806 389.173C641.365 389.394 639.929 388.18 638.494 386.413C636.837 384.095 634.739 382.88 631.868 382.439C629.328 382.107 626.236 382.439 623.586 383.543C621.377 384.536 618.617 386.634 617.623 388.29C616.518 390.056 614.31 396.57 612.653 402.974C610.887 409.377 607.132 419.534 604.151 425.606C601.169 431.679 595.979 439.848 592.776 443.823C589.464 447.798 583.611 453.539 579.636 456.63C575.771 459.721 570.801 463.254 568.703 464.468C566.605 465.683 563.844 467.008 562.63 467.449C560.642 468.001 560.311 467.449 559.538 458.948C559.096 453.98 557.992 445.148 556.998 439.407C556.004 433.666 553.795 423.177 552.139 416.222C550.372 409.267 547.722 399.993 546.286 395.797C544.851 391.492 541.317 382.549 538.667 375.925C535.906 369.19 531.268 359.033 528.397 353.292C525.526 347.551 521.882 340.706 520.225 338.167C518.679 335.517 516.471 333.419 515.367 333.419C514.373 333.419 512.164 335.075 510.397 337.063C508.741 339.05 504.876 344.018 496.373 355.61L490.41 343.687C487.097 337.173 483.011 328.23 481.244 324.035C479.478 319.729 477.048 312.553 475.833 308.026C474.729 303.5 473.294 295.772 472.741 290.914C472.079 285.725 472.079 278.217 472.741 272.697C473.183 267.508 474.95 259.559 476.496 255.033C478.042 250.506 480.471 244.986 481.797 242.888C483.122 240.791 487.207 235.491 490.852 231.296C494.496 226.99 499.465 221.139 501.894 218.158C504.324 215.177 508.962 209.657 512.054 205.793C515.367 201.818 518.127 199.389 518.348 200.052C518.569 200.824 519.673 205.241 520.667 209.767C521.661 214.294 524.201 221.801 526.299 226.328C528.507 230.854 532.814 238.03 535.906 242.226C539.109 246.421 545.403 253.266 549.93 257.461C554.458 261.657 562.409 268.06 567.599 271.593C572.789 275.126 578.863 278.769 581.071 279.763C583.39 280.757 586.261 281.53 587.476 281.53C588.912 281.53 591.562 278.99 594.875 274.574C597.856 270.82 603.93 263.865 608.457 259.118C612.985 254.37 623.696 245.096 632.199 238.693C640.592 232.179 650.862 223.568 654.837 219.593C658.812 215.618 664.002 209.436 666.432 205.793C668.751 202.26 672.064 195.746 673.72 191.55C675.376 187.245 677.364 179.627 678.137 174.438C678.91 168.918 679.131 160.969 678.8 155.117C678.468 149.597 677.033 141.648 675.708 137.453C674.383 133.147 671.953 126.964 670.297 123.652C668.64 120.34 664.886 114.489 662.125 110.625C659.364 106.871 655.831 103.007 654.285 102.123C652.739 101.24 651.524 99.9154 651.524 99.3634ZM510.87 234.98C508.671 237.591 506.273 240.421 504.339 242.706L504.266 242.792L504.191 242.878C502.613 244.696 500.883 246.818 499.401 248.723C498.665 249.67 498.026 250.516 497.526 251.201C497.276 251.542 497.079 251.82 496.932 252.032C496.86 252.135 496.81 252.209 496.777 252.257C496.735 252.335 496.629 252.535 496.455 252.885C496.168 253.462 495.812 254.226 495.416 255.13C494.615 256.961 493.807 259.011 493.217 260.74C492.094 264.026 490.655 270.562 490.346 274.195L490.32 274.499L490.284 274.802C489.815 278.709 489.8 284.268 490.185 287.964L490.268 288.677L490.283 288.798L490.297 288.919C490.748 292.887 492.009 299.731 492.957 303.663C493.992 307.459 496.106 313.697 497.562 317.261C498.121 318.583 498.944 320.447 499.908 322.573C500.796 321.76 501.725 320.988 502.676 320.286C503.655 319.564 504.974 318.678 506.547 317.895C507.65 317.346 510.961 315.755 515.367 315.755L515.85 315.761C520.797 315.89 524.364 317.962 525.642 318.749C527.438 319.855 528.877 321.097 529.924 322.112C531.952 324.076 533.789 326.432 535.279 328.918C537.61 332.593 541.489 339.971 544.2 345.392C547.073 351.137 551.489 360.774 554.445 367.847L555.015 369.226L555.044 369.295L555.071 369.364C557.62 375.735 561.343 385.129 563.004 390.08L563.327 391.045C564.783 395.462 566.896 402.833 568.541 409.084L569.264 411.874L569.296 412.002L569.327 412.13C571.043 419.338 573.335 430.199 574.408 436.394C574.467 436.738 574.526 437.09 574.586 437.45C576.287 435.768 577.921 434.036 579.097 432.638C581.406 429.739 585.841 422.81 588.29 417.822C590.728 412.857 594.098 403.777 595.609 398.314C596.526 394.794 597.589 391.241 598.609 388.229C599.371 385.98 600.73 382.097 602.474 379.202L602.472 379.201C602.502 379.151 602.534 379.103 602.564 379.054C602.59 379.012 602.614 378.969 602.64 378.927L602.641 378.928C604.751 375.529 607.539 373.106 609.24 371.772C611.252 370.193 613.709 368.615 616.335 367.434L616.561 367.332L616.79 367.237C619.832 365.97 623.036 365.192 626.195 364.852C626.2 364.586 626.207 364.317 626.212 364.047C626.376 355.175 626.513 343.858 626.568 332.232V332.203C626.785 297.902 627.174 286.684 629.084 276.589L629.101 276.5L629.119 276.409C630.065 271.68 631.823 265.363 633.788 260.012C628.456 264.463 623.567 268.873 621.245 271.307C617.062 275.694 611.41 282.173 608.779 285.475C606.893 287.967 604.803 290.471 602.607 292.546C601.48 293.611 599.918 294.955 597.991 296.133C596.405 297.104 592.622 299.194 587.476 299.194C584.339 299.194 581.372 298.426 580.022 298.057C578.16 297.547 576.088 296.847 574.111 296L573.966 295.937L573.82 295.872C570.088 294.193 562.919 289.778 557.655 286.195C551.675 282.124 543.038 275.159 537.92 270.417C532.762 265.637 525.761 258.052 521.861 252.942L521.77 252.825L521.682 252.705C518.133 247.89 513.599 240.386 510.87 234.98ZM696.161 172.077C696.019 173.757 695.846 175.377 695.635 176.887L695.613 177.041C694.664 183.409 692.366 192.29 690.21 197.892L690.154 198.037C688.111 203.213 684.264 210.823 681.204 215.485L681.168 215.537L681.133 215.591C679.986 217.31 678.488 219.312 676.828 221.386C682.745 220.115 690.667 219.035 698.714 218.226L700.882 218.015C711.081 217.049 725.952 215.225 733.648 213.982C739.967 212.929 744.585 211.813 747.772 210.822L747.715 210.696L747.587 210.384C746.748 208.334 746.004 206.03 745.451 203.86C745.354 203.479 745.249 203.045 745.142 202.568C744.539 202.239 743.877 201.882 743.166 201.502C740.473 200.064 737.246 198.397 734.173 196.861C727.304 193.428 717.502 187.895 711.923 184.219C707.1 181.041 700.335 176.116 696.778 172.67C696.569 172.473 696.363 172.276 696.161 172.077ZM644.788 140.213C646.665 140.213 649.536 140.875 651.193 141.758C652.96 142.531 655.168 145.07 656.162 147.279C657.266 149.487 658.15 152.468 658.15 154.013C658.15 155.559 657.377 158.209 656.493 160.085C655.61 161.852 653.733 164.17 652.297 165.054C650.972 165.937 647.88 166.71 645.451 166.71C643.021 166.71 639.929 165.937 638.494 165.054C637.168 164.17 635.291 161.852 634.408 160.085C633.524 158.209 632.862 155.007 632.862 152.799C632.972 149.707 634.076 147.72 637.168 144.518C640.26 141.317 642.248 140.213 644.788 140.213ZM645.451 154.89L645.188 155.013L643.448 157.623C643.705 157.739 643.867 157.799 643.911 157.814C643.933 157.822 643.952 157.828 643.967 157.833L643.97 157.834C643.993 157.837 644.279 157.877 644.788 157.877C645.47 157.877 646.376 157.799 647.398 157.533C648.207 157.323 648.897 157.045 649.448 156.77L645.451 154.89ZM644.463 155.354L641.782 156.615C642.088 156.841 642.547 157.151 643.156 157.477L644.463 155.354ZM648.694 153.363L645.785 154.732L649.653 156.665C649.656 156.664 649.658 156.663 649.661 156.661C649.904 156.154 650.131 155.566 650.29 154.925C650.473 154.195 650.511 153.65 650.519 153.429L648.694 153.363ZM640.519 153.072C640.5 153.31 640.481 153.629 640.481 154.013C640.481 154.628 640.524 155.09 640.552 155.346C640.557 155.388 640.563 155.429 640.568 155.468C640.633 155.561 640.696 155.643 640.771 155.727C640.854 155.82 641.068 156.05 641.458 156.366C641.5 156.399 641.552 156.437 641.611 156.483L644.726 154.926L644.906 154.634L641.673 153.113L640.519 153.072ZM646.345 153.279L645.506 154.537L647.909 153.335L646.345 153.279ZM642.613 153.146L645.067 154.373L645.754 153.258L642.613 153.146ZM640.543 152.799H641.005L640.568 152.593C640.559 152.655 640.551 152.723 640.543 152.799ZM645.127 149.055C645.101 149.057 645.081 149.059 645.067 149.06C645.054 149.064 645.036 149.069 645.013 149.076C644.961 149.092 644.853 149.126 644.697 149.186C644.546 149.244 644.292 149.348 643.96 149.51C643.67 149.652 643.211 149.894 642.651 150.257C641.891 150.763 641.442 151.178 641.314 151.299C641.202 151.405 641.13 151.481 641.093 151.522C641.055 151.562 641.035 151.585 641.029 151.592C641.027 151.594 641.026 151.595 641.006 151.623C640.999 151.634 640.875 151.817 640.69 152.186L641.918 152.799H646.036L647.754 150.009C647.24 149.693 646.825 149.487 646.571 149.368C646.306 149.245 646.108 149.167 645.995 149.125C645.906 149.092 645.84 149.069 645.797 149.056C645.79 149.055 645.782 149.055 645.773 149.055C645.719 149.051 645.61 149.045 645.451 149.045C645.291 149.045 645.182 149.051 645.127 149.055ZM648.294 150.356L646.665 152.799H648.983L650.211 152.186C650.111 151.987 650.033 151.851 649.992 151.78C649.968 151.741 649.949 151.711 649.937 151.691C649.909 151.661 649.864 151.612 649.798 151.547C649.717 151.468 649.569 151.327 649.352 151.144C649.145 150.97 648.789 150.686 648.294 150.356ZM649.896 152.799H650.5C650.47 152.73 650.436 152.651 650.395 152.564L649.896 152.799ZM645.848 149.062H645.852C645.852 149.062 645.85 149.062 645.847 149.061C645.847 149.061 645.844 149.06 645.841 149.06C645.844 149.061 645.848 149.062 645.848 149.062Z" fill="white"/>
<path d="M534.916 201.632C534.927 199.503 534.94 201.779 534.95 204.903C534.954 205.872 534.953 210.202 534.955 211.065C534.959 212.749 534.963 210.626 534.968 212.631C534.969 213.317 534.967 220.178 534.969 220.74C534.977 223.771 534.985 222.024 534.994 223.482C535.036 230.676 535.077 233.252 535.12 236.377C535.134 237.404 535.152 243.627 535.166 240.905C535.168 240.581 535.167 234.564 535.167 234.064C535.172 226.467 535.17 238.62 535.174 240.236C535.187 246.613 535.201 247.168 535.214 244.844C535.219 243.838 535.214 231.878 535.219 238.591C535.219 239.044 535.219 245.439 535.22 246.121C535.223 247.654 535.229 246.512 535.232 247.018C535.237 248.027 535.238 247.963 535.243 248.036C535.249 248.194 535.256 251.368 535.263 249.92C535.265 249.592 535.263 243.039 535.265 241.922C535.268 240.809 535.274 241.364 535.276 242.909C535.278 244.455 535.277 249.607 535.277 250.788C535.28 260.755 535.288 246.951 535.289 246.609C535.306 240.794 535.321 248.652 535.337 248.634C535.349 248.6 535.362 246.004 535.373 246.36C535.387 246.811 535.398 250.36 535.411 249.751C535.412 249.694 535.411 241.987 535.413 241.902C535.431 241.005 535.449 241.845 535.467 247.048C535.469 247.577 535.466 254.342 535.468 255.275C535.479 260.836 535.497 274.195 535.504 244.734C535.511 245.885 535.521 247.073 535.527 253.011C535.532 256.834 535.527 264.205 535.533 261.06C535.534 260.358 535.532 253.906 535.534 253.341C535.541 250.978 535.55 253.076 535.558 249.74C535.559 249.044 535.558 243.262 535.559 242.221C535.562 233.787 535.568 247.725 535.569 248.743C535.58 256.299 535.587 253.326 535.596 253.511C535.599 253.554 535.597 245.786 535.599 245.552C535.609 244.439 535.62 245.107 535.631 248.554C535.633 249.341 535.631 255.957 535.632 256.672C535.637 259.739 535.638 247.241 535.643 249.94C535.644 250.493 535.644 256.159 535.644 256.782C535.647 266.55 535.65 252.709 535.65 252.403C535.66 248.229 535.665 262.677 535.674 260.631C535.675 260.363 535.673 253.203 535.676 252.912C535.696 250.933 535.718 252.902 535.738 258.636C535.741 259.518 535.739 264.903 535.739 265.568C535.742 275.939 535.744 262.048 535.745 261.519C535.753 257.751 535.76 269.406 535.766 252.852C535.8 258.597 535.833 249.301 535.867 264.131C535.868 264.303 535.866 271.149 535.867 271.462C535.877 275.305 535.875 264.666 535.882 251.655C535.884 248.39 535.889 264.095 535.89 265.248C535.891 269.491 535.89 279.672 535.891 280.497C535.895 286.94 535.894 253.379 535.901 253.261C535.901 253.336 535.9 259.517 535.901 260.133C535.902 262.067 535.904 259.605 535.906 261.738C535.91 266.676 535.91 283.04 535.916 273.516C535.916 272.276 535.915 253.18 535.921 254.079C535.923 254.455 535.933 254.128 535.936 255.365C535.939 256.601 535.937 262.751 535.937 263.024C535.945 271.165 535.942 274.539 535.946 286.591C535.95 298.597 535.949 269.961 535.95 266.764C535.952 263.578 535.956 270.293 535.958 272.628C535.959 274.964 535.958 278.876 535.959 280.198C535.967 288.834 535.963 265.985 535.965 261.439C535.971 250.678 535.976 271.911 535.981 273.995C535.983 274.556 535.982 269.721 535.984 269.268C535.989 267.54 535.991 274.166 535.998 268.09C535.999 267.097 536.004 254.335 536.007 263.702C536.008 265.054 536.006 270.347 536.008 271.532C536.012 273.311 536.019 274.467 536.022 272.699C536.025 271.39 536.021 262.67 536.025 265.378C536.026 266.587 536.024 271.689 536.027 273.536C536.03 275.383 536.037 275.158 536.04 274.982C536.042 274.798 536.041 268.191 536.041 267.742C536.042 265.19 536.048 262 536.048 262.008C536.072 261.2 536.093 272.349 536.116 268.66C536.118 268.38 536.117 261.406 536.117 261.289C536.123 258.367 536.118 276.912 536.123 283.12C536.122 268.966 536.125 271.528 536.129 269.976C536.131 269.217 536.13 263.735 536.13 263.174C536.133 254.85 536.135 265.601 536.136 267.802C536.138 275.893 536.141 266.333 536.142 271.741C536.143 277.034 536.14 284.846 536.144 284.965C536.145 279.898 536.142 266.658 536.145 264.511C536.157 256.393 536.18 266.783 536.19 267.862C536.199 268.94 536.201 268.005 536.207 269.836C536.217 273.147 536.213 263.323 536.22 258.826C536.226 254.331 536.223 278.503 536.224 283.699C536.225 288.892 536.226 283.547 536.227 286.401C536.228 289.255 536.226 292.788 536.228 293.861C536.231 294.932 536.238 285.691 536.239 280.258C536.241 268.747 536.238 256.666 536.245 260.91C536.245 261.162 536.244 267.517 536.246 268.161C536.258 273.054 536.269 273.357 536.281 277.685C536.283 278.291 536.281 285.359 536.282 285.793C536.292 290.315 536.289 278.393 536.294 265.149C536.293 282.755 536.296 293.534 536.304 293.661C536.308 293.57 536.307 285.976 536.31 280.607C536.311 278.972 536.315 284.257 536.316 280.637C536.318 268.804 536.314 255.557 536.322 260.83C536.323 261.081 536.321 267.559 536.322 267.951C536.33 270.519 536.331 258.141 536.339 256.641C536.346 255.468 536.357 263.014 536.364 264.241C536.364 284.057 536.371 279.519 536.374 265.857C536.379 266.416 536.384 265.644 536.389 267.532C536.391 268.176 536.389 273.914 536.389 274.534C536.392 284.258 536.395 270.965 536.396 270.444C536.407 265.38 536.416 275.453 536.427 265.607C536.427 265.248 536.427 251.49 536.43 261.539C536.43 262.231 536.427 268.495 536.432 268.979C536.437 269.467 536.447 276.841 536.454 270.465C536.455 268.929 536.46 257.755 536.463 266.485C536.464 267.671 536.463 271.619 536.463 273.816C536.466 280.815 536.466 266.903 536.469 278.722C536.471 290.541 536.477 299.393 536.484 291.239C536.484 291.005 536.486 280.333 536.488 280.149C536.492 280.43 536.496 282.602 536.5 282.662C536.502 282.623 536.501 275.779 536.501 275.651C536.513 271.814 536.522 277.918 536.535 280.567C536.537 280.116 536.543 272.124 536.548 279.111C536.553 287.193 536.548 320.808 536.559 312.8C536.564 309.596 536.57 266.948 536.578 289.045C536.594 283.569 536.609 294.877 536.625 287.06C536.626 286.713 536.628 274.81 536.63 274.972C536.632 275.237 536.633 280.797 536.635 281.165C536.642 282.841 536.649 278.083 536.657 278.821C536.659 279.09 536.659 284.838 536.662 285.164C536.665 285.48 536.667 277.906 536.672 281.564C536.675 284.353 536.679 299.833 536.683 301.64C536.684 286.368 536.687 286.682 536.692 282.651C536.693 281.867 536.692 276.553 536.692 275.909C536.694 273.171 536.696 277.575 536.697 274.593C536.698 273.875 536.698 268.663 536.699 267.782C536.702 260.102 536.707 271.831 536.708 273.875C536.712 281.632 536.713 274.85 536.716 277.904C536.719 280.958 536.715 284.777 536.718 286.631C536.724 290.464 536.733 289.623 536.74 289.862C536.742 289.791 536.74 282.962 536.741 282.811C536.746 281.047 536.752 288.449 536.755 274.583C536.758 310.439 536.758 271.106 536.765 278.283C536.766 278.866 536.768 295.82 536.765 298.309C536.763 300.796 536.759 295.496 536.756 299.377C536.755 300.292 536.751 316.176 536.75 317.138C536.746 324.659 536.744 299.321 536.744 297.93C536.741 282.912 536.736 300.029 536.734 301.212C536.728 306.63 536.722 303.067 536.717 306.936C536.713 309.36 536.713 325.041 536.71 325.525C536.701 323.846 536.698 300.693 536.689 320.768C536.687 325.051 536.689 343.19 536.682 328.926C536.682 328.024 536.677 314.979 536.674 323.232C536.673 324.274 536.673 329.557 536.673 330.003C536.669 332.875 536.668 328.664 536.664 330.681C536.661 332.698 536.656 335.705 536.652 333.912C536.65 332.839 536.647 322.99 536.646 320.579C536.642 313.632 536.639 325.021 536.637 316.61C536.635 308.155 536.639 295.315 536.634 289.852C536.634 303.588 536.633 317.686 536.633 331.499C536.621 331.016 536.609 326.574 536.597 327.181C536.596 327.296 536.598 334.655 536.596 334.94C536.59 336.113 536.584 330.849 536.577 332.945C536.571 334.596 536.566 342.415 536.561 344.384C536.557 328.667 536.548 334.002 536.542 332.566C536.54 332.067 536.54 327.873 536.539 326.503C536.533 321.439 536.536 335.325 536.535 337.512C536.528 346.841 536.527 315.404 536.52 316.181C536.519 316.258 536.514 332.97 536.513 334.013C536.509 340.816 536.513 328.183 536.51 326.942C536.505 324.679 536.502 320.677 536.496 325.586C536.494 327.041 536.489 337.483 536.486 329.404C536.486 328.346 536.486 322.811 536.486 322.484C536.48 317.077 536.479 334.48 536.475 340.375C536.472 346.268 536.467 334.254 536.466 330.791C536.463 321.833 536.468 326.963 536.468 326.084C536.47 315.623 536.466 317.423 536.462 316.54C536.46 333.283 536.455 335.427 536.449 319.781C536.447 312.448 536.45 303.898 536.442 307.025C536.438 308.437 536.44 320.188 536.437 323.392C536.43 330.699 536.42 319.741 536.413 321.466C536.41 322.093 536.413 328.526 536.412 329.176C536.407 330.92 536.402 326.095 536.398 328.567C536.397 328.799 536.398 335.532 536.397 335.618C536.385 336.4 536.376 332.087 536.364 331.967C536.359 331.948 536.349 335.622 536.343 334.879C536.333 333.623 536.32 323.836 536.311 326.213C536.306 327.736 536.307 334.47 536.305 339.058C536.3 347.952 536.292 332.021 536.291 329.554C536.29 327.961 536.28 326.432 536.278 327.719C536.277 328.423 536.277 334.803 536.277 335.05C536.264 340.759 536.251 342.381 536.238 339.398C536.238 339.269 536.239 332.132 536.238 331.918C536.23 328.745 536.225 337.475 536.219 342.658C536.212 347.839 536.207 346.105 536.204 333.853C536.199 335.395 536.192 329.978 536.188 326.692C536.185 323.406 536.185 337.298 536.184 337.573C536.173 346.363 536.167 338.411 536.156 337.174C536.151 336.562 536.14 338.576 536.135 340.096C536.13 341.319 536.127 338.064 536.123 340.145C536.122 340.423 536.123 346.601 536.123 346.847C536.118 354.248 536.12 339.126 536.119 336.425C536.116 326.604 536.114 321.374 536.108 325.994C536.106 327.056 536.103 348.825 536.1 350.099C536.097 351.714 536.098 343.91 536.095 345.8C536.094 345.955 536.094 350.769 536.091 350.557C536.082 349.634 536.071 346.835 536.061 347.316C536.06 347.363 536.061 355.001 536.059 355.195C536.05 356.1 536.04 355.817 536.031 352.243C536.029 351.339 536.029 345.992 536.029 344.404C536.026 334.798 536.022 348.756 536.021 349.022C536.005 355.729 535.992 343.098 535.975 349.111C535.974 349.464 535.966 364.427 535.963 351.594C535.963 350.736 535.959 337.613 535.957 346.588C535.956 347.15 535.959 353.909 535.956 353.22C535.952 352.534 535.946 357.046 535.942 349.62C535.94 347.28 535.936 334.183 535.932 344.624C535.932 345.359 535.925 368.956 535.922 352.671C535.922 349.989 535.922 332.755 535.917 341.592C535.916 343.305 535.918 347.149 535.916 349.55C535.912 353.25 535.906 348.634 535.901 356.312C535.9 357.673 535.896 369.369 535.893 360.49C535.893 359.099 535.894 353.345 535.892 352.701C535.884 349.613 535.876 353.461 535.868 349.48C535.865 348.079 535.868 338.779 535.865 336.286C535.862 333.794 535.856 331.397 535.853 335.648C535.85 339.901 535.853 354.727 535.849 355.913C535.829 361.065 535.81 352.368 535.791 351.096C535.788 351.276 535.79 356.215 535.786 356.312C535.771 356.709 535.744 361.677 535.73 350.408C535.719 341.379 535.733 334.505 535.725 330.831C535.721 329.078 535.717 346.315 535.716 346.858C535.707 352.369 535.7 344.735 535.691 347.077C535.69 347.563 535.692 354.549 535.69 354.886C535.685 356.097 535.679 352.981 535.674 353.549C535.672 353.821 535.673 359.154 535.671 358.746C535.666 357.822 535.662 355.578 535.657 350.577C535.656 350.122 535.659 343.485 535.656 343.237C535.65 342.857 535.643 337.923 535.636 343.017C535.634 344.55 535.634 356.745 535.63 348.323C535.629 346.562 535.63 331.923 535.626 344.573C535.625 346.676 535.617 363.742 535.613 352.741C535.612 349.846 535.609 337.866 535.606 339.746C535.606 340.047 535.607 346.596 535.605 347.236C535.598 349.374 535.592 348.676 535.585 350.727C535.583 351.29 535.585 358.065 535.582 358.685C535.575 360.398 535.565 358.673 535.558 356.551C535.555 355.757 535.557 350.143 535.557 349.53C535.553 339.594 535.551 353.001 535.55 353.788C535.543 358.472 535.538 352.171 535.532 353.839C535.53 354.285 535.531 360.675 535.531 361.248C535.527 366.821 535.53 355.334 535.527 354.067C535.521 350.483 535.514 350.997 535.508 351.814C535.506 352.124 535.508 359.529 535.506 359.732C535.493 361.01 535.481 360.301 535.469 356.212C535.467 355.428 535.469 349.718 535.468 348.414C535.465 339.287 535.46 351.736 535.458 352.921C535.453 358.334 535.452 353.286 535.448 354.227C535.426 358.92 535.399 355.575 535.379 353.509C535.352 350.849 535.331 345.417 535.305 346.828C535.304 346.914 535.306 354.508 535.304 354.677C535.286 356.507 535.269 353.539 535.251 355.733C535.25 355.9 535.252 363.103 535.249 363.612C535.244 364.707 535.238 364.316 535.233 362.017C535.231 360.909 535.234 354.728 535.232 353.739C535.226 351.422 535.22 350.909 535.215 352.063C535.212 352.57 535.216 359.937 535.213 360.022C535.191 360.753 535.169 362.02 535.147 352.483C535.145 351.827 535.145 336.856 535.141 339.727C535.141 343.882 535.141 348.769 535.141 353.21C535.11 355.602 535.078 350.414 535.046 349.61C535.045 349.676 535.047 357.442 535.044 357.488C535.029 357.374 535.015 359.564 535 351.685C534.999 350.914 534.999 336.96 534.995 339.068C534.994 339.453 534.987 341.315 534.985 344.345C534.985 344.804 534.986 351.31 534.984 351.505C534.971 352.494 534.958 351.007 534.945 347.027C534.943 346.372 534.945 339.435 534.944 338.908C534.934 335.227 534.923 340.499 534.913 334.201C534.906 329.96 534.909 317.97 534.905 306.168C534.905 304.503 534.901 304.238 534.901 297.371C534.9 280.103 534.902 261.195 534.901 242.789C534.901 238.825 534.895 243.095 534.899 233.515C534.899 232.874 534.903 229.694 534.904 226.444C534.905 224.197 534.904 217.213 534.905 214.337C534.907 211.463 534.907 217.317 534.91 213.938C534.912 210.517 534.911 202.574 534.916 201.632ZM534.918 302.488C534.917 310.248 534.923 310.875 534.921 302.807C534.921 302.483 534.918 302.167 534.918 302.488ZM536.707 291.707C536.705 287.02 536.701 292.431 536.703 298.26C536.705 302.948 536.709 297.537 536.707 291.707ZM535.979 287.289C535.979 293.918 535.982 292.047 535.981 285.922C535.981 285.558 535.979 285.232 535.979 287.289ZM536.782 276.319C536.787 281.019 536.791 263.049 536.797 272.678C536.798 274.429 536.791 291.213 536.79 291.348C536.79 291.334 536.79 291.321 536.79 291.308C536.778 289.998 536.77 261.382 536.784 264.61C536.786 265.195 536.779 273.738 536.782 276.319ZM536.166 282.343C536.164 290.1 536.17 290.721 536.169 282.651C536.169 282.328 536.166 282.023 536.166 282.343ZM535.852 270.115C535.849 282.801 535.863 284.141 535.86 270.814C535.859 270.125 535.852 269.481 535.852 270.115Z" fill="white"/>
<path d="M612.124 110.209C625.491 92.0336 651.065 88.1324 669.245 101.497C684.654 112.825 689.803 132.919 682.875 149.849L682.625 150.929C681.098 157.524 678.839 164.535 675.178 171.8L673.077 175.972L670.086 179.562C666.427 183.956 659.361 193.116 653.236 199.925C652.794 200.796 652.457 201.561 650.891 204.638C648.076 210.169 641.937 221.915 629.817 231.293C626.325 233.995 623.289 236.762 618.854 240.729C615.084 244.102 609.17 249.402 602.393 253.804C595.783 258.098 589.339 259.895 585.655 260.737C581.635 261.655 577.882 262.083 575.132 262.325C573.345 262.482 571.29 262.606 569.266 262.707C569.115 263.156 568.961 263.603 568.798 264.048C568.798 264.048 568.764 264.139 568.705 264.346C568.645 264.556 568.565 264.867 568.467 265.307C568.257 266.25 568.039 267.446 567.737 269.335C567.502 270.805 567.051 273.797 566.613 276.265C566.132 278.977 565.423 282.541 564.299 286.389C559.148 304.014 547.861 317.46 537.068 326.89C521.233 340.725 501.25 346.132 487.422 346.132C464.857 346.132 446.564 327.843 446.564 305.282C446.564 297.943 448.502 291.057 451.891 285.104C451.816 281.911 452.117 279.401 452.319 277.999C452.898 273.994 453.948 270.781 454.416 269.399L454.617 268.817C456.741 262.825 460.024 257.719 461.358 255.666C463.473 252.414 466.029 248.901 468.827 245.49C470.687 243.222 479.59 231.497 485.976 224.572C486.664 223.826 487.456 222.983 488.342 222.075C488.911 220.636 489.594 218.918 490.191 217.482L490.534 216.679C494.131 208.47 499.328 203.083 502.361 200.287C505.66 197.245 508.832 195.095 510.189 194.184L511.104 193.583C520.558 187.477 530.329 184.858 537.291 183.538C544.691 182.136 551.834 181.695 556.873 181.459C559.447 181.338 561.324 181.269 562.825 181.213C563.293 180.8 563.804 180.346 564.362 179.847C567.517 177.025 572.216 172.732 577.643 168.386C577.765 168.158 577.905 167.894 578.06 167.588C578.532 166.662 578.885 165.935 579.59 164.515C580.192 163.304 581.019 161.655 581.964 159.919C583.728 156.678 586.897 151.231 591.877 145.954L592.692 145.076C595.791 141.692 598.025 138.665 602.69 132.894C603.575 127.936 606.067 118.444 612.124 110.209Z" fill="white"/>
<path d="M610.019 129.142C611.85 107.01 631.005 90.4633 653.054 91.7254L654.106 91.7987L654.987 91.8774C673.487 93.6482 691.245 102.949 703.57 118.824C710.252 127.43 712.825 136.681 713.923 141.072C715.129 145.898 715.906 150.917 716.385 153.997C717.461 154.365 718.649 154.778 719.883 155.232C727.225 157.934 733.432 161.063 737.039 162.837C739.438 164.016 740.709 164.597 741.349 164.878C741.603 164.919 741.907 164.968 742.266 165.025C743.264 165.184 746.027 165.621 749.127 166.492C751.874 167.263 758.437 169.299 765.03 174.517C768.025 176.888 773.748 181.799 778.019 189.56C783.066 198.729 786.893 214.144 778.729 230.018C772.115 242.878 761.276 248.331 757.02 250.216C751.861 252.501 747.039 253.559 743.95 254.113C732.708 256.126 718.167 255.701 707.709 255.208C697.623 254.733 686.825 253.898 678.008 253.217C677.107 254.81 676.092 256.472 674.948 258.136C666.185 270.889 663.871 273.276 661.775 277.957C661.829 277.836 661.57 278.377 660.397 283.204C659.516 286.824 657.777 294.425 654.558 302.087C653.75 304.009 652.803 307.584 650.74 323.223C648.611 339.349 650.412 354.97 650.463 374.416C650.53 399.478 634.807 414.75 628.182 420.729C625.647 423.015 620.032 427.645 619.798 427.845C619.313 428.261 618.981 428.559 618.773 428.751C614.152 435.058 611.122 440.234 604.994 449.424C600.223 456.579 592.088 466.118 580.945 473.362C572.899 478.592 561.619 482.308 548.781 480.09C536.971 478.05 528.937 471.842 524.534 467.54C516.668 459.856 512.564 450.501 510.981 446.838C508.908 442.038 507.095 436.798 506.041 433.83C504.578 429.707 504.227 428.964 504.375 429.26C500.749 422.002 497.955 414.622 495.665 408.4C493.198 401.699 491.181 395.97 488.488 389.307C481.891 372.982 480.186 357.115 478.472 346.918C477.299 339.938 476.106 335.74 475.068 331.997C474.68 330.598 473.539 326.644 472.897 322.615C472.158 317.98 471.402 309.654 474.572 300.075L474.994 298.847C484.116 273.335 508.471 265.602 515.704 263.45C521.167 261.824 526.423 260.798 530.141 260.121C532.872 259.625 534.46 259.357 535.677 259.144C536.225 258.753 536.982 258.18 537.958 257.366C541.823 254.137 546.428 249.462 552.413 243.026C553.188 242.193 553.507 241.686 553.596 241.536C553.681 241.395 553.721 241.309 553.78 241.152C553.913 240.797 553.976 240.588 554.529 238.685C554.726 238.008 555.246 236.203 555.94 234.279C556.567 232.539 558.085 228.522 560.99 224.151L561.367 223.585C562.43 222.006 564.742 218.71 567.911 215.582C568.441 215.059 575.397 207.651 587.14 204.712C592.928 203.264 601.172 202.64 609.932 205.523C610.193 204.908 610.438 204.342 610.648 203.876C612.417 199.941 619.554 183.507 637.074 175.152C636.781 173.59 636.522 172.095 636.3 170.734C619.659 164.461 608.481 147.742 610.019 129.142ZM634.643 160.878C634.538 160.455 634.529 160.538 634.673 161C634.662 160.958 634.653 160.917 634.643 160.878Z" fill="white"/>
<path d="M123.041 470.12C128.528 470.147 138.673 471.329 148.266 477.379C153.338 479.839 157.979 483.393 161.819 488.009C174.482 503.232 174.207 524.931 162.223 539.766C162.019 540.083 161.811 540.402 161.596 540.719C155.559 549.595 146.284 556.062 135.348 558.468C125.427 560.65 117.624 560.675 115.214 560.675C110.97 560.675 106.877 560.027 103.029 558.827C99.9704 558.043 96.616 556.877 93.2468 555.133C78.1492 547.318 68.9017 531.41 69.9944 514.197C70.9502 499.143 79.5241 486.604 91.1116 479.681L92.8068 478.678C97.6925 475.853 108.92 470.05 123.041 470.12Z" fill="white"/>
<path d="M60.0121 527.376C62.1336 521.013 69.0127 517.575 75.3771 519.696C76.3453 520.018 76.8745 520.189 77.4649 520.337C78.0008 520.471 78.6885 520.609 79.6918 520.711C82.0943 520.956 85.7565 520.971 90.5264 520.971C97.2349 520.971 102.673 526.408 102.673 533.116C102.673 539.823 97.2349 545.26 90.5264 545.26C86.2572 545.26 81.1456 545.274 77.2244 544.874C72.715 544.414 69.8246 543.448 67.6946 542.738C61.3302 540.617 57.8906 533.739 60.0121 527.376Z" fill="white"/>
<path d="M475.168 613.632C479.571 609.364 486.372 609.099 491.076 612.762C492.312 612.338 493.638 612.105 495.018 612.105C501.727 612.105 507.165 617.542 507.165 624.249C507.165 627.02 507.209 628.525 507.311 629.422C508.355 631.621 509.656 633.74 511.271 636.205C512.234 636.728 513.407 637.303 514.846 637.962C516.928 638.916 520.305 640.365 522.966 641.66C527.756 643.992 536.647 648.616 539.962 658.011L540.115 658.461L540.229 658.817C540.867 660.882 542.382 667.086 537.83 672.786C533.609 678.07 527.163 678.918 523.345 679.107C513.859 679.576 504.717 679.895 497.63 679.617C494.149 679.48 490.585 679.182 487.518 678.498C485.998 678.158 484.079 677.614 482.186 676.645C480.43 675.746 477.385 673.813 475.545 670.041C474.183 667.249 473.731 664.322 473.528 663.013C473.212 660.976 473.194 660.533 473.025 659.783C471.162 651.485 470.684 641.915 470.686 634.695C470.688 631.008 470.816 627.704 470.997 625.191C471.086 623.958 471.198 622.773 471.338 621.767C471.404 621.295 471.507 620.629 471.671 619.928C471.748 619.597 471.899 618.988 472.161 618.277C472.22 618.116 473.002 615.733 475.168 613.632Z" fill="white"/>
<path d="M580.475 608.307C587.183 608.308 592.622 613.745 592.622 620.452C592.622 622.26 592.642 623.151 592.729 623.837C593.488 627.021 594.143 630.917 594.752 634.348C597.594 637.771 600.944 640.875 604.791 644.357C609.037 648.198 614.5 653.002 618.553 658.679C618.826 659.062 619.839 660.435 620.609 662.022C621.34 663.527 622.973 667.43 621.553 672.199C620.044 677.266 616.202 679.78 613.896 680.874C611.604 681.962 609.176 682.475 607.186 682.779C604.444 683.198 598.329 684.257 592.34 684.458C589.323 684.559 585.795 684.472 582.354 683.794C579.1 683.152 574.503 681.712 570.826 677.999C562.296 669.384 559.531 660.349 558.346 657.77C555.902 652.451 554.187 645.125 553.283 638.72C552.814 635.395 552.512 631.966 552.484 628.774C552.458 625.807 552.65 622.152 553.657 618.828C555.603 612.409 562.384 608.783 568.804 610.728C569.852 611.045 570.824 611.494 571.711 612.046C573.921 609.743 577.03 608.307 580.475 608.307Z" fill="white"/>
<path fill-rule="evenodd" clip-rule="evenodd" d="M560.421 17.6646C564.617 17.6646 566.274 18.4374 571.243 22.412C574.335 25.0616 581.292 32.1275 586.593 38.1997C592.003 44.1615 599.402 53.4354 610.114 68.5607L615.635 67.8983C618.617 67.6775 625.242 67.3463 639.377 67.3463L645.561 58.1828C648.984 53.2146 654.837 45.3759 658.481 40.8494C662.125 36.3228 667.205 30.4714 669.634 27.8217C672.174 25.1721 675.597 22.1911 677.475 21.3079C679.241 20.3143 682.554 19.6519 684.652 19.6519C687.192 19.7623 689.401 20.6455 691.057 22.3016C692.382 23.7368 693.928 26.6073 694.37 28.705C694.922 30.8026 694.922 39.7453 694.481 48.5776C694.039 57.4099 693.597 69.5543 693.487 86.6669L699.008 91.0831C702.1 93.512 706.738 98.2593 709.388 101.571C712.039 104.884 716.124 110.845 718.333 114.82C720.652 118.794 724.075 126.191 726.063 131.38C729.155 139.44 730.37 141.317 735.007 144.96C737.989 147.279 754.553 156.221 771.89 164.833C798.724 178.192 803.694 181.062 805.902 184.374C807.338 186.582 808.332 189.894 808.332 192.102C808.332 194.2 807.338 199.941 806.123 204.799C804.908 209.657 802.037 217.385 799.829 221.911C797.289 226.99 793.093 233.062 789.007 237.368C784.258 242.336 779.51 245.98 773.436 249.181C768.688 251.72 760.737 254.812 755.878 256.026C751.02 257.241 736.553 259.559 723.854 261.105C711.045 262.65 696.137 264.417 690.726 265.19C682.554 266.183 680.235 266.956 677.916 269.275C675.818 271.372 674.714 274.243 673.61 279.873C672.837 284.621 671.953 305.487 671.401 333.971C670.849 359.475 669.855 384.757 669.193 390.277C668.42 395.687 666.653 404.961 665.217 410.702C663.782 416.443 660.91 424.613 658.812 428.918C656.825 433.114 653.953 437.861 652.407 439.407C650.861 440.952 648.211 442.829 646.444 443.602C644.567 444.485 641.586 444.817 639.377 444.485C637.279 444.154 634.297 442.609 629.991 438.303L625.132 446.362C622.592 450.668 618.948 456.078 614.199 462.04L611.88 495.713C610.555 514.261 608.568 545.505 607.353 565.267C606.138 585.029 604.813 609.649 603.488 638.906L608.457 641.446C611.218 642.881 615.966 646.524 619.058 649.616C622.371 653.038 626.126 658.337 628.334 662.974C630.653 667.832 632.199 673.242 632.641 677.437C633.304 684.061 633.193 684.282 629.439 688.146C626.678 690.907 624.248 692.231 620.604 692.783C617.844 693.115 603.93 693.335 589.684 693.115C567.489 692.783 563.182 692.452 560.2 690.907C558.213 689.802 555.783 687.374 554.9 685.607C554.016 683.73 550.483 667.501 547.17 649.395C543.857 631.399 537.894 599.161 533.918 577.964C529.943 556.656 526.52 539.101 526.189 538.77C525.968 538.439 525.526 539.653 525.195 541.53C524.863 543.297 523.87 556.766 522.986 571.339C521.992 585.913 520.998 607 519.784 638.686L525.195 642.219C528.176 644.206 532.704 647.849 535.244 650.499C537.783 653.148 541.428 658.669 543.415 662.974C545.734 667.943 547.17 673.132 547.501 677.327C548.053 683.399 547.832 684.282 544.851 687.594C542.863 689.913 539.992 691.569 537.231 692.231C534.802 692.783 520.888 693.335 506.312 693.335C491.404 693.335 478.152 692.894 475.944 692.231C473.846 691.569 470.864 690.023 469.429 688.588C467.993 687.263 466.447 684.945 465.784 683.399C465.232 681.853 462.582 666.728 459.932 649.726C457.282 632.724 453.306 607.331 451.208 593.42C449.11 579.399 445.576 556.545 443.478 542.634C441.38 528.613 438.84 511.5 437.736 504.545C436.742 497.59 435.638 491.517 435.196 491.076C434.865 490.634 421.613 488.316 405.822 485.887C390.031 483.348 367.614 479.594 356.13 477.496C344.535 475.288 334.928 473.963 334.486 474.405C334.155 474.846 332.719 478.269 331.394 481.912C329.958 485.556 326.093 493.946 322.891 500.681C319.688 507.305 314.278 517.573 310.854 523.314C307.321 529.055 300.253 539.543 294.953 546.498C289.763 553.454 280.597 564.163 263.812 581.276L266.131 592.868C267.346 599.271 269.665 612.189 271.211 621.573C272.757 630.957 274.082 638.686 274.192 638.796C274.303 638.796 277.616 640.01 281.591 641.446C285.566 642.771 291.419 645.751 294.732 647.96C298.045 650.168 302.351 654.142 304.339 656.902C306.216 659.662 308.977 664.63 310.302 667.943C311.627 671.255 312.842 676.112 312.842 678.652C312.952 681.743 312.29 684.282 310.744 686.38C309.529 688.036 306.768 690.355 304.67 691.348C301.357 693.115 297.382 693.335 273.64 693.335C252.217 693.335 245.371 693.004 242.168 691.679C239.739 690.796 236.757 688.367 234.99 685.938C233.334 683.62 229.69 675.781 226.929 668.495C224.058 661.208 215.997 640.562 209.04 622.677C201.972 604.792 195.016 587.127 193.58 583.484C192.144 579.84 191.04 576.087 191.04 575.203C191.04 574.32 193.58 568.579 196.782 562.507C199.874 556.435 204.623 544.732 207.273 536.562C209.923 528.392 211.801 521.547 211.469 521.326C211.138 521.216 207.604 523.976 203.518 527.619C199.322 531.152 193.028 536.01 189.384 538.439C185.74 540.757 180.439 544.07 177.568 545.726C174.366 547.492 171.826 549.921 171.053 551.798C170.501 553.454 168.623 559.195 167.188 564.715C165.642 570.125 163.102 580.392 161.666 587.348C160.12 594.303 157.912 606.779 156.807 614.949C155.593 623.119 154.599 632.172 154.599 635.153C154.599 639.9 154.82 640.342 157.691 641.004C159.347 641.335 163.212 642.991 166.194 644.758C169.286 646.414 173.924 650.278 176.684 653.259C179.335 656.129 182.758 661.318 184.304 664.63C186.402 669.157 187.065 672.579 187.175 677.989C187.175 683.841 186.733 685.938 184.967 687.815C183.752 689.25 181.102 691.017 179.224 691.79C176.464 693.004 168.623 693.335 147.2 693.335C121.581 693.335 118.268 693.115 114.845 691.348C112.747 690.134 109.986 687.815 108.771 686.049C107.446 684.282 106.121 680.86 105.679 678.431C105.348 676.002 101.925 650.168 98.2807 621.021C94.6366 591.874 91.4342 567.475 91.2134 566.923C90.9925 566.261 86.465 565.157 81.054 564.273C75.6431 563.501 65.2628 561.293 57.9746 559.526C50.6864 557.76 40.3062 554.116 34.7848 551.577C28.4904 548.596 23.5211 545.394 21.3126 542.855C18.6623 539.874 17.6684 537.666 17.6684 534.906C17.6684 532.477 18.6623 529.938 20.3187 527.951C21.6439 526.295 28.9321 521.768 36.3308 517.793C45.7171 512.825 52.2324 508.409 57.6433 503.441C61.95 499.466 68.2444 492.511 71.6676 487.984C75.2013 483.458 80.7227 474.184 84.0356 467.56C87.5693 460.604 92.6489 447.577 95.9618 437.199C99.1642 427.152 104.575 410.481 107.888 400.214C111.311 389.836 116.28 376.256 118.931 369.852C121.691 363.449 126.55 353.513 129.753 347.772C133.066 342.031 138.256 333.53 141.458 329.003C144.66 324.477 152.059 315.975 157.801 310.234C163.654 304.493 172.378 296.986 177.237 293.564C182.095 290.141 189.273 285.614 193.249 283.406C197.224 281.198 204.402 277.776 209.261 275.678C214.12 273.58 223.506 270.268 230.242 268.391C236.868 266.515 249.567 263.755 258.401 262.319C267.235 260.774 283.579 258.786 294.842 257.903C306.106 256.909 326.977 255.474 341.222 254.481C355.467 253.597 375.344 252.052 385.393 251.058C395.442 250.175 408.031 248.519 413.552 247.415C418.963 246.2 426.251 244.323 429.564 243.109C432.877 241.784 438.84 238.693 442.816 236.043C446.791 233.504 454.19 227.1 459.38 221.911C464.57 216.723 472.852 207.559 477.711 201.487C482.68 195.415 490.079 185.699 494.164 179.958C498.361 174.217 508.851 158.761 533.366 121.996V100.688C533.366 88.1022 534.029 74.4121 535.023 67.1255C535.906 60.2804 537.673 51.0065 538.888 46.5904C540.102 42.2846 542.532 35.55 544.299 31.6859C546.066 27.9321 549.378 23.1848 551.476 21.1975C554.789 18.327 556.446 17.6646 560.421 17.6646ZM654.285 102.123C655.831 103.007 659.364 106.871 662.125 110.625C664.886 114.489 668.64 120.34 670.297 123.652C671.953 126.964 674.383 133.147 675.708 137.453C677.033 141.648 678.468 149.597 678.8 155.117C679.131 160.969 678.91 168.918 678.137 174.438C677.364 179.627 675.376 187.245 673.72 191.55C672.064 195.746 668.751 202.26 666.432 205.793C664.002 209.436 658.812 215.618 654.837 219.593C650.862 223.568 640.592 232.179 632.199 238.693C623.696 245.096 612.985 254.37 608.457 259.118C603.93 263.865 597.856 270.82 594.875 274.574C591.562 278.99 588.912 281.53 587.476 281.53C586.261 281.53 583.39 280.757 581.071 279.763C578.863 278.769 572.789 275.126 567.599 271.593C562.409 268.06 554.458 261.657 549.93 257.461C545.403 253.266 539.109 246.421 535.906 242.226C532.814 238.03 528.507 230.854 526.299 226.328C524.201 221.801 521.661 214.294 520.667 209.767C519.673 205.241 518.569 200.824 518.348 200.052C518.127 199.389 515.367 201.818 512.054 205.793C508.962 209.657 504.324 215.177 501.894 218.158C499.465 221.139 494.496 226.99 490.852 231.296C487.207 235.491 483.122 240.791 481.797 242.888C480.471 244.986 478.042 250.506 476.496 255.033C474.95 259.559 473.183 267.508 472.741 272.697C472.079 278.217 472.079 285.725 472.741 290.914C473.294 295.772 474.729 303.5 475.833 308.026C477.048 312.553 479.478 319.729 481.244 324.035C483.011 328.23 487.097 337.173 490.41 343.687L496.373 355.61C504.876 344.018 508.741 339.05 510.397 337.063C512.164 335.075 514.373 333.419 515.367 333.419C516.471 333.419 518.679 335.517 520.225 338.167C521.882 340.706 525.526 347.551 528.397 353.292C531.268 359.033 535.906 369.19 538.667 375.925C541.317 382.549 544.851 391.492 546.286 395.797C547.722 399.993 550.372 409.267 552.139 416.222C553.795 423.177 556.004 433.666 556.998 439.407C557.992 445.148 559.096 453.98 559.538 458.948C560.311 467.449 560.642 468.001 562.63 467.449C563.844 467.008 566.605 465.683 568.703 464.468C570.801 463.254 575.771 459.721 579.636 456.63C583.611 453.539 589.464 447.798 592.776 443.823C595.979 439.848 601.169 431.679 604.151 425.606C607.132 419.534 610.887 409.377 612.653 402.974C614.31 396.57 616.518 390.056 617.623 388.29C618.617 386.634 621.377 384.536 623.586 383.543C626.236 382.439 629.328 382.107 631.868 382.439C634.739 382.88 636.837 384.095 638.494 386.413C639.929 388.18 641.365 389.394 641.806 389.173C642.359 388.842 643.021 385.53 643.352 381.776C643.684 377.912 644.125 355.721 644.236 332.315C644.457 297.428 644.898 288.043 646.444 279.873C647.549 274.353 649.978 266.404 651.966 262.209C653.954 257.903 657.045 252.825 658.812 250.727C660.579 248.629 663.892 245.759 666.101 244.323C668.42 242.999 673.278 240.791 676.922 239.576C681.008 238.251 690.836 236.706 702.542 235.602C713.032 234.608 728.382 232.731 736.553 231.406C746.492 229.75 753.78 227.763 758.529 225.665C762.394 223.899 767.032 220.807 768.688 218.82C770.455 216.943 771.89 214.735 771.89 214.183C771.89 213.521 770.565 211.975 768.909 210.54C767.252 209.215 765.044 206.124 763.94 203.695C762.946 201.266 761.952 197.623 761.952 195.635C761.952 192.765 761.179 191.661 757.756 189.453C755.547 188.018 748.48 184.264 742.075 181.062C735.67 177.86 726.505 172.671 721.646 169.47C716.787 166.268 711.045 161.962 708.947 159.865C705.965 157.105 704.198 153.682 701.437 145.733C699.56 139.992 696.247 132.484 694.37 129.172C692.382 125.86 687.524 119.898 683.548 115.924C678.137 110.404 674.051 107.423 666.984 104.111C661.794 101.571 656.272 99.253 654.616 98.9217C652.849 98.4801 651.524 98.7009 651.524 99.3634C651.524 99.9154 652.739 101.24 654.285 102.123ZM632.862 152.799C632.862 155.007 633.524 158.209 634.408 160.085C635.291 161.852 637.168 164.17 638.494 165.054C639.929 165.937 643.021 166.71 645.451 166.71C647.88 166.71 650.972 165.937 652.297 165.054C653.733 164.17 655.61 161.852 656.493 160.085C657.377 158.209 658.15 155.559 658.15 154.013C658.15 152.468 657.266 149.487 656.162 147.279C655.168 145.07 652.96 142.531 651.193 141.758C649.536 140.875 646.665 140.213 644.788 140.213C642.248 140.213 640.26 141.317 637.168 144.518C634.076 147.72 632.972 149.707 632.862 152.799ZM98.1703 502.227C93.0906 508.63 85.3607 516.8 81.1644 520.443C76.8578 524.197 71.6676 528.503 69.5695 530.048L65.7045 533.029C72.5511 534.796 78.735 535.9 83.9251 536.562C89.1152 537.114 95.1888 537.666 97.3973 537.666C101.594 537.666 101.594 537.556 104.796 529.607C106.563 525.301 109.103 518.456 110.428 514.481C111.753 510.507 114.072 501.343 115.507 494.057C116.943 486.77 118.379 479.704 118.599 478.269C118.71 476.944 118.599 475.84 118.158 475.84C117.716 475.84 115.066 479.152 112.416 483.237C109.655 487.432 103.25 495.934 98.1703 502.227ZM470.864 628.418C471.306 630.405 472.852 639.79 474.398 649.174C475.833 658.558 477.6 668.936 478.152 672.138L479.257 677.879H533.918C532.593 672.359 531.268 669.047 530.274 666.949C529.281 664.851 526.189 661.097 523.317 658.669C520.557 656.129 515.587 653.148 512.275 651.824C506.532 649.616 506.311 649.284 506.091 645.199C505.87 642.881 505.539 637.25 505.207 632.945L504.655 624.885H470.091L470.864 628.418ZM562.409 652.486L567.047 677.216C612.653 677.769 618.396 677.548 618.396 676.444C618.396 675.671 617.733 673.132 616.96 670.703C616.298 668.384 613.647 664.189 611.218 661.429C608.568 658.448 604.151 655.246 600.175 653.369C596.531 651.603 592.666 650.278 591.672 650.278C589.905 650.278 589.574 648.622 589.132 637.582L588.58 624.885C561.415 624.885 557.66 625.216 557.771 626.21C557.771 626.983 559.869 638.796 562.409 652.486Z" fill="black"/>
</svg>
