<svg width="82" height="63" viewBox="0 0 82 63" fill="none" xmlns="http://www.w3.org/2000/svg">
<path d="M72 17L10 17M72 17C75.866 17 79 13.866 79 10C79 6.13401 75.866 3 72 3L10 3C6.134 3 3 6.13401 3 10C3 13.866 6.134 17 10 17M72 17V56.747C72 58.5436 70.5196 60 68.6933 60H13.3067C11.4805 60 10 58.5436 10 56.747L10 17M54.9711 37L27.6823 37C26.939 37 26.2515 36.3049 25.8766 35.1743L24.2809 28.2238C24.1372 27.5974 24.613 27 25.2556 27L57.6917 27C58.3508 27 58.8296 27.6265 58.6567 28.2624L56.7768 35.1743C56.4019 36.3049 55.7145 37 54.9711 37Z" stroke="white" stroke-width="6" stroke-linecap="round"/>
</svg>
